SplineFontDB: 3.2
FontName: CSLSans-Bold
FullName: CSL Sans Bold
FamilyName: CSL Sans
Weight: Bold
Copyright: Copyright (c) 2019 IBM Corp. with Reserved Font Name "Plex"\n\nCopyright (c) 2019 The HMI Sans Project Authors (https://github.com/somegoodpixels/hmi-sans)\nCopyright (c) 2021 The CSL Sans Project Authors (https://github.com/cssobral2013/CSL-Sans)\nThis Font Software is licensed under the SIL Open Font License, Version 1.1.\nThis license is copied below, and is also available with a FAQ at: http://scripts.sil.org/OFL.
Version: 2.001;January 21, 2022;FontCreator 14.0.0.2808 64-bit
ItalicAngle: 0
UnderlinePosition: -225
UnderlineWidth: 100
Ascent: 800
Descent: 200
InvalidEm: 0
sfntRevision: 0x00020041
LayerCount: 2
Layer: 0 1 "Back" 1
Layer: 1 1 "Fore" 0
XUID: [1021 651 537639564 14526]
StyleMap: 0x0020
FSType: 0
OS2Version: 3
OS2_WeightWidthSlopeOnly: 0
OS2_UseTypoMetrics: 0
CreationTime: 1550580372
ModificationTime: 1642760141
PfmFamily: 81
TTFWeight: 700
TTFWidth: 5
LineGap: 0
VLineGap: 0
Panose: 0 0 8 0 0 0 0 0 0 0
OS2TypoAscent: 1000
OS2TypoAOffset: 0
OS2TypoDescent: -220
OS2TypoDOffset: 0
OS2TypoLinegap: 0
OS2WinAscent: 1000
OS2WinAOffset: 0
OS2WinDescent: 220
OS2WinDOffset: 0
HheadAscent: 1000
HheadAOffset: 0
HheadDescent: -220
HheadDOffset: 0
OS2SubXSize: 650
OS2SubYSize: 600
OS2SubXOff: 0
OS2SubYOff: 75
OS2SupXSize: 650
OS2SupYSize: 600
OS2SupXOff: 0
OS2SupYOff: 350
OS2StrikeYSize: 100
OS2StrikeYPos: 315
OS2CapHeight: 698
OS2XHeight: 525
OS2Vendor: 'UKWN'
OS2CodePages: 2000019f.00000000
OS2UnicodeRanges: a10002ff.5000a07b.00000000.00000000
Lookup: 258 0 0 "'kern' Kerning Horizontal lookup 0" { "'kern' Kerning Horizontal lookup 0 per glyph data 0"  "'kern' Kerning Horizontal lookup 0 kerning class 1"  "'kern' Kerning Horizontal lookup 0 kerning class 2"  "'kern' Kerning Horizontal lookup 0 kerning class 3"  } ['kern' ('DFLT' <'dflt' > 'cyrl' <'dflt' > 'grek' <'dflt' > 'latn' <'dflt' > ) ]
DEI: 91125

StartChar: .notdef
Encoding: 65536 -1 0
Width: 472
Flags: W
LayerCount: 2
Fore
SplineSet
440 0 m 1,0,-1
 32 0 l 1,1,-1
 32 780 l 1,2,-1
 440 780 l 1,3,-1
 440 0 l 1,0,-1
348 92 m 1,4,-1
 348 688 l 1,5,-1
 124 688 l 1,6,-1
 124 92 l 1,7,-1
 348 92 l 1,4,-1
EndSplineSet
EndChar

StartChar: exclam
Encoding: 33 33 2
Width: 313
GlyphClass: 1
Flags: W
LayerCount: 2
Fore
SplineSet
187 213 m 1,0,-1
 128 213 l 1,1,-1
 85 502 l 1,2,-1
 85 698 l 1,3,-1
 228 698 l 1,4,-1
 228 502 l 1,5,-1
 187 213 l 1,0,-1
156 -12 m 0,6,7
 73 -12 73 -12 73 61 c 2,8,-1
 73 82 l 2,9,10
 73 155 73 155 156 155 c 0,11,12
 202 155 202 155 221 133.5 c 128,-1,13
 240 112 240 112 240 82 c 2,14,-1
 240 61 l 2,15,16
 240 -12 240 -12 156 -12 c 0,6,7
EndSplineSet
EndChar

StartChar: quotedbl
Encoding: 34 34 3
Width: 479
GlyphClass: 7
Flags: W
LayerCount: 2
Fore
SplineSet
192 423 m 1,0,-1
 71 423 l 1,1,-1
 71 740 l 1,2,-1
 192 740 l 1,3,-1
 192 423 l 1,0,-1
408 423 m 1,4,-1
 287 423 l 1,5,-1
 287 740 l 1,6,-1
 408 740 l 1,7,-1
 408 423 l 1,4,-1
EndSplineSet
EndChar

StartChar: numbersign
Encoding: 35 35 4
Width: 647
GlyphClass: 5
Flags: W
LayerCount: 2
Fore
SplineSet
431 0 m 1,0,-1
 343 0 l 1,1,-1
 374 179 l 1,2,-1
 215 179 l 1,3,-1
 184 0 l 1,4,-1
 96 0 l 1,5,-1
 127 179 l 1,6,-1
 21 179 l 1,7,-1
 21 263 l 1,8,-1
 142 263 l 1,9,-1
 171 435 l 1,10,-1
 65 435 l 1,11,-1
 65 519 l 1,12,-1
 186 519 l 1,13,-1
 217 698 l 1,14,-1
 304 698 l 1,15,-1
 273 519 l 1,16,-1
 432 519 l 1,17,-1
 463 698 l 1,18,-1
 552 698 l 1,19,-1
 521 519 l 1,20,-1
 627 519 l 1,21,-1
 627 435 l 1,22,-1
 506 435 l 1,23,-1
 477 263 l 1,24,-1
 583 263 l 1,25,-1
 583 179 l 1,26,-1
 462 179 l 1,27,-1
 431 0 l 1,0,-1
388 263 m 1,28,-1
 418 435 l 1,29,-1
 259 435 l 1,30,-1
 229 263 l 1,31,-1
 388 263 l 1,28,-1
EndSplineSet
EndChar

StartChar: dollar
Encoding: 36 36 5
Width: 600
Flags: W
LayerCount: 2
Fore
SplineSet
358 -82 m 1,0,-1
 254 -82 l 1,1,-1
 254 8 l 1,2,3
 116 22 116 22 36 116 c 1,4,-1
 120 192 l 1,5,6
 179 125 179 125 265 112 c 1,7,-1
 265 307 l 1,8,9
 157 330 157 330 106.5 378 c 128,-1,10
 56 426 56 426 56 500 c 0,11,12
 56 662 56 662 254 688 c 1,13,-1
 254 780 l 1,14,-1
 358 780 l 1,15,-1
 358 688 l 1,16,17
 478 676 478 676 545 594 c 1,18,-1
 459 519 l 1,19,20
 423 568 423 568 348 584 c 1,21,-1
 348 405 l 1,22,23
 453 383 453 383 504 338 c 128,-1,24
 555 293 555 293 555 214 c 0,25,26
 555 140 555 140 508 85 c 128,-1,27
 461 30 461 30 358 11 c 1,28,-1
 358 -82 l 1,0,-1
348 114 m 1,29,30
 428 134 428 134 428 204 c 0,31,32
 428 264 428 264 348 289 c 1,33,-1
 348 114 l 1,29,30
265 424 m 1,34,-1
 265 586 l 1,35,36
 183 570 183 570 183 505 c 0,37,38
 183 442 183 442 265 424 c 1,34,-1
EndSplineSet
EndChar

StartChar: percent
Encoding: 37 37 6
Width: 965
Flags: W
LayerCount: 2
Fore
SplineSet
301 0 m 1,0,-1
 180 0 l 1,1,-1
 664 698 l 1,2,-1
 785 698 l 1,3,-1
 301 0 l 1,0,-1
229 314 m 0,4,5
 53 316 53 316 53 512 c 0,6,7
 55 710 55 710 229 710 c 0,8,9
 404 709 404 709 404 512 c 0,10,11
 402 314 402 314 229 314 c 0,4,5
231 394 m 0,12,13
 287 394 287 394 287 485 c 2,14,-1
 287 541 l 2,15,16
 287 630 287 630 228 630 c 0,17,18
 170 630 170 630 170 542 c 2,19,-1
 170 485 l 2,20,21
 170 394 170 394 231 394 c 0,12,13
736 -12 m 0,22,23
 561 -10 561 -10 561 186 c 0,24,25
 563 384 563 384 736 384 c 0,26,27
 912 382 912 382 912 186 c 0,28,29
 909 -12 909 -12 736 -12 c 0,22,23
739 68 m 2,30,31
 795 68 795 68 795 159 c 2,32,-1
 795 215 l 2,33,34
 795 304 795 304 736 304 c 0,35,36
 678 304 678 304 678 216 c 2,37,-1
 678 159 l 2,38,39
 678 68 678 68 736 68 c 2,40,-1
 739 68 l 2,30,31
EndSplineSet
EndChar

StartChar: ampersand
Encoding: 38 38 7
Width: 716
GlyphClass: 3
Flags: W
LayerCount: 2
Fore
SplineSet
287 -12 m 0,0,1
 173 -12 173 -12 113.5 43.5 c 128,-1,2
 54 99 54 99 54 183 c 0,3,4
 54 251 54 251 93.5 297 c 128,-1,5
 133 343 133 343 195 377 c 1,6,7
 117 456 117 456 117 543 c 0,8,9
 117 610 117 610 170.5 660 c 128,-1,10
 224 710 224 710 320 710 c 0,11,12
 368 710 368 710 413 694 c 128,-1,13
 458 678 458 678 486.5 643 c 128,-1,14
 515 608 515 608 515 552 c 0,15,16
 515 488 515 488 475 444 c 128,-1,17
 435 400 435 400 372 364 c 1,18,-1
 489 237 l 1,19,20
 516 307 516 307 519 382 c 1,21,-1
 680 382 l 1,22,-1
 680 269 l 1,23,-1
 616 269 l 1,24,25
 600 200 600 200 570 150 c 1,26,-1
 709 0 l 1,27,-1
 544 0 l 1,28,-1
 488 62 l 1,29,30
 406 -12 406 -12 287 -12 c 0,0,1
305 436 m 1,31,-1
 312 441 l 1,32,33
 352 463 352 463 369 486 c 128,-1,34
 386 509 386 509 386 542 c 0,35,36
 386 578 386 578 365 592 c 128,-1,37
 344 606 344 606 317 606 c 0,38,39
 288 606 288 606 267 588.5 c 128,-1,40
 246 571 246 571 246 539 c 0,41,42
 246 515 246 515 259 492.5 c 128,-1,43
 272 470 272 470 305 436 c 1,31,-1
306 101 m 0,44,45
 369 101 369 101 417 137 c 1,46,-1
 262 304 l 1,47,48
 192 267 192 267 192 206 c 0,49,50
 192 101 192 101 306 101 c 0,44,45
EndSplineSet
EndChar

StartChar: quotesingle
Encoding: 39 39 8
Width: 263
Flags: W
LayerCount: 2
Fore
SplineSet
192 423 m 1,0,-1
 71 423 l 1,1,-1
 71 740 l 1,2,-1
 192 740 l 1,3,-1
 192 423 l 1,0,-1
EndSplineSet
EndChar

StartChar: parenleft
Encoding: 40 40 9
Width: 337
Flags: W
LayerCount: 2
Fore
SplineSet
349 -138 m 1,0,-1
 221 -138 l 1,1,2
 144 -70 144 -70 95 47 c 128,-1,3
 46 164 46 164 46 312 c 0,4,5
 46 462 46 462 96 576.5 c 128,-1,6
 146 691 146 691 222 760 c 1,7,-1
 349 760 l 1,8,9
 173 590 173 590 173 348 c 2,10,-1
 173 274 l 2,11,12
 173 137 173 137 222 34 c 128,-1,13
 271 -69 271 -69 349 -138 c 1,0,-1
EndSplineSet
EndChar

StartChar: parenright
Encoding: 41 41 10
Width: 337
GlyphClass: 3
Flags: W
LayerCount: 2
Fore
SplineSet
116 -138 m 1,0,-1
 -11 -138 l 1,1,2
 67 -68 67 -68 115.5 35.5 c 128,-1,3
 164 139 164 139 164 274 c 2,4,-1
 164 348 l 2,5,6
 164 480 164 480 116.5 583.5 c 128,-1,7
 69 687 69 687 -11 760 c 1,8,-1
 116 760 l 1,9,10
 192 690 192 690 242 575 c 128,-1,11
 292 460 292 460 292 312 c 0,12,13
 292 165 292 165 241.5 47 c 128,-1,14
 191 -71 191 -71 116 -138 c 1,0,-1
EndSplineSet
EndChar

StartChar: asterisk
Encoding: 42 42 11
Width: 572
Flags: W
LayerCount: 2
Fore
SplineSet
389 267 m 1,0,-1
 285 422 l 1,1,-1
 182 267 l 1,2,-1
 88 331 l 1,3,-1
 208 477 l 1,4,-1
 33 529 l 1,5,-1
 68 634 l 1,6,-1
 235 565 l 1,7,-1
 227 747 l 1,8,-1
 345 747 l 1,9,-1
 336 565 l 1,10,-1
 503 634 l 1,11,-1
 539 529 l 1,12,-1
 364 477 l 1,13,-1
 483 331 l 1,14,-1
 389 267 l 1,0,-1
EndSplineSet
EndChar

StartChar: plus
Encoding: 43 43 12
Width: 600
Flags: W
LayerCount: 2
Fore
SplineSet
359 63 m 1,0,-1
 241 63 l 1,1,-1
 241 252 l 1,2,-1
 67 252 l 1,3,-1
 67 360 l 1,4,-1
 241 360 l 1,5,-1
 241 549 l 1,6,-1
 359 549 l 1,7,-1
 359 360 l 1,8,-1
 533 360 l 1,9,-1
 533 252 l 1,10,-1
 359 252 l 1,11,-1
 359 63 l 1,0,-1
EndSplineSet
EndChar

StartChar: comma
Encoding: 44 44 13
Width: 303
GlyphClass: 3
Flags: W
LayerCount: 2
Fore
SplineSet
132 -144 m 1,0,-1
 38 -144 l 1,1,2
 108 -81 108 -81 132 -9 c 1,3,4
 70 3 70 3 70 64 c 2,5,-1
 70 83 l 2,6,7
 70 114 70 114 88.5 136.5 c 128,-1,8
 107 159 107 159 153 159 c 256,9,10
 199 159 199 159 217.5 136.5 c 128,-1,11
 236 114 236 114 236 83 c 2,12,-1
 236 64 l 2,13,14
 236 -51 236 -51 132 -144 c 1,0,-1
EndSplineSet
EndChar

StartChar: hyphen
Encoding: 45 45 14
Width: 402
Flags: W
LayerCount: 2
Fore
SplineSet
346 238 m 1,0,-1
 56 238 l 1,1,-1
 56 371 l 1,2,-1
 346 371 l 1,3,-1
 346 238 l 1,0,-1
EndSplineSet
EndChar

StartChar: period
Encoding: 46 46 15
Width: 303
Flags: W
LayerCount: 2
Fore
SplineSet
152 -11 m 256,0,1
 106 -11 106 -11 87.5 11.5 c 128,-1,2
 69 34 69 34 69 65 c 2,3,-1
 69 83 l 2,4,5
 69 113 69 113 87.5 136 c 128,-1,6
 106 159 106 159 152 159 c 0,7,8
 197 159 197 159 216 136.5 c 128,-1,9
 235 114 235 114 235 83 c 2,10,-1
 235 65 l 2,11,12
 235 34 235 34 216.5 11.5 c 128,-1,13
 198 -11 198 -11 152 -11 c 256,0,1
EndSplineSet
EndChar

StartChar: slash
Encoding: 47 47 16
Width: 446
GlyphClass: 3
Flags: W
LayerCount: 2
Fore
SplineSet
117 -151 m 1,0,-1
 4 -151 l 1,1,-1
 295 740 l 1,2,-1
 408 740 l 1,3,-1
 117 -151 l 1,0,-1
EndSplineSet
EndChar

StartChar: zero
Encoding: 48 48 17
Width: 600
GlyphClass: 5
Flags: W
LayerCount: 2
Fore
SplineSet
300 -12 m 256,0,1
 207 -12 207 -12 148.5 31.5 c 128,-1,2
 90 75 90 75 63 156 c 128,-1,3
 36 237 36 237 36 349 c 0,4,5
 36 459 36 459 63.5 540 c 128,-1,6
 91 621 91 621 149.5 665.5 c 128,-1,7
 208 710 208 710 300 710 c 0,8,9
 394 710 394 710 452 664.5 c 128,-1,10
 510 619 510 619 537 537.5 c 128,-1,11
 564 456 564 456 564 349 c 0,12,13
 564 240 564 240 536.5 159 c 128,-1,14
 509 78 509 78 451 33 c 128,-1,15
 393 -12 393 -12 300 -12 c 256,0,1
300 105 m 0,16,17
 368 105 368 105 391.5 156.5 c 128,-1,18
 415 208 415 208 415 302 c 2,19,-1
 415 413 l 2,20,21
 415 507 415 507 386.5 550 c 128,-1,22
 358 593 358 593 300 593 c 0,23,24
 231 593 231 593 208 540.5 c 128,-1,25
 185 488 185 488 185 396 c 2,26,-1
 185 285 l 2,27,28
 185 191 185 191 213.5 148 c 128,-1,29
 242 105 242 105 300 105 c 0,16,17
EndSplineSet
EndChar

StartChar: one
Encoding: 49 49 18
Width: 600
Flags: W
LayerCount: 2
Fore
SplineSet
416 0 m 1,0,-1
 280 0 l 1,1,-1
 280 573 l 1,2,-1
 130 489 l 1,3,-1
 130 618 l 1,4,-1
 272 698 l 1,5,-1
 416 698 l 1,6,-1
 416 0 l 1,0,-1
EndSplineSet
EndChar

StartChar: two
Encoding: 50 50 19
Width: 600
Flags: W
LayerCount: 2
Fore
SplineSet
548 0 m 1,0,-1
 60 0 l 1,1,-1
 60 127 l 1,2,-1
 278 316 l 1,3,4
 385 398 385 398 385 492 c 0,5,6
 385 545 385 545 356 568 c 128,-1,7
 327 591 327 591 286 591 c 0,8,9
 190 591 190 591 167 489 c 1,10,-1
 47 535 l 1,11,12
 78 626 78 626 144.5 668 c 128,-1,13
 211 710 211 710 298 710 c 0,14,15
 376 710 376 710 428 680.5 c 128,-1,16
 480 651 480 651 505.5 603.5 c 128,-1,17
 531 556 531 556 531 501 c 0,18,19
 531 439 531 439 504 391 c 0,20,21
 451 299 451 299 245 144 c 1,22,-1
 210 116 l 1,23,-1
 548 116 l 1,24,-1
 548 0 l 1,0,-1
EndSplineSet
EndChar

StartChar: three
Encoding: 51 51 20
Width: 600
Flags: W
LayerCount: 2
Fore
SplineSet
273 -12 m 0,0,1
 179 -12 179 -12 116.5 24 c 128,-1,2
 54 60 54 60 21 119 c 1,3,-1
 123 198 l 1,4,5
 169 101 169 101 273 101 c 0,6,7
 386 101 386 101 389 209 c 0,8,9
 389 303 389 303 262 303 c 2,10,-1
 195 303 l 1,11,-1
 195 418 l 1,12,-1
 262 418 l 2,13,14
 376 418 376 418 376 501 c 0,15,16
 376 544 376 544 352.5 570.5 c 128,-1,17
 329 597 329 597 276 597 c 0,18,19
 190 597 190 597 133 513 c 1,20,-1
 46 594 l 1,21,22
 82 646 82 646 136 678 c 128,-1,23
 190 710 190 710 280 710 c 0,24,25
 389 710 389 710 455 660 c 128,-1,26
 521 610 521 610 521 527 c 0,27,28
 521 458 521 458 482 418.5 c 128,-1,29
 443 379 443 379 387 369 c 1,30,-1
 387 363 l 1,31,32
 450 351 450 351 491.5 309 c 128,-1,33
 533 267 533 267 533 193 c 0,34,35
 533 127 533 127 498.5 81 c 128,-1,36
 464 35 464 35 405.5 11.5 c 128,-1,37
 347 -12 347 -12 273 -12 c 0,0,1
EndSplineSet
EndChar

StartChar: four
Encoding: 52 52 21
Width: 600
GlyphClass: 2
Flags: W
LayerCount: 2
Fore
SplineSet
475 0 m 1,0,-1
 344 0 l 1,1,-1
 344 135 l 1,2,-1
 32 135 l 1,3,-1
 32 252 l 1,4,-1
 307 698 l 1,5,-1
 475 698 l 1,6,-1
 475 242 l 1,7,-1
 566 242 l 1,8,-1
 566 135 l 1,9,-1
 475 135 l 1,10,-1
 475 0 l 1,0,-1
344 242 m 1,11,-1
 344 560 l 1,12,-1
 335 560 l 1,13,-1
 144 242 l 1,14,-1
 344 242 l 1,11,-1
EndSplineSet
EndChar

StartChar: five
Encoding: 53 53 22
Width: 600
Flags: W
LayerCount: 2
Fore
SplineSet
295 -12 m 0,0,1
 126 -12 126 -12 52 119 c 1,2,-1
 152 198 l 1,3,4
 175 152 175 152 209.5 126.5 c 128,-1,5
 244 101 244 101 296 101 c 0,6,7
 359 101 359 101 385.5 135.5 c 128,-1,8
 412 170 412 170 412 219 c 0,9,10
 412 340 412 340 299 340 c 0,11,12
 226 340 226 340 188 289 c 1,13,-1
 75 305 l 1,14,-1
 101 698 l 1,15,-1
 517 698 l 1,16,-1
 517 578 l 1,17,-1
 203 578 l 1,18,-1
 187 348 l 1,19,-1
 194 348 l 1,20,21
 215 401 215 401 250.5 427 c 128,-1,22
 286 453 286 453 343 453 c 0,23,24
 442 453 442 453 499.5 388 c 128,-1,25
 557 323 557 323 557 232 c 0,26,27
 557 151 557 151 522.5 97 c 128,-1,28
 488 43 488 43 428.5 15.5 c 128,-1,29
 369 -12 369 -12 295 -12 c 0,0,1
EndSplineSet
EndChar

StartChar: six
Encoding: 54 54 23
Width: 600
GlyphClass: 2
Flags: W
LayerCount: 2
Fore
SplineSet
303 -12 m 0,0,1
 178 -12 178 -12 112.5 65.5 c 128,-1,2
 47 143 47 143 47 263 c 0,3,4
 47 357 47 357 83.5 440.5 c 128,-1,5
 120 524 120 524 177 590.5 c 128,-1,6
 234 657 234 657 297 698 c 1,7,-1
 485 698 l 1,8,9
 223 523 223 523 190 346 c 1,10,-1
 199 343 l 1,11,12
 245 447 245 447 355 447 c 0,13,14
 440 447 440 447 500 388.5 c 128,-1,15
 560 330 560 330 560 230 c 0,16,17
 560 153 560 153 525 99 c 128,-1,18
 490 45 490 45 431.5 16.5 c 128,-1,19
 373 -12 373 -12 303 -12 c 0,0,1
303 97 m 0,20,21
 417 101 417 101 417 210 c 0,22,23
 417 286 417 286 387 313 c 128,-1,24
 357 340 357 340 303 340 c 0,25,26
 190 337 190 337 190 227 c 0,27,28
 190 189 190 189 196 165.5 c 128,-1,29
 202 142 202 142 220 126 c 0,30,31
 249 97 249 97 303 97 c 0,20,21
EndSplineSet
EndChar

StartChar: seven
Encoding: 55 55 24
Width: 600
Flags: W
LayerCount: 2
Fore
SplineSet
313 0 m 1,0,-1
 168 0 l 1,1,-1
 408 586 l 1,2,-1
 58 586 l 1,3,-1
 58 698 l 1,4,-1
 545 698 l 1,5,-1
 545 579 l 1,6,-1
 313 0 l 1,0,-1
EndSplineSet
EndChar

StartChar: eight
Encoding: 56 56 25
Width: 600
Flags: W
LayerCount: 2
Fore
SplineSet
300 -12 m 0,0,1
 178 -12 178 -12 110 44.5 c 128,-1,2
 42 101 42 101 42 191 c 0,3,4
 42 325 42 325 180 360 c 1,5,-1
 180 368 l 1,6,7
 128 386 128 386 95.5 425 c 128,-1,8
 63 464 63 464 63 527 c 0,9,10
 63 611 63 611 127.5 660.5 c 128,-1,11
 192 710 192 710 300 710 c 0,12,13
 414 710 414 710 475 657.5 c 128,-1,14
 536 605 536 605 536 527 c 0,15,16
 536 463 536 463 503 424 c 128,-1,17
 470 385 470 385 420 368 c 1,18,-1
 420 360 l 1,19,20
 482 344 482 344 519.5 302.5 c 128,-1,21
 557 261 557 261 557 191 c 0,22,23
 557 103 557 103 490 45.5 c 128,-1,24
 423 -12 423 -12 300 -12 c 0,0,1
300 97 m 0,25,26
 410 101 410 101 410 191 c 2,27,-1
 410 211 l 2,28,29
 408 305 408 305 300 305 c 0,30,31
 189 303 189 303 189 211 c 0,32,33
 189 177 189 177 194 156.5 c 128,-1,34
 199 136 199 136 218 121 c 0,35,36
 246 97 246 97 300 97 c 0,25,26
300 409 m 0,37,38
 403 412 403 412 403 497 c 0,39,40
 403 527 403 527 398.5 546 c 128,-1,41
 394 565 394 565 376 579 c 0,42,43
 349 601 349 601 300 601 c 0,44,45
 246 601 246 601 221 576 c 128,-1,46
 196 551 196 551 196 513 c 2,47,-1
 196 501 l 2,48,49
 196 409 196 409 300 409 c 0,37,38
EndSplineSet
EndChar

StartChar: nine
Encoding: 57 57 26
Width: 600
GlyphClass: 1
Flags: W
LayerCount: 2
Fore
SplineSet
303 0 m 1,0,-1
 115 0 l 1,1,2
 376 175 376 175 410 352 c 1,3,-1
 401 355 l 1,4,5
 359 251 359 251 245 251 c 0,6,7
 189 251 189 251 142.5 276 c 128,-1,8
 96 301 96 301 68 349.5 c 128,-1,9
 40 398 40 398 40 468 c 0,10,11
 40 580 40 580 112.5 645 c 128,-1,12
 185 710 185 710 297 710 c 0,13,14
 382 710 382 710 438.5 674.5 c 128,-1,15
 495 639 495 639 524 576.5 c 128,-1,16
 553 514 553 514 553 435 c 0,17,18
 553 338 553 338 514.5 253 c 128,-1,19
 476 168 476 168 419.5 103 c 128,-1,20
 363 38 363 38 303 0 c 1,0,-1
297 358 m 0,21,22
 410 362 410 362 410 471 c 0,23,24
 410 547 410 547 380 574 c 128,-1,25
 350 601 350 601 297 601 c 0,26,27
 183 598 183 598 183 488 c 0,28,29
 183 450 183 450 189 426.5 c 128,-1,30
 195 403 195 403 213 387 c 0,31,32
 243 358 243 358 297 358 c 0,21,22
EndSplineSet
EndChar

StartChar: colon
Encoding: 58 58 27
Width: 323
Flags: W
LayerCount: 2
Fore
SplineSet
162 -11 m 256,0,1
 116 -11 116 -11 97.5 11.5 c 128,-1,2
 79 34 79 34 79 65 c 2,3,-1
 79 83 l 2,4,5
 79 113 79 113 97.5 136 c 128,-1,6
 116 159 116 159 162 159 c 0,7,8
 207 159 207 159 226 136.5 c 128,-1,9
 245 114 245 114 245 83 c 2,10,-1
 245 65 l 2,11,12
 245 34 245 34 226.5 11.5 c 128,-1,13
 208 -11 208 -11 162 -11 c 256,0,1
162 362 m 256,14,15
 116 362 116 362 97.5 384.5 c 128,-1,16
 79 407 79 407 79 438 c 2,17,-1
 79 456 l 2,18,19
 79 486 79 486 97.5 509 c 128,-1,20
 116 532 116 532 162 532 c 0,21,22
 207 532 207 532 226 510 c 128,-1,23
 245 488 245 488 245 456 c 2,24,-1
 245 438 l 2,25,26
 245 407 245 407 226.5 384.5 c 128,-1,27
 208 362 208 362 162 362 c 256,14,15
EndSplineSet
EndChar

StartChar: semicolon
Encoding: 59 59 28
Width: 323
GlyphClass: 2
Flags: W
LayerCount: 2
Fore
SplineSet
140 -144 m 1,0,-1
 47 -144 l 1,1,2
 116 -83 116 -83 140 -9 c 1,3,4
 78 6 78 6 78 64 c 2,5,-1
 78 83 l 2,6,7
 78 114 78 114 96.5 136.5 c 128,-1,8
 115 159 115 159 161 159 c 256,9,10
 207 159 207 159 225.5 136.5 c 128,-1,11
 244 114 244 114 244 83 c 2,12,-1
 244 64 l 2,13,14
 244 -51 244 -51 140 -144 c 1,0,-1
161 362 m 256,15,16
 115 362 115 362 96.5 384.5 c 128,-1,17
 78 407 78 407 78 438 c 2,18,-1
 78 456 l 2,19,20
 78 486 78 486 96.5 509 c 128,-1,21
 115 532 115 532 161 532 c 0,22,23
 206 532 206 532 225 510 c 128,-1,24
 244 488 244 488 244 456 c 2,25,-1
 244 438 l 2,26,27
 244 407 244 407 225.5 384.5 c 128,-1,28
 207 362 207 362 161 362 c 256,15,16
EndSplineSet
EndChar

StartChar: less
Encoding: 60 60 29
Width: 600
Flags: W
LayerCount: 2
Fore
SplineSet
499 -4 m 1,0,-1
 101 254 l 1,1,-1
 101 339 l 1,2,-1
 499 597 l 1,3,-1
 499 460 l 1,4,-1
 241 300 l 1,5,-1
 241 293 l 1,6,-1
 499 133 l 1,7,-1
 499 -4 l 1,0,-1
EndSplineSet
EndChar

StartChar: equal
Encoding: 61 61 30
Width: 600
GlyphClass: 2
Flags: W
LayerCount: 2
Fore
SplineSet
533 364 m 1,0,-1
 67 364 l 1,1,-1
 67 472 l 1,2,-1
 533 472 l 1,3,-1
 533 364 l 1,0,-1
533 138 m 1,4,-1
 67 138 l 1,5,-1
 67 246 l 1,6,-1
 533 246 l 1,7,-1
 533 138 l 1,4,-1
EndSplineSet
EndChar

StartChar: greater
Encoding: 62 62 31
Width: 600
GlyphClass: 5
Flags: W
LayerCount: 2
Fore
SplineSet
101 -4 m 1,0,-1
 101 133 l 1,1,-1
 359 293 l 1,2,-1
 359 300 l 1,3,-1
 101 460 l 1,4,-1
 101 597 l 1,5,-1
 499 340 l 1,6,-1
 499 255 l 1,7,-1
 101 -4 l 1,0,-1
EndSplineSet
EndChar

StartChar: question
Encoding: 63 63 32
Width: 496
GlyphClass: 3
Flags: W
LayerCount: 2
Fore
SplineSet
290 228 m 1,0,-1
 162 228 l 1,1,-1
 162 383 l 1,2,3
 323 385 323 385 323 496 c 0,4,5
 323 523 323 523 318.5 540.5 c 128,-1,6
 314 558 314 558 299 572 c 0,7,8
 275 594 275 594 235 594 c 0,9,10
 187 594 187 594 161.5 567.5 c 128,-1,11
 136 541 136 541 129 503 c 1,12,-1
 16 550 l 1,13,14
 33 618 33 618 88.5 664 c 128,-1,15
 144 710 144 710 240 710 c 256,16,17
 336 710 336 710 401.5 656.5 c 128,-1,18
 467 603 467 603 467 507 c 0,19,20
 467 449 467 449 442 407.5 c 128,-1,21
 417 366 417 366 377 340.5 c 128,-1,22
 337 315 337 315 290 307 c 1,23,-1
 290 228 l 1,0,-1
228 -12 m 0,24,25
 144 -12 144 -12 144 61 c 2,26,-1
 144 82 l 2,27,28
 144 155 144 155 228 155 c 0,29,30
 274 155 274 155 292.5 134 c 128,-1,31
 311 113 311 113 311 82 c 2,32,-1
 311 61 l 2,33,34
 311 -12 311 -12 228 -12 c 0,24,25
EndSplineSet
EndChar

StartChar: at
Encoding: 64 64 33
Width: 901
Flags: W
LayerCount: 2
Fore
SplineSet
673 -121 m 1,0,-1
 459 -121 l 2,1,2
 326 -121 326 -121 238 -65 c 128,-1,3
 150 -9 150 -9 106 84.5 c 128,-1,4
 62 178 62 178 62 290 c 0,5,6
 62 421 62 421 113.5 515 c 128,-1,7
 165 609 165 609 255 659 c 128,-1,8
 345 709 345 709 461 709 c 0,9,10
 584 709 584 709 669 660 c 128,-1,11
 754 611 754 611 798 526 c 128,-1,12
 842 441 842 441 842 333 c 0,13,14
 842 220 842 220 796 149.5 c 128,-1,15
 750 79 750 79 658 79 c 0,16,17
 598 79 598 79 569 105.5 c 128,-1,18
 540 132 540 132 537 172 c 1,19,-1
 532 172 l 1,20,21
 508 81 508 81 416 81 c 0,22,23
 350 81 350 81 304 131.5 c 128,-1,24
 258 182 258 182 258 290 c 0,25,26
 258 394 258 394 303.5 447 c 128,-1,27
 349 500 349 500 416 500 c 0,28,29
 498 500 498 500 521 422 c 1,30,-1
 526 422 l 1,31,-1
 526 491 l 1,32,-1
 629 491 l 1,33,-1
 629 215 l 2,34,35
 629 162 629 162 675 162 c 0,36,37
 711 162 711 162 732.5 199.5 c 128,-1,38
 754 237 754 237 754 318 c 0,39,40
 754 368 754 368 749.5 403 c 128,-1,41
 745 438 745 438 729 473 c 0,42,43
 686 555 686 555 613.5 591 c 128,-1,44
 541 627 541 627 461 627 c 0,45,46
 365 627 365 627 295.5 585.5 c 128,-1,47
 226 544 226 544 188 473 c 128,-1,48
 150 402 150 402 150 312 c 2,49,-1
 150 270 l 2,50,51
 150 133 150 133 235 47.5 c 128,-1,52
 320 -38 320 -38 459 -38 c 2,53,-1
 673 -38 l 1,54,-1
 673 -121 l 1,0,-1
452 167 m 0,55,56
 483 167 483 167 499 181.5 c 128,-1,57
 515 196 515 196 520.5 216.5 c 128,-1,58
 526 237 526 237 526 255 c 2,59,-1
 526 353 l 2,60,61
 526 382 526 382 503 398 c 128,-1,62
 480 414 480 414 452 414 c 0,63,64
 368 414 368 414 368 317 c 2,65,-1
 368 255 l 2,66,67
 368 219 368 219 388 193 c 128,-1,68
 408 167 408 167 452 167 c 0,55,56
EndSplineSet
EndChar

StartChar: A
Encoding: 65 65 34
Width: 677
GlyphClass: 5
Flags: W
LayerCount: 2
Fore
SplineSet
657 0 m 1,0,-1
 512 0 l 1,1,-1
 458 174 l 1,2,-1
 215 174 l 1,3,-1
 162 0 l 1,4,-1
 21 0 l 1,5,-1
 253 698 l 1,6,-1
 426 698 l 1,7,-1
 657 0 l 1,0,-1
424 292 m 1,8,-1
 338 571 l 1,9,-1
 333 571 l 1,10,-1
 248 292 l 1,11,-1
 424 292 l 1,8,-1
EndSplineSet
EndChar

StartChar: B
Encoding: 66 66 35
Width: 664
GlyphClass: 7
Flags: W
LayerCount: 2
Fore
SplineSet
440 0 m 2,0,-1
 80 0 l 1,1,-1
 80 698 l 1,2,-1
 409 698 l 2,3,4
 472 698 472 698 513 674 c 128,-1,5
 554 650 554 650 574 609 c 128,-1,6
 594 568 594 568 594 519 c 0,7,8
 594 468 594 468 575.5 434.5 c 128,-1,9
 557 401 557 401 528 385 c 128,-1,10
 499 369 499 369 467 369 c 1,11,-1
 467 363 l 1,12,13
 540 363 540 363 580 314 c 128,-1,14
 620 265 620 265 620 200 c 0,15,16
 620 117 620 117 570 58.5 c 128,-1,17
 520 0 520 0 440 0 c 2,0,-1
400 118 m 2,18,19
 475 121 475 121 475 189 c 2,20,-1
 475 223 l 2,21,22
 472 268 472 268 444 281.5 c 128,-1,23
 416 295 416 295 377 295 c 2,24,-1
 219 295 l 1,25,-1
 219 118 l 1,26,-1
 400 118 l 2,18,19
378 409 m 1,27,28
 450 413 450 413 450 479 c 2,29,-1
 450 510 l 1,30,31
 446 552 446 552 422 566 c 128,-1,32
 398 580 398 580 353 580 c 2,33,-1
 219 580 l 1,34,-1
 219 409 l 1,35,-1
 378 409 l 1,27,28
EndSplineSet
EndChar

StartChar: C
Encoding: 67 67 36
Width: 645
Flags: W
LayerCount: 2
Fore
SplineSet
355 -12 m 0,0,1
 265 -12 265 -12 196.5 27 c 128,-1,2
 128 66 128 66 90 145.5 c 128,-1,3
 52 225 52 225 52 346 c 0,4,5
 52 470 52 470 91 550.5 c 128,-1,6
 130 631 130 631 198.5 670.5 c 128,-1,7
 267 710 267 710 355 710 c 0,8,9
 450 710 450 710 512.5 669.5 c 128,-1,10
 575 629 575 629 612 548 c 1,11,-1
 493 485 l 1,12,13
 465 586 465 586 355 586 c 0,14,15
 288 586 288 586 243.5 542.5 c 128,-1,16
 199 499 199 499 199 404 c 2,17,-1
 199 294 l 2,18,19
 199 197 199 197 244 154.5 c 128,-1,20
 289 112 289 112 355 112 c 0,21,22
 466 112 466 112 502 220 c 1,23,-1
 615 153 l 1,24,25
 537 -12 537 -12 355 -12 c 0,0,1
EndSplineSet
EndChar

StartChar: D
Encoding: 68 68 37
Width: 692
Flags: W
LayerCount: 2
Fore
SplineSet
338 0 m 2,0,-1
 80 0 l 1,1,-1
 80 698 l 1,2,-1
 338 698 l 2,3,4
 441 698 441 698 508.5 653 c 128,-1,5
 576 608 576 608 608.5 529.5 c 128,-1,6
 641 451 641 451 641 349 c 0,7,8
 641 230 641 230 601 152.5 c 128,-1,9
 561 75 561 75 492.5 37.5 c 128,-1,10
 424 0 424 0 338 0 c 2,0,-1
338 123 m 2,11,12
 493 123 493 123 493 294 c 2,13,-1
 493 404 l 2,14,15
 493 494 493 494 450 534.5 c 128,-1,16
 407 575 407 575 338 575 c 2,17,-1
 219 575 l 1,18,-1
 219 123 l 1,19,-1
 338 123 l 2,11,12
EndSplineSet
EndChar

StartChar: E
Encoding: 69 69 38
Width: 602
Flags: W
LayerCount: 2
Fore
SplineSet
546 0 m 1,0,-1
 80 0 l 1,1,-1
 80 698 l 1,2,-1
 546 698 l 1,3,-1
 546 575 l 1,4,-1
 219 575 l 1,5,-1
 219 415 l 1,6,-1
 505 415 l 1,7,-1
 505 292 l 1,8,-1
 219 292 l 1,9,-1
 219 123 l 1,10,-1
 546 123 l 1,11,-1
 546 0 l 1,0,-1
EndSplineSet
EndChar

StartChar: F
Encoding: 70 70 39
Width: 580
GlyphClass: 2
Flags: W
LayerCount: 2
Fore
SplineSet
219 0 m 1,0,-1
 80 0 l 1,1,-1
 80 698 l 1,2,-1
 534 698 l 1,3,-1
 534 575 l 1,4,-1
 219 575 l 1,5,-1
 219 415 l 1,6,-1
 491 415 l 1,7,-1
 491 292 l 1,8,-1
 219 292 l 1,9,-1
 219 0 l 1,0,-1
EndSplineSet
EndChar

StartChar: G
Encoding: 71 71 40
Width: 714
Flags: W
LayerCount: 2
Fore
SplineSet
338 -12 m 0,0,1
 244 -12 244 -12 180.5 35 c 128,-1,2
 117 82 117 82 84.5 163 c 128,-1,3
 52 244 52 244 52 347 c 0,4,5
 52 468 52 468 92.5 548.5 c 128,-1,6
 133 629 133 629 203.5 669.5 c 128,-1,7
 274 710 274 710 364 710 c 0,8,9
 551 710 551 710 630 550 c 1,10,-1
 517 484 l 1,11,12
 479 586 479 586 364 586 c 0,13,14
 317 586 317 586 279.5 567.5 c 128,-1,15
 242 549 242 549 220.5 509.5 c 128,-1,16
 199 470 199 470 199 405 c 2,17,-1
 199 293 l 2,18,19
 199 198 199 198 245 155 c 128,-1,20
 291 112 291 112 364 112 c 0,21,22
 399 112 399 112 432.5 123.5 c 128,-1,23
 466 135 466 135 488 159.5 c 128,-1,24
 510 184 510 184 510 225 c 2,25,-1
 510 266 l 1,26,-1
 376 266 l 1,27,-1
 376 383 l 1,28,-1
 643 383 l 1,29,-1
 643 0 l 1,30,-1
 525 0 l 1,31,-1
 525 109 l 1,32,-1
 520 109 l 1,33,34
 512 57 512 57 468 22.5 c 128,-1,35
 424 -12 424 -12 338 -12 c 0,0,1
EndSplineSet
EndChar

StartChar: H
Encoding: 72 72 41
Width: 721
GlyphClass: 5
Flags: W
LayerCount: 2
Fore
SplineSet
641 0 m 1,0,-1
 502 0 l 1,1,-1
 502 292 l 1,2,-1
 219 292 l 1,3,-1
 219 0 l 1,4,-1
 80 0 l 1,5,-1
 80 698 l 1,6,-1
 219 698 l 1,7,-1
 219 415 l 1,8,-1
 502 415 l 1,9,-1
 502 698 l 1,10,-1
 641 698 l 1,11,-1
 641 0 l 1,0,-1
EndSplineSet
EndChar

StartChar: I
Encoding: 73 73 42
Width: 299
Flags: W
LayerCount: 2
Fore
SplineSet
219 0 m 1,0,-1
 80 0 l 1,1,-1
 80 698 l 1,2,-1
 219 698 l 1,3,-1
 219 0 l 1,0,-1
EndSplineSet
EndChar

StartChar: J
Encoding: 74 74 43
Width: 550
GlyphClass: 5
Flags: W
LayerCount: 2
Fore
SplineSet
250 -11 m 0,0,1
 147 -11 147 -11 92.5 41.5 c 128,-1,2
 38 94 38 94 26 178 c 1,3,-1
 155 204 l 1,4,5
 171 111 171 111 248 111 c 0,6,7
 296 111 296 111 315.5 142.5 c 128,-1,8
 335 174 335 174 335 239 c 2,9,-1
 335 698 l 1,10,-1
 474 698 l 1,11,-1
 474 198 l 2,12,13
 474 128 474 128 444 81.5 c 128,-1,14
 414 35 414 35 363.5 12 c 128,-1,15
 313 -11 313 -11 250 -11 c 0,0,1
EndSplineSet
EndChar

StartChar: K
Encoding: 75 75 44
Width: 684
GlyphClass: 3
Flags: W
LayerCount: 2
Fore
SplineSet
670 0 m 1,0,-1
 506 0 l 1,1,-1
 312 311 l 1,2,-1
 219 201 l 1,3,-1
 219 0 l 1,4,-1
 80 0 l 1,5,-1
 80 698 l 1,6,-1
 219 698 l 1,7,-1
 219 359 l 1,8,-1
 224 359 l 1,9,-1
 294 453 l 2,10,11
 329 499 329 499 376 556 c 0,12,13
 456 653 456 653 491 698 c 1,14,-1
 650 698 l 1,15,-1
 410 409 l 1,16,-1
 670 0 l 1,0,-1
EndSplineSet
EndChar

StartChar: L
Encoding: 76 76 45
Width: 524
GlyphClass: 1
Flags: W
LayerCount: 2
Fore
SplineSet
491 0 m 1,0,-1
 80 0 l 1,1,-1
 80 698 l 1,2,-1
 219 698 l 1,3,-1
 219 123 l 1,4,-1
 491 123 l 1,5,-1
 491 0 l 1,0,-1
EndSplineSet
EndChar

StartChar: M
Encoding: 77 77 46
Width: 817
GlyphClass: 3
Flags: W
LayerCount: 2
Fore
SplineSet
737 0 m 1,0,-1
 606 0 l 1,1,-1
 606 483 l 1,2,-1
 602 483 l 1,3,-1
 550 378 l 1,4,-1
 408 120 l 1,5,-1
 269 377 l 1,6,-1
 215 488 l 1,7,-1
 211 488 l 1,8,-1
 211 0 l 1,9,-1
 80 0 l 1,10,-1
 80 698 l 1,11,-1
 232 698 l 1,12,-1
 408 362 l 1,13,-1
 412 362 l 1,14,-1
 587 698 l 1,15,-1
 737 698 l 1,16,-1
 737 0 l 1,0,-1
EndSplineSet
EndChar

StartChar: N
Encoding: 78 78 47
Width: 721
GlyphClass: 7
Flags: W
LayerCount: 2
Fore
SplineSet
641 0 m 1,0,-1
 488 0 l 1,1,-1
 285 349 l 1,2,-1
 214 491 l 1,3,-1
 211 491 l 1,4,-1
 211 0 l 1,5,-1
 80 0 l 1,6,-1
 80 698 l 1,7,-1
 233 698 l 1,8,-1
 436 349 l 1,9,-1
 506 207 l 1,10,-1
 509 207 l 1,11,-1
 509 698 l 1,12,-1
 641 698 l 1,13,-1
 641 0 l 1,0,-1
EndSplineSet
EndChar

StartChar: O
Encoding: 79 79 48
Width: 713
GlyphClass: 3
Flags: W
LayerCount: 2
Fore
SplineSet
357 -12 m 0,0,1
 267 -12 267 -12 198.5 28 c 128,-1,2
 130 68 130 68 91 148.5 c 128,-1,3
 52 229 52 229 52 349 c 0,4,5
 52 526 52 526 136 618 c 128,-1,6
 220 710 220 710 357 710 c 0,7,8
 460 710 460 710 527.5 664 c 128,-1,9
 595 618 595 618 628.5 536.5 c 128,-1,10
 662 455 662 455 662 349 c 0,11,12
 662 227 662 227 622.5 147 c 128,-1,13
 583 67 583 67 514 27.5 c 128,-1,14
 445 -12 445 -12 357 -12 c 0,0,1
357 112 m 0,15,16
 514 112 514 112 514 313 c 2,17,-1
 514 402 l 2,18,19
 514 498 514 498 469 542 c 128,-1,20
 424 586 424 586 357 586 c 0,21,22
 199 586 199 586 199 385 c 2,23,-1
 199 296 l 2,24,25
 199 201 199 201 244 156.5 c 128,-1,26
 289 112 289 112 357 112 c 0,15,16
EndSplineSet
EndChar

StartChar: P
Encoding: 80 80 49
Width: 646
GlyphClass: 5
Flags: W
LayerCount: 2
Fore
SplineSet
219 0 m 1,0,-1
 80 0 l 1,1,-1
 80 698 l 1,2,-1
 400 698 l 2,3,4
 468 698 468 698 514.5 668.5 c 128,-1,5
 561 639 561 639 585 589.5 c 128,-1,6
 609 540 609 540 609 479 c 0,7,8
 609 385 609 385 556 323 c 128,-1,9
 503 261 503 261 400 261 c 2,10,-1
 219 261 l 1,11,-1
 219 0 l 1,0,-1
386 382 m 2,12,13
 465 382 465 382 465 457 c 2,14,-1
 465 502 l 2,15,16
 465 534 465 534 450 550 c 128,-1,17
 435 566 435 566 410.5 571.5 c 128,-1,18
 386 577 386 577 359 577 c 2,19,-1
 219 577 l 1,20,-1
 219 382 l 1,21,-1
 386 382 l 2,12,13
EndSplineSet
EndChar

StartChar: Q
Encoding: 81 81 50
Width: 714
GlyphClass: 3
Flags: W
LayerCount: 2
Fore
SplineSet
357 112 m 0,0,1
 514 112 514 112 514 313 c 2,2,-1
 514 402 l 2,3,4
 514 498 514 498 469 542 c 128,-1,5
 424 586 424 586 357 586 c 0,6,7
 199 586 199 586 199 385 c 2,8,-1
 199 296 l 2,9,10
 199 201 199 201 244 156.5 c 128,-1,11
 289 112 289 112 357 112 c 0,0,1
640 -97 m 1,12,-1
 465 5 l 1,13,14
 416 -12 416 -12 357 -12 c 0,15,16
 267 -12 267 -12 198.5 28 c 128,-1,17
 130 68 130 68 91 148.5 c 128,-1,18
 52 229 52 229 52 349 c 0,19,20
 52 526 52 526 136 618 c 128,-1,21
 220 710 220 710 357 710 c 0,22,23
 460 710 460 710 527.5 664 c 128,-1,24
 595 618 595 618 628.5 536.5 c 128,-1,25
 662 455 662 455 662 349 c 0,26,27
 662 175 662 175 579 82 c 1,28,-1
 702 10 l 1,29,-1
 640 -97 l 1,12,-1
EndSplineSet
EndChar

StartChar: R
Encoding: 82 82 51
Width: 668
GlyphClass: 5
Flags: W
LayerCount: 2
Fore
SplineSet
621 0 m 1,0,-1
 466 0 l 1,1,-1
 338 265 l 1,2,-1
 219 265 l 1,3,-1
 219 0 l 1,4,-1
 80 0 l 1,5,-1
 80 698 l 1,6,-1
 401 698 l 2,7,8
 500 698 500 698 554.5 636 c 128,-1,9
 609 574 609 574 609 479 c 0,10,11
 609 329 609 329 479 281 c 1,12,-1
 621 0 l 1,0,-1
386 382 m 2,13,14
 465 382 465 382 465 457 c 2,15,-1
 465 502 l 2,16,17
 465 534 465 534 450 550 c 128,-1,18
 435 566 435 566 410.5 571.5 c 128,-1,19
 386 577 386 577 359 577 c 2,20,-1
 219 577 l 1,21,-1
 219 382 l 1,22,-1
 386 382 l 2,13,14
EndSplineSet
EndChar

StartChar: S
Encoding: 83 83 52
Width: 615
GlyphClass: 7
Flags: W
LayerCount: 2
Fore
SplineSet
300 -12 m 0,0,1
 135 -12 135 -12 39 103 c 1,2,-1
 131 194 l 1,3,4
 205 111 205 111 309 111 c 0,5,6
 427 111 427 111 427 204 c 0,7,8
 427 273 427 273 337 287 c 2,9,-1
 270 297 l 2,10,11
 165 313 165 313 112.5 362.5 c 128,-1,12
 60 412 60 412 60 502 c 0,13,14
 60 559 60 559 88 606.5 c 128,-1,15
 116 654 116 654 172.5 682 c 128,-1,16
 229 710 229 710 316 710 c 0,17,18
 472 710 472 710 556 609 c 1,19,-1
 462 518 l 1,20,21
 406 587 406 587 308 587 c 0,22,23
 250 587 250 587 224 566 c 128,-1,24
 198 545 198 545 198 511 c 0,25,26
 198 437 198 437 291 428 c 1,27,-1
 357 416 l 2,28,29
 462 399 462 399 514 350 c 128,-1,30
 566 301 566 301 566 212 c 0,31,32
 566 148 566 148 536 97.5 c 128,-1,33
 506 47 506 47 446.5 17.5 c 128,-1,34
 387 -12 387 -12 300 -12 c 0,0,1
EndSplineSet
EndChar

StartChar: T
Encoding: 84 84 53
Width: 582
GlyphClass: 5
Flags: W
LayerCount: 2
Fore
SplineSet
360 0 m 1,0,-1
 221 0 l 1,1,-1
 221 575 l 1,2,-1
 26 575 l 1,3,-1
 26 698 l 1,4,-1
 556 698 l 1,5,-1
 556 575 l 1,6,-1
 360 575 l 1,7,-1
 360 0 l 1,0,-1
EndSplineSet
EndChar

StartChar: U
Encoding: 85 85 54
Width: 691
Flags: W
LayerCount: 2
Fore
SplineSet
346 -12 m 0,0,1
 198 -12 198 -12 137 59.5 c 128,-1,2
 76 131 76 131 76 286 c 2,3,-1
 76 698 l 1,4,-1
 212 698 l 1,5,-1
 212 269 l 2,6,7
 212 185 212 185 244.5 148.5 c 128,-1,8
 277 112 277 112 346 112 c 0,9,10
 417 112 417 112 448.5 150.5 c 128,-1,11
 480 189 480 189 480 269 c 2,12,-1
 480 698 l 1,13,-1
 615 698 l 1,14,-1
 615 286 l 2,15,16
 615 122 615 122 550 55 c 128,-1,17
 485 -12 485 -12 346 -12 c 0,0,1
EndSplineSet
EndChar

StartChar: V
Encoding: 86 86 55
Width: 643
Flags: W
LayerCount: 2
Fore
SplineSet
399 0 m 1,0,-1
 242 0 l 1,1,-1
 15 698 l 1,2,-1
 157 698 l 1,3,-1
 263 360 l 1,4,-1
 322 133 l 1,5,-1
 326 133 l 1,6,-1
 384 360 l 1,7,-1
 490 698 l 1,8,-1
 627 698 l 1,9,-1
 399 0 l 1,0,-1
EndSplineSet
EndChar

StartChar: W
Encoding: 87 87 56
Width: 957
Flags: W
LayerCount: 2
Fore
SplineSet
765 0 m 1,0,-1
 607 0 l 1,1,2
 524 349 524 349 479 545 c 1,3,-1
 476 545 l 1,4,-1
 346 0 l 1,5,-1
 188 0 l 1,6,-1
 27 698 l 1,7,-1
 166 698 l 1,8,-1
 274 156 l 1,9,-1
 277 156 l 1,10,-1
 404 698 l 1,11,-1
 557 698 l 1,12,13
 614 459 614 459 683 156 c 1,14,-1
 686 156 l 1,15,-1
 797 698 l 1,16,-1
 930 698 l 1,17,-1
 765 0 l 1,0,-1
EndSplineSet
EndChar

StartChar: X
Encoding: 88 88 57
Width: 662
Flags: W
LayerCount: 2
Fore
SplineSet
644 0 m 1,0,-1
 482 0 l 1,1,-1
 325 264 l 1,2,-1
 322 264 l 1,3,-1
 169 0 l 1,4,-1
 18 0 l 1,5,-1
 242 360 l 1,6,-1
 28 698 l 1,7,-1
 190 698 l 1,8,-1
 334 454 l 1,9,-1
 336 454 l 1,10,-1
 482 698 l 1,11,-1
 633 698 l 1,12,-1
 416 358 l 1,13,-1
 644 0 l 1,0,-1
EndSplineSet
EndChar

StartChar: Y
Encoding: 89 89 58
Width: 638
Flags: W
LayerCount: 2
Fore
SplineSet
389 0 m 1,0,-1
 249 0 l 1,1,-1
 249 274 l 1,2,-1
 10 698 l 1,3,-1
 166 698 l 1,4,-1
 323 409 l 1,5,-1
 325 409 l 1,6,-1
 477 698 l 1,7,-1
 629 698 l 1,8,-1
 389 275 l 1,9,-1
 389 0 l 1,0,-1
EndSplineSet
EndChar

StartChar: Z
Encoding: 90 90 59
Width: 602
Flags: W
LayerCount: 2
Fore
SplineSet
563 0 m 1,0,-1
 38 0 l 1,1,-1
 38 124 l 1,2,-1
 395 575 l 1,3,-1
 56 575 l 1,4,-1
 56 698 l 1,5,-1
 554 698 l 1,6,-1
 554 574 l 1,7,-1
 197 123 l 1,8,-1
 563 123 l 1,9,-1
 563 0 l 1,0,-1
EndSplineSet
EndChar

StartChar: bracketleft
Encoding: 91 91 60
Width: 331
Flags: W
LayerCount: 2
Fore
SplineSet
279 -138 m 1,0,-1
 80 -138 l 1,1,-1
 80 760 l 1,2,-1
 279 760 l 1,3,-1
 279 664 l 1,4,-1
 204 664 l 1,5,-1
 204 -42 l 1,6,-1
 279 -42 l 1,7,-1
 279 -138 l 1,0,-1
EndSplineSet
EndChar

StartChar: backslash
Encoding: 92 92 61
Width: 446
Flags: W
LayerCount: 2
Fore
SplineSet
441 -151 m 1,0,-1
 328 -151 l 1,1,-1
 37 740 l 1,2,-1
 150 740 l 1,3,-1
 441 -151 l 1,0,-1
EndSplineSet
EndChar

StartChar: bracketright
Encoding: 93 93 62
Width: 331
Flags: W
LayerCount: 2
Fore
SplineSet
251 -138 m 1,0,-1
 52 -138 l 1,1,-1
 52 -42 l 1,2,-1
 127 -42 l 1,3,-1
 127 664 l 1,4,-1
 52 664 l 1,5,-1
 52 760 l 1,6,-1
 251 760 l 1,7,-1
 251 -138 l 1,0,-1
EndSplineSet
EndChar

StartChar: asciicircum
Encoding: 94 94 63
Width: 600
Flags: W
LayerCount: 2
Fore
SplineSet
449 281 m 1,0,-1
 300 554 l 1,1,-1
 294 554 l 1,2,-1
 146 281 l 1,3,-1
 44 333 l 1,4,-1
 245 698 l 1,5,-1
 358 698 l 1,6,-1
 557 333 l 1,7,-1
 449 281 l 1,0,-1
EndSplineSet
EndChar

StartChar: underscore
Encoding: 95 95 64
Width: 558
Flags: W
LayerCount: 2
Fore
SplineSet
528 -185 m 1,0,-1
 30 -185 l 1,1,-1
 30 -72 l 1,2,-1
 528 -72 l 1,3,-1
 528 -185 l 1,0,-1
EndSplineSet
EndChar

StartChar: grave
Encoding: 96 96 65
Width: 600
Flags: W
LayerCount: 2
Fore
SplineSet
286 580 m 1,0,-1
 157 753 l 1,1,-1
 271 809 l 1,2,-1
 367 620 l 1,3,-1
 286 580 l 1,0,-1
EndSplineSet
EndChar

StartChar: a
Encoding: 97 97 66
Width: 548
Flags: W
LayerCount: 2
Fore
SplineSet
201 -12 m 0,0,1
 117 -12 117 -12 76.5 31.5 c 128,-1,2
 36 75 36 75 36 142 c 0,3,4
 36 227 36 227 97 265 c 128,-1,5
 158 303 158 303 260 303 c 2,6,-1
 347 303 l 1,7,-1
 347 340 l 2,8,9
 347 428 347 428 253 428 c 0,10,11
 209 428 209 428 182 410 c 128,-1,12
 155 392 155 392 136 363 c 1,13,-1
 56 435 l 1,14,15
 117 535 117 535 263 535 c 0,16,17
 482 535 482 535 482 347 c 2,18,-1
 482 0 l 1,19,-1
 360 0 l 1,20,-1
 360 90 l 1,21,-1
 354 90 l 1,22,23
 337 35 337 35 296 11.5 c 128,-1,24
 255 -12 255 -12 201 -12 c 0,0,1
248 84 m 0,25,26
 285 84 285 84 316 99.5 c 128,-1,27
 347 115 347 115 347 157 c 2,28,-1
 347 224 l 1,29,-1
 277 224 l 2,30,31
 172 224 172 224 172 164 c 2,32,-1
 172 145 l 2,33,34
 172 84 172 84 248 84 c 0,25,26
EndSplineSet
EndChar

StartChar: b
Encoding: 98 98 67
Width: 603
Flags: W
LayerCount: 2
Fore
SplineSet
355 -12 m 0,0,1
 299 -12 299 -12 263 16 c 128,-1,2
 227 44 227 44 212 87 c 1,3,-1
 207 87 l 1,4,-1
 207 0 l 1,5,-1
 72 0 l 1,6,-1
 72 740 l 1,7,-1
 207 740 l 1,8,-1
 207 436 l 1,9,-1
 212 436 l 1,10,11
 229 484 229 484 268 509.5 c 128,-1,12
 307 535 307 535 355 535 c 0,13,14
 427 535 427 535 472 501 c 128,-1,15
 517 467 517 467 537.5 405.5 c 128,-1,16
 558 344 558 344 558 262 c 0,17,18
 557 -12 557 -12 355 -12 c 0,0,1
311 99 m 0,19,20
 370 99 370 99 393.5 137.5 c 128,-1,21
 417 176 417 176 417 228 c 2,22,-1
 417 307 l 2,23,24
 417 356 417 356 390 390 c 128,-1,25
 363 424 363 424 311 424 c 0,26,27
 257 424 257 424 232 397.5 c 128,-1,28
 207 371 207 371 207 330 c 2,29,-1
 207 180 l 2,30,31
 207 138 207 138 238 118.5 c 128,-1,32
 269 99 269 99 311 99 c 0,19,20
EndSplineSet
EndChar

StartChar: c
Encoding: 99 99 68
Width: 515
GlyphClass: 3
Flags: W
LayerCount: 2
Fore
SplineSet
280 -12 m 0,0,1
 166 -12 166 -12 102 61 c 128,-1,2
 38 134 38 134 38 262 c 0,3,4
 38 385 38 385 100 460 c 128,-1,5
 162 535 162 535 280 535 c 0,6,7
 437 535 437 535 487 401 c 1,8,-1
 377 353 l 1,9,10
 360 427 360 427 280 427 c 0,11,12
 224 427 224 427 201.5 392.5 c 128,-1,13
 179 358 179 358 179 309 c 2,14,-1
 179 213 l 2,15,16
 179 163 179 163 202 129 c 128,-1,17
 225 95 225 95 280 95 c 0,18,19
 361 95 361 95 386 177 c 1,20,-1
 491 129 l 1,21,22
 437 -12 437 -12 280 -12 c 0,0,1
EndSplineSet
EndChar

StartChar: d
Encoding: 100 100 69
Width: 603
Flags: W
LayerCount: 2
Fore
SplineSet
248 -12 m 0,0,1
 175 -12 175 -12 130 22.5 c 128,-1,2
 85 57 85 57 64.5 118.5 c 128,-1,3
 44 180 44 180 44 262 c 0,4,5
 47 535 47 535 248 535 c 0,6,7
 294 535 294 535 333.5 510.5 c 128,-1,8
 373 486 373 486 391 436 c 1,9,-1
 396 436 l 1,10,-1
 396 740 l 1,11,-1
 531 740 l 1,12,-1
 531 0 l 1,13,-1
 396 0 l 1,14,-1
 396 87 l 1,15,-1
 391 87 l 1,16,17
 370 36 370 36 331.5 12 c 128,-1,18
 293 -12 293 -12 248 -12 c 0,0,1
292 99 m 0,19,20
 346 99 346 99 371 124.5 c 128,-1,21
 396 150 396 150 396 193 c 2,22,-1
 396 343 l 2,23,24
 396 384 396 384 364 404 c 128,-1,25
 332 424 332 424 292 424 c 0,26,27
 233 424 233 424 209 386 c 128,-1,28
 185 348 185 348 185 295 c 2,29,-1
 185 216 l 2,30,31
 185 168 185 168 212 133.5 c 128,-1,32
 239 99 239 99 292 99 c 0,19,20
EndSplineSet
EndChar

StartChar: e
Encoding: 101 101 70
Width: 560
Flags: W
LayerCount: 2
Fore
SplineSet
286 -12 m 0,0,1
 204 -12 204 -12 149 23 c 128,-1,2
 94 58 94 58 66 120 c 128,-1,3
 38 182 38 182 38 262 c 0,4,5
 38 339 38 339 64.5 401 c 128,-1,6
 91 463 91 463 145.5 499 c 128,-1,7
 200 535 200 535 282 535 c 0,8,9
 370 535 370 535 422.5 497 c 128,-1,10
 475 459 475 459 498.5 398 c 128,-1,11
 522 337 522 337 522 270 c 2,12,-1
 522 227 l 1,13,-1
 178 227 l 1,14,15
 178 95 178 95 301 95 c 0,16,17
 381 95 381 95 433 163 c 1,18,-1
 503 81 l 1,19,20
 430 -12 430 -12 286 -12 c 0,0,1
381 309 m 1,21,22
 381 434 381 434 284 434 c 0,23,24
 245 434 245 434 221.5 416.5 c 128,-1,25
 198 399 198 399 188 370.5 c 128,-1,26
 178 342 178 342 178 309 c 1,27,-1
 381 309 l 1,21,22
EndSplineSet
EndChar

StartChar: f
Encoding: 102 102 71
Width: 354
Flags: W
LayerCount: 2
Fore
SplineSet
233 0 m 1,0,-1
 98 0 l 1,1,-1
 98 417 l 1,2,-1
 23 417 l 1,3,-1
 23 523 l 1,4,-1
 98 523 l 1,5,-1
 98 593 l 2,6,7
 98 661 98 661 133.5 700.5 c 128,-1,8
 169 740 169 740 247 740 c 2,9,-1
 340 740 l 1,10,-1
 340 634 l 1,11,-1
 233 634 l 1,12,-1
 233 523 l 1,13,-1
 340 523 l 1,14,-1
 340 417 l 1,15,-1
 233 417 l 1,16,-1
 233 0 l 1,0,-1
EndSplineSet
EndChar

StartChar: g
Encoding: 103 103 72
Width: 556
Flags: W
LayerCount: 2
Fore
SplineSet
271 -212 m 0,0,1
 146 -212 146 -212 86 -181 c 128,-1,2
 26 -150 26 -150 26 -89 c 0,3,4
 26 -3 26 -3 121 11 c 1,5,-1
 121 22 l 1,6,7
 51 41 51 41 51 110 c 256,8,9
 51 179 51 179 147 203 c 1,10,-1
 147 207 l 1,11,12
 52 251 52 251 52 358 c 0,13,14
 52 408 52 408 74.5 448 c 128,-1,15
 97 488 97 488 145 511.5 c 128,-1,16
 193 535 193 535 271 535 c 0,17,18
 327 535 327 535 366 523 c 1,19,-1
 538 523 l 1,20,-1
 538 431 l 1,21,-1
 471 431 l 1,22,23
 491 399 491 399 491 358 c 0,24,25
 491 311 491 311 469.5 271 c 128,-1,26
 448 231 448 231 400 207 c 128,-1,27
 352 183 352 183 272 183 c 0,28,29
 226 183 226 183 187 193 c 1,30,31
 155 178 155 178 155 148 c 0,32,33
 155 108 155 108 221 108 c 2,34,-1
 349 108 l 2,35,36
 450 108 450 108 499 72.5 c 128,-1,37
 548 37 548 37 548 -42 c 0,38,39
 548 -131 548 -131 480.5 -171.5 c 128,-1,40
 413 -212 413 -212 271 -212 c 0,0,1
272 274 m 2,41,42
 363 274 363 274 363 352 c 0,43,44
 363 379 363 379 356.5 400 c 128,-1,45
 350 421 350 421 330.5 432.5 c 128,-1,46
 311 444 311 444 272 444 c 0,47,48
 225 444 225 444 202.5 424.5 c 128,-1,49
 180 405 180 405 180 358 c 0,50,51
 180 274 180 274 264 274 c 2,52,-1
 272 274 l 2,41,42
306 -120 m 2,53,54
 421 -120 421 -120 421 -61 c 0,55,56
 421 -8 421 -8 345 -8 c 2,57,-1
 157 -8 l 1,58,59
 132 -27 132 -27 132 -59 c 0,60,61
 132 -120 132 -120 236 -120 c 2,62,-1
 306 -120 l 2,53,54
EndSplineSet
EndChar

StartChar: h
Encoding: 104 104 73
Width: 591
GlyphClass: 3
Flags: W
LayerCount: 2
Fore
SplineSet
524 0 m 1,0,-1
 389 0 l 1,1,-1
 389 317 l 2,2,3
 389 375 389 375 369.5 399.5 c 128,-1,4
 350 424 350 424 308 424 c 0,5,6
 268 424 268 424 237.5 404.5 c 128,-1,7
 207 385 207 385 207 343 c 2,8,-1
 207 0 l 1,9,-1
 72 0 l 1,10,-1
 72 740 l 1,11,-1
 207 740 l 1,12,-1
 207 435 l 1,13,-1
 213 435 l 1,14,15
 247 535 247 535 359 535 c 0,16,17
 446 535 446 535 485 477 c 128,-1,18
 524 419 524 419 524 329 c 2,19,-1
 524 0 l 1,0,-1
EndSplineSet
EndChar

StartChar: i
Encoding: 105 105 74
Width: 279
Flags: W
LayerCount: 2
Fore
SplineSet
140 592 m 0,0,1
 61 592 61 592 61 659 c 2,2,-1
 61 680 l 2,3,4
 61 708 61 708 79 727.5 c 128,-1,5
 97 747 97 747 140 747 c 0,6,7
 218 747 218 747 218 680 c 2,8,-1
 218 659 l 2,9,10
 218 628 218 628 198.5 610 c 128,-1,11
 179 592 179 592 140 592 c 0,0,1
207 0 m 1,12,-1
 72 0 l 1,13,-1
 72 523 l 1,14,-1
 207 523 l 1,15,-1
 207 0 l 1,12,-1
EndSplineSet
EndChar

StartChar: j
Encoding: 106 106 75
Width: 279
Flags: W
LayerCount: 2
Fore
SplineSet
66 -200 m 2,0,-1
 -7 -200 l 1,1,-1
 -7 -94 l 1,2,-1
 72 -94 l 1,3,-1
 72 523 l 1,4,-1
 207 523 l 1,5,-1
 207 -61 l 2,6,7
 207 -200 207 -200 66 -200 c 2,0,-1
140 592 m 0,8,9
 61 592 61 592 61 659 c 2,10,-1
 61 680 l 2,11,12
 61 708 61 708 79 727.5 c 128,-1,13
 97 747 97 747 140 747 c 0,14,15
 218 747 218 747 218 680 c 2,16,-1
 218 659 l 2,17,18
 218 628 218 628 198.5 610 c 128,-1,19
 179 592 179 592 140 592 c 0,8,9
EndSplineSet
EndChar

StartChar: k
Encoding: 107 107 76
Width: 567
Flags: W
LayerCount: 2
Fore
SplineSet
564 0 m 1,0,-1
 403 0 l 1,1,-1
 275 231 l 1,2,-1
 207 155 l 1,3,-1
 207 0 l 1,4,-1
 72 0 l 1,5,-1
 72 740 l 1,6,-1
 207 740 l 1,7,-1
 207 297 l 1,8,-1
 213 297 l 1,9,-1
 280 393 l 1,10,-1
 392 523 l 1,11,-1
 543 523 l 1,12,-1
 366 322 l 1,13,-1
 564 0 l 1,0,-1
EndSplineSet
EndChar

StartChar: l
Encoding: 108 108 77
Width: 297
Flags: W
LayerCount: 2
Fore
SplineSet
275 0 m 1,0,-1
 207 0 l 2,1,2
 72 0 72 0 72 132 c 2,3,-1
 72 740 l 1,4,-1
 207 740 l 1,5,-1
 207 106 l 1,6,-1
 275 106 l 1,7,-1
 275 0 l 1,0,-1
EndSplineSet
EndChar

StartChar: m
Encoding: 109 109 78
Width: 890
Flags: W
LayerCount: 2
Fore
SplineSet
824 0 m 1,0,-1
 689 0 l 1,1,-1
 689 317 l 2,2,3
 689 422 689 422 609 424 c 0,4,5
 574 424 574 424 544.5 406 c 128,-1,6
 515 388 515 388 515 343 c 2,7,-1
 515 0 l 1,8,-1
 380 0 l 1,9,-1
 380 317 l 2,10,11
 380 424 380 424 301 424 c 0,12,13
 265 424 265 424 236 404 c 128,-1,14
 207 384 207 384 207 343 c 2,15,-1
 207 0 l 1,16,-1
 72 0 l 1,17,-1
 72 523 l 1,18,-1
 207 523 l 1,19,-1
 207 435 l 1,20,-1
 213 435 l 1,21,22
 246 535 246 535 353 535 c 0,23,24
 461 535 461 535 502 429 c 1,25,-1
 505 429 l 1,26,27
 518 473 518 473 558 504 c 128,-1,28
 598 535 598 535 664 535 c 0,29,30
 748 535 748 535 786 477.5 c 128,-1,31
 824 420 824 420 824 329 c 2,32,-1
 824 0 l 1,0,-1
EndSplineSet
EndChar

StartChar: n
Encoding: 110 110 79
Width: 591
Flags: W
LayerCount: 2
Fore
SplineSet
524 0 m 1,0,-1
 389 0 l 1,1,-1
 389 317 l 2,2,3
 389 424 389 424 311 424 c 0,4,5
 286 424 286 424 263 416 c 0,6,7
 207 397 207 397 207 343 c 2,8,-1
 207 0 l 1,9,-1
 72 0 l 1,10,-1
 72 523 l 1,11,-1
 207 523 l 1,12,-1
 207 435 l 1,13,-1
 213 435 l 1,14,15
 247 535 247 535 359 535 c 0,16,17
 418 535 418 535 454.5 508.5 c 128,-1,18
 491 482 491 482 507.5 435.5 c 128,-1,19
 524 389 524 389 524 329 c 2,20,-1
 524 0 l 1,0,-1
EndSplineSet
EndChar

StartChar: o
Encoding: 111 111 80
Width: 564
Flags: W
LayerCount: 2
Fore
SplineSet
282 -12 m 0,0,1
 201 -12 201 -12 146.5 24 c 128,-1,2
 92 60 92 60 65 122 c 128,-1,3
 38 184 38 184 38 262 c 0,4,5
 38 395 38 395 106 465 c 128,-1,6
 174 535 174 535 282 535 c 0,7,8
 397 535 397 535 461.5 461 c 128,-1,9
 526 387 526 387 526 262 c 0,10,11
 526 138 526 138 462 63 c 128,-1,12
 398 -12 398 -12 282 -12 c 0,0,1
282 96 m 0,13,14
 342 96 342 96 363.5 134 c 128,-1,15
 385 172 385 172 385 235 c 2,16,-1
 385 312 l 1,17,18
 380 427 380 427 282 427 c 0,19,20
 221 427 221 427 200 388.5 c 128,-1,21
 179 350 179 350 179 288 c 2,22,-1
 179 211 l 2,23,24
 182 96 182 96 282 96 c 0,13,14
EndSplineSet
EndChar

StartChar: p
Encoding: 112 112 81
Width: 603
Flags: W
LayerCount: 2
Fore
SplineSet
207 -200 m 1,0,-1
 72 -200 l 1,1,-1
 72 523 l 1,2,-1
 207 523 l 1,3,-1
 207 436 l 1,4,-1
 212 436 l 1,5,6
 229 484 229 484 268 509.5 c 128,-1,7
 307 535 307 535 355 535 c 0,8,9
 427 535 427 535 472 501 c 128,-1,10
 517 467 517 467 537.5 405.5 c 128,-1,11
 558 344 558 344 558 262 c 0,12,13
 557 -12 557 -12 355 -12 c 0,14,15
 299 -12 299 -12 263 16 c 128,-1,16
 227 44 227 44 212 87 c 1,17,-1
 207 87 l 1,18,-1
 207 -200 l 1,0,-1
311 99 m 0,19,20
 370 99 370 99 393.5 137.5 c 128,-1,21
 417 176 417 176 417 228 c 2,22,-1
 417 307 l 2,23,24
 417 356 417 356 390 390 c 128,-1,25
 363 424 363 424 311 424 c 0,26,27
 257 424 257 424 232 397.5 c 128,-1,28
 207 371 207 371 207 330 c 2,29,-1
 207 180 l 2,30,31
 207 138 207 138 238 118.5 c 128,-1,32
 269 99 269 99 311 99 c 0,19,20
EndSplineSet
EndChar

StartChar: q
Encoding: 113 113 82
Width: 603
Flags: W
LayerCount: 2
Fore
SplineSet
531 -200 m 1,0,-1
 396 -200 l 1,1,-1
 396 87 l 1,2,-1
 391 87 l 1,3,4
 370 36 370 36 331.5 12 c 128,-1,5
 293 -12 293 -12 248 -12 c 0,6,7
 175 -12 175 -12 130 22.5 c 128,-1,8
 85 57 85 57 64.5 118.5 c 128,-1,9
 44 180 44 180 44 262 c 0,10,11
 47 535 47 535 248 535 c 0,12,13
 294 535 294 535 333.5 510.5 c 128,-1,14
 373 486 373 486 391 436 c 1,15,-1
 396 436 l 1,16,-1
 396 523 l 1,17,-1
 531 523 l 1,18,-1
 531 -200 l 1,0,-1
292 99 m 0,19,20
 346 99 346 99 371 124.5 c 128,-1,21
 396 150 396 150 396 193 c 2,22,-1
 396 343 l 2,23,24
 396 384 396 384 364 404 c 128,-1,25
 332 424 332 424 292 424 c 0,26,27
 233 424 233 424 209 386 c 128,-1,28
 185 348 185 348 185 295 c 2,29,-1
 185 216 l 2,30,31
 185 168 185 168 212 133.5 c 128,-1,32
 239 99 239 99 292 99 c 0,19,20
EndSplineSet
EndChar

StartChar: r
Encoding: 114 114 83
Width: 397
Flags: W
LayerCount: 2
Fore
SplineSet
207 0 m 1,0,-1
 72 0 l 1,1,-1
 72 523 l 1,2,-1
 207 523 l 1,3,-1
 207 414 l 1,4,-1
 212 414 l 1,5,6
 219 457 219 457 252.5 490 c 128,-1,7
 286 523 286 523 349 523 c 2,8,-1
 376 523 l 1,9,-1
 376 396 l 1,10,-1
 337 396 l 2,11,12
 271 396 271 396 239 378 c 128,-1,13
 207 360 207 360 207 315 c 2,14,-1
 207 0 l 1,0,-1
EndSplineSet
EndChar

StartChar: s
Encoding: 115 115 84
Width: 501
GlyphClass: 5
Flags: W
LayerCount: 2
Fore
SplineSet
246 -12 m 0,0,1
 108 -12 108 -12 28 83 c 1,2,-1
 109 163 l 1,3,4
 166 94 166 94 251 94 c 0,5,6
 335 94 335 94 335 147 c 2,7,-1
 335 151 l 2,8,9
 335 194 335 194 275 202 c 2,10,-1
 221 208 l 2,11,12
 46 230 46 230 46 368 c 0,13,14
 46 439 46 439 95.5 487 c 128,-1,15
 145 535 145 535 246 535 c 0,16,17
 317 535 317 535 366 515.5 c 128,-1,18
 415 496 415 496 453 453 c 1,19,-1
 374 374 l 1,20,21
 320 429 320 429 251 429 c 0,22,23
 175 429 175 429 175 378 c 0,24,25
 175 330 175 330 238 323 c 2,26,-1
 294 316 l 2,27,28
 464 292 464 292 464 160 c 0,29,30
 464 77 464 77 401 32.5 c 128,-1,31
 338 -12 338 -12 246 -12 c 0,0,1
EndSplineSet
EndChar

StartChar: t
Encoding: 116 116 85
Width: 377
Flags: W
LayerCount: 2
Fore
SplineSet
333 0 m 1,0,-1
 243 0 l 2,1,2
 168 0 168 0 134 38 c 128,-1,3
 100 76 100 76 100 140 c 2,4,-1
 100 417 l 1,5,-1
 24 417 l 1,6,-1
 24 523 l 1,7,-1
 65 523 l 2,8,9
 114 523 114 523 114 572 c 2,10,-1
 114 665 l 1,11,-1
 235 665 l 1,12,-1
 235 523 l 1,13,-1
 341 523 l 1,14,-1
 341 417 l 1,15,-1
 235 417 l 1,16,-1
 235 106 l 1,17,-1
 333 106 l 1,18,-1
 333 0 l 1,0,-1
EndSplineSet
EndChar

StartChar: u
Encoding: 117 117 86
Width: 591
Flags: W
LayerCount: 2
Fore
SplineSet
232 -12 m 0,0,1
 172 -12 172 -12 135.5 14 c 128,-1,2
 99 40 99 40 82.5 86.5 c 128,-1,3
 66 133 66 133 66 193 c 2,4,-1
 66 523 l 1,5,-1
 201 523 l 1,6,-1
 201 206 l 2,7,8
 201 99 201 99 285 99 c 0,9,10
 321 99 321 99 352.5 118.5 c 128,-1,11
 384 138 384 138 384 180 c 2,12,-1
 384 523 l 1,13,-1
 519 523 l 1,14,-1
 519 0 l 1,15,-1
 384 0 l 1,16,-1
 384 87 l 1,17,-1
 379 87 l 1,18,19
 349 -12 349 -12 232 -12 c 0,0,1
EndSplineSet
EndChar

StartChar: v
Encoding: 118 118 87
Width: 529
Flags: W
LayerCount: 2
Fore
SplineSet
344 0 m 1,0,-1
 184 0 l 1,1,-1
 11 523 l 1,2,-1
 144 523 l 1,3,-1
 186 389 l 2,4,5
 208 321 208 321 220 279 c 2,6,-1
 264 116 l 1,7,-1
 271 116 l 1,8,9
 292 191 292 191 312 266 c 128,-1,10
 332 341 332 341 366 444 c 2,11,-1
 391 523 l 1,12,-1
 519 523 l 1,13,-1
 344 0 l 1,0,-1
EndSplineSet
EndChar

StartChar: w
Encoding: 119 119 88
Width: 827
Flags: W
LayerCount: 2
Fore
SplineSet
662 0 m 1,0,-1
 518 0 l 1,1,2
 496 74 496 74 414 366 c 1,3,-1
 411 366 l 1,4,-1
 378 240 l 1,5,-1
 308 0 l 1,6,-1
 167 0 l 1,7,-1
 21 523 l 1,8,-1
 152 523 l 1,9,-1
 243 137 l 1,10,-1
 247 137 l 1,11,12
 296 321 296 321 314 383 c 2,13,-1
 354 523 l 1,14,-1
 477 523 l 1,15,-1
 541 298 l 1,16,-1
 586 137 l 1,17,-1
 589 137 l 1,18,-1
 602 196 l 1,19,-1
 681 523 l 1,20,-1
 806 523 l 1,21,-1
 662 0 l 1,0,-1
EndSplineSet
EndChar

StartChar: x
Encoding: 120 120 89
Width: 550
Flags: W
LayerCount: 2
Fore
SplineSet
531 0 m 1,0,-1
 377 0 l 1,1,-1
 270 177 l 1,2,-1
 266 177 l 1,3,-1
 160 0 l 1,4,-1
 19 0 l 1,5,-1
 195 266 l 1,6,-1
 22 523 l 1,7,-1
 176 523 l 1,8,-1
 280 353 l 1,9,-1
 284 353 l 1,10,-1
 387 523 l 1,11,-1
 530 523 l 1,12,-1
 354 263 l 1,13,-1
 531 0 l 1,0,-1
EndSplineSet
EndChar

StartChar: y
Encoding: 121 121 90
Width: 527
Flags: W
LayerCount: 2
Fore
SplineSet
159 -200 m 2,0,-1
 76 -200 l 1,1,-1
 76 -94 l 1,2,-1
 172 -94 l 1,3,-1
 194 -26 l 1,4,-1
 8 523 l 1,5,-1
 142 523 l 1,6,7
 237 224 237 224 241 205 c 0,8,9
 252 161 252 161 264 119 c 1,10,-1
 269 119 l 1,11,-1
 298 224 l 1,12,-1
 392 523 l 1,13,-1
 519 523 l 1,14,-1
 312 -88 l 2,15,16
 294 -146 294 -146 258 -173 c 128,-1,17
 222 -200 222 -200 159 -200 c 2,0,-1
EndSplineSet
EndChar

StartChar: z
Encoding: 122 122 91
Width: 508
Flags: W
LayerCount: 2
Fore
SplineSet
470 0 m 1,0,-1
 38 0 l 1,1,-1
 38 107 l 1,2,-1
 305 417 l 1,3,-1
 47 417 l 1,4,-1
 47 523 l 1,5,-1
 463 523 l 1,6,-1
 463 418 l 1,7,-1
 194 106 l 1,8,-1
 470 106 l 1,9,-1
 470 0 l 1,0,-1
EndSplineSet
EndChar

StartChar: braceleft
Encoding: 123 123 92
Width: 366
Flags: W
LayerCount: 2
Fore
SplineSet
314 -138 m 1,0,-1
 210 -138 l 2,1,2
 172 -138 172 -138 144 -114 c 128,-1,3
 116 -90 116 -90 116 -41 c 2,4,-1
 116 169 l 2,5,6
 116 218 116 218 86.5 238 c 128,-1,7
 57 258 57 258 19 258 c 1,8,-1
 19 365 l 1,9,10
 57 365 57 365 86.5 385.5 c 128,-1,11
 116 406 116 406 116 453 c 2,12,-1
 116 663 l 2,13,14
 116 760 116 760 228 760 c 2,15,-1
 314 760 l 1,16,-1
 314 664 l 1,17,-1
 240 664 l 1,18,-1
 240 442 l 2,19,20
 240 400 240 400 213 363 c 128,-1,21
 186 326 186 326 138 314 c 1,22,-1
 138 308 l 1,23,24
 194 293 194 293 217 251.5 c 128,-1,25
 240 210 240 210 240 162 c 2,26,-1
 240 -42 l 1,27,-1
 314 -42 l 1,28,-1
 314 -138 l 1,0,-1
EndSplineSet
EndChar

StartChar: bar
Encoding: 124 124 93
Width: 386
Flags: W
LayerCount: 2
Fore
SplineSet
250 -138 m 1,0,-1
 135 -138 l 1,1,-1
 135 760 l 1,2,-1
 250 760 l 1,3,-1
 250 -138 l 1,0,-1
EndSplineSet
EndChar

StartChar: braceright
Encoding: 125 125 94
Width: 367
Flags: W
LayerCount: 2
Fore
SplineSet
156 -138 m 2,0,-1
 52 -138 l 1,1,-1
 52 -42 l 1,2,-1
 126 -42 l 1,3,-1
 126 181 l 2,4,5
 126 222 126 222 152 258.5 c 128,-1,6
 178 295 178 295 229 309 c 1,7,-1
 229 315 l 1,8,9
 185 324 185 324 155.5 357.5 c 128,-1,10
 126 391 126 391 126 443 c 2,11,-1
 126 664 l 1,12,-1
 52 664 l 1,13,-1
 52 760 l 1,14,-1
 156 760 l 2,15,16
 194 760 194 760 222 736 c 128,-1,17
 250 712 250 712 250 663 c 2,18,-1
 250 453 l 2,19,20
 250 404 250 404 279.5 384.5 c 128,-1,21
 309 365 309 365 347 365 c 1,22,-1
 347 258 l 1,23,24
 309 258 309 258 279.5 238 c 128,-1,25
 250 218 250 218 250 169 c 2,26,-1
 250 -41 l 2,27,28
 250 -91 250 -91 221.5 -114.5 c 128,-1,29
 193 -138 193 -138 156 -138 c 2,0,-1
EndSplineSet
EndChar

StartChar: asciitilde
Encoding: 126 126 95
Width: 600
Flags: W
LayerCount: 2
Fore
SplineSet
417 217 m 0,0,1
 378 217 378 217 343.5 229.5 c 128,-1,2
 309 242 309 242 276 257 c 0,3,4
 250 270 250 270 223 280 c 0,5,6
 202 286 202 286 179 286 c 0,7,8
 134 286 134 286 100 258 c 1,9,-1
 55 334 l 1,10,11
 95 395 95 395 183 395 c 0,12,13
 220 395 220 395 250.5 384 c 128,-1,14
 281 373 281 373 308 359.5 c 128,-1,15
 335 346 335 346 362.5 336 c 128,-1,16
 390 326 390 326 421 326 c 0,17,18
 445 326 445 326 462.5 332.5 c 128,-1,19
 480 339 480 339 500 354 c 1,20,-1
 545 277 l 1,21,22
 504 217 504 217 417 217 c 0,0,1
EndSplineSet
EndChar

StartChar: exclamdown
Encoding: 161 161 97
Width: 313
Flags: W
LayerCount: 2
Fore
SplineSet
228 -175 m 1,0,-1
 85 -175 l 1,1,-1
 85 21 l 1,2,-1
 127 310 l 1,3,-1
 185 310 l 1,4,-1
 228 21 l 1,5,-1
 228 -175 l 1,0,-1
156 368 m 0,6,7
 110 368 110 368 91.5 389 c 128,-1,8
 73 410 73 410 73 441 c 2,9,-1
 73 463 l 2,10,11
 73 535 73 535 156 535 c 0,12,13
 202 535 202 535 221 513.5 c 128,-1,14
 240 492 240 492 240 463 c 2,15,-1
 240 441 l 2,16,17
 240 368 240 368 156 368 c 0,6,7
EndSplineSet
EndChar

StartChar: cent
Encoding: 162 162 98
Width: 544
Flags: W
LayerCount: 2
Fore
SplineSet
339 -114 m 1,0,-1
 236 -114 l 1,1,-1
 236 -7 l 1,2,3
 134 15 134 15 88 87 c 128,-1,4
 42 159 42 159 42 258 c 256,5,6
 42 357 42 357 88 429 c 128,-1,7
 134 501 134 501 236 523 c 1,8,-1
 236 630 l 1,9,-1
 339 630 l 1,10,-1
 339 525 l 1,11,12
 459 502 459 502 500 403 c 1,13,-1
 402 350 l 1,14,15
 383 400 383 400 331 420 c 1,16,-1
 331 96 l 1,17,18
 386 112 386 112 412 168 c 1,19,-1
 508 113 l 1,20,21
 463 12 463 12 339 -9 c 1,22,-1
 339 -114 l 1,0,-1
245 98 m 1,23,-1
 245 418 l 1,24,25
 172 390 172 390 172 300 c 2,26,-1
 172 216 l 2,27,28
 172 125 172 125 245 98 c 1,23,-1
EndSplineSet
EndChar

StartChar: sterling
Encoding: 163 163 99
Width: 584
Flags: W
LayerCount: 2
Fore
SplineSet
548 0 m 1,0,-1
 69 0 l 1,1,-1
 69 129 l 1,2,3
 150 168 150 168 150 254 c 0,4,5
 150 275 150 275 146 290 c 1,6,-1
 39 290 l 1,7,-1
 39 400 l 1,8,-1
 106 400 l 1,9,10
 85 447 85 447 85 504 c 0,11,12
 85 572 85 572 118 617.5 c 128,-1,13
 151 663 151 663 207 686.5 c 128,-1,14
 263 710 263 710 332 710 c 0,15,16
 486 710 486 710 563 590 c 1,17,-1
 462 519 l 1,18,19
 413 590 413 590 334 590 c 0,20,21
 237 590 237 590 228 502 c 0,22,23
 226 495 226 495 226 488 c 0,24,25
 226 446 226 446 242 400 c 1,26,-1
 442 400 l 1,27,-1
 442 290 l 1,28,-1
 283 290 l 1,29,30
 285 276 285 276 285 260 c 0,31,32
 285 168 285 168 209 126 c 1,33,-1
 209 118 l 1,34,-1
 548 118 l 1,35,-1
 548 0 l 1,0,-1
EndSplineSet
EndChar

StartChar: yen
Encoding: 165 165 100
Width: 641
Flags: W
LayerCount: 2
Fore
SplineSet
389 0 m 1,0,-1
 249 0 l 1,1,-1
 249 135 l 1,2,-1
 80 135 l 1,3,-1
 80 221 l 1,4,-1
 249 221 l 1,5,-1
 249 294 l 1,6,-1
 80 294 l 1,7,-1
 80 380 l 1,8,-1
 195 380 l 1,9,-1
 22 698 l 1,10,-1
 179 698 l 1,11,-1
 324 415 l 1,12,-1
 327 415 l 1,13,-1
 470 698 l 1,14,-1
 619 698 l 1,15,-1
 443 380 l 1,16,-1
 558 380 l 1,17,-1
 558 294 l 1,18,-1
 389 294 l 1,19,-1
 389 221 l 1,20,-1
 558 221 l 1,21,-1
 558 135 l 1,22,-1
 389 135 l 1,23,-1
 389 0 l 1,0,-1
EndSplineSet
EndChar

StartChar: brokenbar
Encoding: 166 166 101
Width: 386
Flags: W
LayerCount: 2
Fore
SplineSet
250 402 m 1,0,-1
 135 402 l 1,1,-1
 135 760 l 1,2,-1
 250 760 l 1,3,-1
 250 402 l 1,0,-1
250 -138 m 1,4,-1
 135 -138 l 1,5,-1
 135 220 l 1,6,-1
 250 220 l 1,7,-1
 250 -138 l 1,4,-1
EndSplineSet
EndChar

StartChar: section
Encoding: 167 167 102
Width: 572
Flags: W
LayerCount: 2
Fore
SplineSet
272 -160 m 0,0,1
 155 -160 155 -160 79 -91 c 1,2,-1
 146 -9 l 1,3,4
 196 -62 196 -62 274 -62 c 0,5,6
 370 -59 370 -59 370 6 c 0,7,8
 370 36 370 36 349 53 c 128,-1,9
 328 70 328 70 280 82 c 2,10,-1
 205 103 l 2,11,12
 55 146 55 146 55 252 c 0,13,14
 55 342 55 342 162 391 c 1,15,-1
 162 406 l 1,16,17
 86 455 86 455 86 543 c 0,18,19
 86 600 86 600 115 637 c 128,-1,20
 144 674 144 674 192 692 c 128,-1,21
 240 710 240 710 298 710 c 0,22,23
 416 710 416 710 493 641 c 1,24,-1
 425 559 l 1,25,26
 376 612 376 612 295 612 c 0,27,28
 201 612 201 612 201 547 c 0,29,30
 201 491 201 491 291 474 c 1,31,-1
 365 453 l 2,32,33
 517 407 517 407 517 303 c 0,34,35
 517 209 517 209 409 164 c 1,36,-1
 409 150 l 1,37,38
 485 100 485 100 485 11 c 0,39,40
 485 -74 485 -74 423.5 -117 c 128,-1,41
 362 -160 362 -160 272 -160 c 0,0,1
361 174 m 1,42,43
 402 210 402 210 402 262 c 0,44,45
 402 298 402 298 377.5 319 c 128,-1,46
 353 340 353 340 296 356 c 2,47,-1
 210 381 l 1,48,49
 168 342 168 342 168 292 c 0,50,51
 168 231 168 231 255 205 c 0,52,53
 326 186 326 186 354 176 c 2,54,-1
 361 174 l 1,42,43
EndSplineSet
EndChar

StartChar: dieresis
Encoding: 168 168 103
Width: 600
GlyphClass: 5
Flags: W
LayerCount: 2
Fore
SplineSet
193 603 m 256,0,1
 119 603 119 603 119 663 c 2,2,-1
 119 686 l 2,3,4
 119 745 119 745 193 745 c 256,5,6
 267 745 267 745 267 686 c 2,7,-1
 267 663 l 2,8,9
 267 603 267 603 193 603 c 256,0,1
407 603 m 256,10,11
 333 603 333 603 333 663 c 2,12,-1
 333 686 l 2,13,14
 333 745 333 745 407 745 c 256,15,16
 481 745 481 745 481 686 c 2,17,-1
 481 663 l 2,18,19
 481 603 481 603 407 603 c 256,10,11
EndSplineSet
EndChar

StartChar: copyright
Encoding: 169 169 104
Width: 789
Flags: W
LayerCount: 2
Fore
SplineSet
394 -12 m 0,0,1
 280 -12 280 -12 203.5 38 c 128,-1,2
 127 88 127 88 88 170.5 c 128,-1,3
 49 253 49 253 49 349 c 0,4,5
 49 467 49 467 96.5 547.5 c 128,-1,6
 144 628 144 628 222.5 669 c 128,-1,7
 301 710 301 710 394 710 c 0,8,9
 505 710 505 710 582.5 661 c 128,-1,10
 660 612 660 612 700 530 c 128,-1,11
 740 448 740 448 740 349 c 0,12,13
 740 227 740 227 691 148 c 128,-1,14
 642 69 642 69 563.5 28.5 c 128,-1,15
 485 -12 485 -12 394 -12 c 0,0,1
394 51 m 0,16,17
 515 51 515 51 591 127 c 128,-1,18
 667 203 667 203 667 316 c 2,19,-1
 667 382 l 2,20,21
 667 467 667 467 627.5 526.5 c 128,-1,22
 588 586 588 586 525.5 616.5 c 128,-1,23
 463 647 463 647 394 647 c 0,24,25
 311 647 311 647 250 610 c 128,-1,26
 189 573 189 573 155.5 512.5 c 128,-1,27
 122 452 122 452 122 382 c 2,28,-1
 122 316 l 2,29,30
 122 203 122 203 199 127 c 128,-1,31
 276 51 276 51 394 51 c 0,16,17
402 138 m 0,32,33
 302 138 302 138 252 197.5 c 128,-1,34
 202 257 202 257 202 349 c 0,35,36
 202 440 202 440 252.5 500 c 128,-1,37
 303 560 303 560 402 560 c 0,38,39
 530 560 530 560 573 452 c 1,40,-1
 482 407 l 1,41,42
 461 465 461 465 402 465 c 0,43,44
 364 465 364 465 345.5 442.5 c 128,-1,45
 327 420 327 420 327 387 c 2,46,-1
 327 310 l 2,47,48
 329 276 329 276 347 254.5 c 128,-1,49
 365 233 365 233 402 233 c 0,50,51
 461 233 461 233 489 291 c 1,52,-1
 581 247 l 1,53,54
 535 138 535 138 402 138 c 0,32,33
EndSplineSet
EndChar

StartChar: ordfeminine
Encoding: 170 170 105
Width: 419
GlyphClass: 5
Flags: W
LayerCount: 2
Fore
SplineSet
158 335 m 0,0,1
 109 335 109 335 77 360.5 c 128,-1,2
 45 386 45 386 45 442 c 0,3,4
 45 551 45 551 199 551 c 2,5,-1
 262 551 l 1,6,-1
 262 571 l 2,7,8
 262 634 262 634 208 634 c 0,9,10
 187 634 187 634 167 622 c 1,11,-1
 156 623 l 2,12,13
 122 623 122 623 101 599 c 1,14,-1
 55 639 l 1,15,16
 96 710 96 710 207 710 c 0,17,18
 273 710 273 710 315.5 678 c 128,-1,19
 358 646 358 646 358 575 c 2,20,-1
 358 343 l 1,21,-1
 270 343 l 1,22,-1
 270 405 l 1,23,-1
 266 405 l 1,24,25
 243 335 243 335 158 335 c 0,0,1
193 400 m 0,26,27
 217 400 217 400 239.5 412 c 128,-1,28
 262 424 262 424 262 455 c 2,29,-1
 262 497 l 1,30,-1
 212 497 l 2,31,32
 165 497 165 497 152 483.5 c 128,-1,33
 139 470 139 470 139 440 c 0,34,35
 139 400 139 400 193 400 c 0,26,27
EndSplineSet
EndChar

StartChar: guillemotleft
Encoding: 171 171 106
Width: 549
Flags: W
LayerCount: 2
Fore
SplineSet
225 55 m 1,0,-1
 38 216 l 1,1,-1
 38 333 l 1,2,-1
 225 494 l 1,3,-1
 264 409 l 1,4,-1
 141 274 l 1,5,-1
 264 140 l 1,6,-1
 225 55 l 1,0,-1
460 55 m 1,7,-1
 273 216 l 1,8,-1
 273 333 l 1,9,-1
 460 494 l 1,10,-1
 499 409 l 1,11,-1
 376 274 l 1,12,-1
 499 140 l 1,13,-1
 460 55 l 1,7,-1
EndSplineSet
EndChar

StartChar: logicalnot
Encoding: 172 172 107
Width: 605
Flags: W
LayerCount: 2
Fore
SplineSet
538 78 m 1,0,-1
 427 78 l 1,1,-1
 427 252 l 1,2,-1
 55 252 l 1,3,-1
 55 360 l 1,4,-1
 538 360 l 1,5,-1
 538 78 l 1,0,-1
EndSplineSet
EndChar

StartChar: sfthyphen
Encoding: 173 173 108
Width: 402
Flags: W
LayerCount: 2
Fore
SplineSet
346 238 m 1,0,-1
 56 238 l 1,1,-1
 56 371 l 1,2,-1
 346 371 l 1,3,-1
 346 238 l 1,0,-1
EndSplineSet
EndChar

StartChar: registered
Encoding: 174 174 109
Width: 467
Flags: W
LayerCount: 2
Fore
SplineSet
233 298 m 0,0,1
 173 298 173 298 127.5 327 c 128,-1,2
 82 356 82 356 57 403 c 128,-1,3
 32 450 32 450 32 504 c 0,4,5
 32 589 32 589 89 649.5 c 128,-1,6
 146 710 146 710 233 710 c 0,7,8
 324 710 324 710 379.5 648.5 c 128,-1,9
 435 587 435 587 435 504 c 0,10,11
 435 419 435 419 378 358.5 c 128,-1,12
 321 298 321 298 233 298 c 0,0,1
233 344 m 0,13,14
 301 344 301 344 342 385 c 128,-1,15
 383 426 383 426 383 489 c 2,16,-1
 383 519 l 2,17,18
 383 588 383 588 338 626 c 128,-1,19
 293 664 293 664 233 664 c 0,20,21
 164 664 164 664 124 621.5 c 128,-1,22
 84 579 84 579 84 519 c 2,23,-1
 84 489 l 2,24,25
 84 419 84 419 129.5 381.5 c 128,-1,26
 175 344 175 344 233 344 c 0,13,14
332 399 m 1,27,-1
 267 399 l 1,28,-1
 233 464 l 1,29,-1
 208 464 l 1,30,-1
 208 399 l 1,31,-1
 148 399 l 1,32,-1
 148 608 l 1,33,-1
 248 608 l 2,34,35
 291 608 291 608 308 587.5 c 128,-1,36
 325 567 325 567 325 540 c 0,37,38
 325 490 325 490 288 475 c 1,39,-1
 332 399 l 1,27,-1
237 508 m 2,40,41
 254 508 254 508 259 515 c 128,-1,42
 264 522 264 522 264 542 c 0,43,44
 264 563 264 563 237 563 c 2,45,-1
 208 563 l 1,46,-1
 208 508 l 1,47,-1
 237 508 l 2,40,41
EndSplineSet
EndChar

StartChar: macron
Encoding: 175 175 110
Width: 600
Flags: W
LayerCount: 2
Fore
SplineSet
451 626 m 1,0,-1
 149 626 l 1,1,-1
 149 723 l 1,2,-1
 451 723 l 1,3,-1
 451 626 l 1,0,-1
EndSplineSet
EndChar

StartChar: degree
Encoding: 176 176 111
Width: 470
Flags: W
LayerCount: 2
Fore
SplineSet
235 340 m 0,0,1
 152 340 152 340 102.5 395.5 c 128,-1,2
 53 451 53 451 53 525 c 0,3,4
 53 608 53 608 107 659 c 128,-1,5
 161 710 161 710 235 710 c 0,6,7
 317 710 317 710 367 655.5 c 128,-1,8
 417 601 417 601 417 525 c 0,9,10
 417 446 417 446 365 393 c 128,-1,11
 313 340 313 340 235 340 c 0,0,1
235 429 m 0,12,13
 281 429 281 429 301.5 458.5 c 128,-1,14
 322 488 322 488 322 525 c 256,15,16
 322 562 322 562 301 591.5 c 128,-1,17
 280 621 280 621 235 621 c 0,18,19
 189 621 189 621 168.5 592 c 128,-1,20
 148 563 148 563 148 525 c 256,21,22
 148 487 148 487 169 458 c 128,-1,23
 190 429 190 429 235 429 c 0,12,13
EndSplineSet
EndChar

StartChar: plusminus
Encoding: 177 177 112
Width: 600
Flags: W
LayerCount: 2
Fore
SplineSet
359 178 m 1,0,-1
 241 178 l 1,1,-1
 241 351 l 1,2,-1
 67 351 l 1,3,-1
 67 460 l 1,4,-1
 241 460 l 1,5,-1
 241 632 l 1,6,-1
 359 632 l 1,7,-1
 359 460 l 1,8,-1
 533 460 l 1,9,-1
 533 351 l 1,10,-1
 359 351 l 1,11,-1
 359 178 l 1,0,-1
533 0 m 1,12,-1
 67 0 l 1,13,-1
 67 109 l 1,14,-1
 533 109 l 1,15,-1
 533 0 l 1,12,-1
EndSplineSet
EndChar

StartChar: twosuperior
Encoding: 178 178 113
Width: 347
Flags: W
LayerCount: 2
Fore
SplineSet
320 329 m 1,0,-1
 34 329 l 1,1,-1
 34 411 l 1,2,-1
 147 498 l 2,3,4
 182 523 182 523 197.5 542 c 128,-1,5
 213 561 213 561 213 585 c 0,6,7
 213 625 213 625 166 625 c 0,8,9
 118 625 118 625 106 577 c 1,10,-1
 24 608 l 1,11,12
 37 651 37 651 74 677.5 c 128,-1,13
 111 704 111 704 175 704 c 0,14,15
 247 704 247 704 280.5 671 c 128,-1,16
 314 638 314 638 314 591 c 0,17,18
 314 507 314 507 204 447 c 1,19,-1
 137 406 l 1,20,-1
 320 406 l 1,21,-1
 320 329 l 1,0,-1
EndSplineSet
EndChar

StartChar: threesuperior
Encoding: 179 179 114
Width: 345
Flags: W
LayerCount: 2
Fore
SplineSet
159 323 m 0,0,1
 47 323 47 323 8 396 c 1,2,-1
 78 450 l 1,3,4
 104 396 104 396 159 396 c 0,5,6
 214 399 214 399 214 442 c 0,7,8
 214 480 214 480 150 480 c 2,9,-1
 116 480 l 1,10,-1
 116 556 l 1,11,-1
 152 556 l 2,12,13
 181 556 181 556 194 565 c 128,-1,14
 207 574 207 574 207 587 c 0,15,16
 207 631 207 631 158 631 c 0,17,18
 113 631 113 631 78 587 c 1,19,-1
 19 641 l 1,20,21
 63 704 63 704 161 704 c 0,22,23
 223 704 223 704 265 679 c 128,-1,24
 307 654 307 654 307 604 c 0,25,26
 307 533 307 533 231 522 c 1,27,-1
 231 519 l 1,28,29
 313 506 313 506 313 433 c 0,30,31
 313 377 313 377 267.5 350 c 128,-1,32
 222 323 222 323 159 323 c 0,0,1
EndSplineSet
EndChar

StartChar: acute
Encoding: 180 180 115
Width: 600
Flags: W
LayerCount: 2
Fore
SplineSet
314 580 m 1,0,-1
 233 620 l 1,1,-1
 329 809 l 1,2,-1
 443 753 l 1,3,-1
 314 580 l 1,0,-1
EndSplineSet
EndChar

StartChar: mu
Encoding: 181 181 116
Width: 596
Flags: W
LayerCount: 2
Fore
SplineSet
206 -200 m 1,0,-1
 72 -200 l 1,1,-1
 72 523 l 1,2,-1
 207 523 l 1,3,-1
 207 205 l 2,4,5
 207 99 207 99 283 99 c 0,6,7
 325 99 325 99 357 118 c 128,-1,8
 389 137 389 137 389 179 c 2,9,-1
 389 523 l 1,10,-1
 524 523 l 1,11,-1
 524 0 l 1,12,-1
 389 0 l 1,13,-1
 389 87 l 1,14,-1
 385 87 l 1,15,16
 354 -12 354 -12 264 -12 c 0,17,18
 207 -12 207 -12 186 32 c 1,19,-1
 182 32 l 1,20,21
 190 -7 190 -7 193 -22 c 128,-1,22
 196 -37 196 -37 197 -43.5 c 128,-1,23
 198 -50 198 -50 199 -56 c 128,-1,24
 200 -62 200 -62 201.5 -73 c 128,-1,25
 203 -84 203 -84 206 -109 c 2,26,-1
 206 -200 l 1,0,-1
EndSplineSet
EndChar

StartChar: paragraph
Encoding: 182 182 117
Width: 672
Flags: W
LayerCount: 2
Fore
SplineSet
548 -149 m 1,0,-1
 445 -149 l 1,1,-1
 445 599 l 1,2,-1
 345 599 l 1,3,-1
 345 -149 l 1,4,-1
 243 -149 l 1,5,-1
 243 267 l 1,6,7
 153 267 153 267 94 332.5 c 128,-1,8
 35 398 35 398 35 483 c 0,9,10
 35 539 35 539 61.5 588 c 128,-1,11
 88 637 88 637 135 667.5 c 128,-1,12
 182 698 182 698 243 698 c 2,13,-1
 614 698 l 1,14,-1
 614 599 l 1,15,-1
 548 599 l 1,16,-1
 548 -149 l 1,0,-1
EndSplineSet
EndChar

StartChar: periodcentered
Encoding: 183 183 118
Width: 357
Flags: W
LayerCount: 2
Fore
SplineSet
179 217 m 256,0,1
 132 217 132 217 112.5 239 c 128,-1,2
 93 261 93 261 93 293 c 2,3,-1
 93 314 l 2,4,5
 93 344 93 344 112 367 c 128,-1,6
 131 390 131 390 179 390 c 0,7,8
 225 390 225 390 244.5 368 c 128,-1,9
 264 346 264 346 264 314 c 2,10,-1
 264 293 l 2,11,12
 264 262 264 262 245 239.5 c 128,-1,13
 226 217 226 217 179 217 c 256,0,1
EndSplineSet
EndChar

StartChar: cedilla
Encoding: 184 184 119
Width: 600
Flags: W
LayerCount: 2
Fore
SplineSet
314 -211 m 0,0,1
 229 -211 229 -211 194 -168 c 1,2,-1
 239 -114 l 1,3,4
 262 -143 262 -143 304 -143 c 0,5,6
 348 -143 348 -143 348 -117 c 0,7,8
 348 -80 348 -80 252 -75 c 1,9,-1
 273 28 l 1,10,-1
 337 28 l 1,11,-1
 319 -56 l 1,12,-1
 323 -60 l 1,13,14
 345 -53 345 -53 370 -53 c 0,15,16
 398 -53 398 -53 420 -68 c 128,-1,17
 442 -83 442 -83 442 -122 c 0,18,19
 442 -170 442 -170 404.5 -190.5 c 128,-1,20
 367 -211 367 -211 314 -211 c 0,0,1
EndSplineSet
EndChar

StartChar: onesuperior
Encoding: 185 185 120
Width: 317
Flags: W
LayerCount: 2
Fore
SplineSet
240 329 m 1,0,-1
 146 329 l 1,1,-1
 146 613 l 1,2,-1
 66 576 l 1,3,-1
 66 661 l 1,4,-1
 141 698 l 1,5,-1
 240 698 l 1,6,-1
 240 329 l 1,0,-1
EndSplineSet
EndChar

StartChar: ordmasculine
Encoding: 186 186 121
Width: 427
Flags: W
LayerCount: 2
Fore
SplineSet
214 334 m 0,0,1
 152 334 152 334 113.5 358.5 c 128,-1,2
 75 383 75 383 57 426 c 128,-1,3
 39 469 39 469 39 522 c 256,4,5
 39 575 39 575 57 617.5 c 128,-1,6
 75 660 75 660 113.5 685 c 128,-1,7
 152 710 152 710 214 710 c 0,8,9
 275 710 275 710 313.5 685.5 c 128,-1,10
 352 661 352 661 370 618.5 c 128,-1,11
 388 576 388 576 388 522 c 0,12,13
 388 440 388 440 345 387 c 128,-1,14
 302 334 302 334 214 334 c 0,0,1
214 407 m 0,15,16
 256 407 256 407 272.5 432.5 c 128,-1,17
 289 458 289 458 289 502 c 2,18,-1
 289 551 l 2,19,20
 289 629 289 629 224 636 c 2,21,-1
 213 637 l 1,22,23
 172 633 172 633 155.5 610.5 c 128,-1,24
 139 588 139 588 139 542 c 2,25,-1
 139 493 l 2,26,27
 139 407 139 407 214 407 c 0,15,16
EndSplineSet
EndChar

StartChar: guillemotright
Encoding: 187 187 122
Width: 549
Flags: W
LayerCount: 2
Fore
SplineSet
90 55 m 1,0,-1
 50 140 l 1,1,-1
 173 274 l 1,2,-1
 50 409 l 1,3,-1
 90 494 l 1,4,-1
 277 333 l 1,5,-1
 277 216 l 1,6,-1
 90 55 l 1,0,-1
325 55 m 1,7,-1
 285 140 l 1,8,-1
 408 274 l 1,9,-1
 285 409 l 1,10,-1
 325 494 l 1,11,-1
 512 333 l 1,12,-1
 512 216 l 1,13,-1
 325 55 l 1,7,-1
EndSplineSet
EndChar

StartChar: onequarter
Encoding: 188 188 123
Width: 790
Flags: W
LayerCount: 2
Fore
SplineSet
723 0 m 1,0,-1
 632 0 l 1,1,-1
 632 70 l 1,2,-1
 462 70 l 1,3,-1
 462 149 l 1,4,-1
 614 369 l 1,5,-1
 723 369 l 1,6,-1
 723 141 l 1,7,-1
 771 141 l 1,8,-1
 771 70 l 1,9,-1
 723 70 l 1,10,-1
 723 0 l 1,0,-1
632 141 m 1,11,-1
 632 269 l 1,12,-1
 626 269 l 1,13,-1
 536 141 l 1,14,-1
 632 141 l 1,11,-1
177 0 m 1,15,-1
 75 0 l 1,16,-1
 596 698 l 1,17,-1
 697 698 l 1,18,-1
 177 0 l 1,15,-1
240 329 m 1,19,-1
 146 329 l 1,20,-1
 146 613 l 1,21,-1
 66 576 l 1,22,-1
 66 661 l 1,23,-1
 141 698 l 1,24,-1
 240 698 l 1,25,-1
 240 329 l 1,19,-1
EndSplineSet
EndChar

StartChar: onehalf
Encoding: 189 189 124
Width: 806
Flags: W
LayerCount: 2
Fore
SplineSet
779 0 m 1,0,-1
 493 0 l 1,1,-1
 493 82 l 1,2,-1
 606 169 l 2,3,4
 644 196 644 196 658 214.5 c 128,-1,5
 672 233 672 233 672 257 c 0,6,7
 672 295 672 295 622 295 c 0,8,9
 582 295 582 295 566 248 c 1,10,-1
 483 279 l 1,11,12
 494 319 494 319 530.5 347 c 128,-1,13
 567 375 567 375 634 375 c 0,14,15
 706 375 706 375 739.5 342 c 128,-1,16
 773 309 773 309 773 262 c 0,17,18
 773 177 773 177 664 118 c 1,19,-1
 597 77 l 1,20,-1
 779 77 l 1,21,-1
 779 0 l 1,0,-1
172 0 m 1,22,-1
 70 0 l 1,23,-1
 591 698 l 1,24,-1
 692 698 l 1,25,-1
 172 0 l 1,22,-1
240 329 m 1,26,-1
 146 329 l 1,27,-1
 146 613 l 1,28,-1
 66 576 l 1,29,-1
 66 661 l 1,30,-1
 141 698 l 1,31,-1
 240 698 l 1,32,-1
 240 329 l 1,26,-1
EndSplineSet
EndChar

StartChar: threequarters
Encoding: 190 190 125
Width: 828
Flags: W
LayerCount: 2
Fore
SplineSet
159 323 m 0,0,1
 47 323 47 323 8 396 c 1,2,-1
 78 450 l 1,3,4
 104 396 104 396 159 396 c 0,5,6
 214 399 214 399 214 442 c 0,7,8
 214 480 214 480 150 480 c 2,9,-1
 116 480 l 1,10,-1
 116 556 l 1,11,-1
 152 556 l 2,12,13
 181 556 181 556 194 565 c 128,-1,14
 207 574 207 574 207 587 c 0,15,16
 207 631 207 631 158 631 c 0,17,18
 113 631 113 631 78 587 c 1,19,-1
 19 641 l 1,20,21
 63 704 63 704 161 704 c 0,22,23
 223 704 223 704 265 679 c 128,-1,24
 307 654 307 654 307 604 c 0,25,26
 307 533 307 533 231 522 c 1,27,-1
 231 519 l 1,28,29
 313 506 313 506 313 433 c 0,30,31
 313 377 313 377 267.5 350 c 128,-1,32
 222 323 222 323 159 323 c 0,0,1
215 0 m 1,33,-1
 113 0 l 1,34,-1
 634 698 l 1,35,-1
 735 698 l 1,36,-1
 215 0 l 1,33,-1
761 0 m 1,37,-1
 670 0 l 1,38,-1
 670 70 l 1,39,-1
 500 70 l 1,40,-1
 500 149 l 1,41,-1
 652 369 l 1,42,-1
 761 369 l 1,43,-1
 761 141 l 1,44,-1
 809 141 l 1,45,-1
 809 70 l 1,46,-1
 761 70 l 1,47,-1
 761 0 l 1,37,-1
670 141 m 1,48,-1
 670 269 l 1,49,-1
 664 269 l 1,50,-1
 574 141 l 1,51,-1
 670 141 l 1,48,-1
EndSplineSet
EndChar

StartChar: questiondown
Encoding: 191 191 126
Width: 489
Flags: W
LayerCount: 2
Fore
SplineSet
256 -187 m 0,0,1
 147 -187 147 -187 88 -128 c 128,-1,2
 29 -69 29 -69 29 16 c 0,3,4
 29 75 29 75 54.5 117 c 128,-1,5
 80 159 80 159 120.5 183.5 c 128,-1,6
 161 208 161 208 206 216 c 1,7,-1
 206 295 l 1,8,-1
 334 295 l 1,9,-1
 334 140 l 1,10,11
 172 137 172 137 172 28 c 0,12,13
 172 1 172 1 176.5 -16.5 c 128,-1,14
 181 -34 181 -34 196 -48 c 0,15,16
 220 -71 220 -71 261 -71 c 0,17,18
 307 -71 307 -71 332.5 -44.5 c 128,-1,19
 358 -18 358 -18 367 20 c 1,20,-1
 480 -26 l 1,21,22
 453 -111 453 -111 391 -149 c 128,-1,23
 329 -187 329 -187 256 -187 c 0,0,1
268 368 m 0,24,25
 222 368 222 368 203 389.5 c 128,-1,26
 184 411 184 411 184 441 c 2,27,-1
 184 463 l 2,28,29
 184 535 184 535 268 535 c 0,30,31
 314 535 314 535 333 513.5 c 128,-1,32
 352 492 352 492 352 463 c 2,33,-1
 352 441 l 2,34,35
 352 368 352 368 268 368 c 0,24,25
EndSplineSet
EndChar

StartChar: Agrave
Encoding: 192 192 127
Width: 677
Flags: W
LayerCount: 2
Fore
SplineSet
657 0 m 1,0,-1
 512 0 l 1,1,-1
 458 174 l 1,2,-1
 215 174 l 1,3,-1
 162 0 l 1,4,-1
 21 0 l 1,5,-1
 253 698 l 1,6,-1
 426 698 l 1,7,-1
 657 0 l 1,0,-1
424 292 m 1,8,-1
 338 571 l 1,9,-1
 333 571 l 1,10,-1
 248 292 l 1,11,-1
 424 292 l 1,8,-1
322 743 m 1,12,-1
 193 916 l 1,13,-1
 307 972 l 1,14,-1
 403 782 l 1,15,-1
 322 743 l 1,12,-1
EndSplineSet
EndChar

StartChar: Aacute
Encoding: 193 193 128
Width: 677
Flags: W
LayerCount: 2
Fore
SplineSet
657 0 m 1,0,-1
 512 0 l 1,1,-1
 458 174 l 1,2,-1
 215 174 l 1,3,-1
 162 0 l 1,4,-1
 21 0 l 1,5,-1
 253 698 l 1,6,-1
 426 698 l 1,7,-1
 657 0 l 1,0,-1
424 292 m 1,8,-1
 338 571 l 1,9,-1
 333 571 l 1,10,-1
 248 292 l 1,11,-1
 424 292 l 1,8,-1
350 743 m 1,12,-1
 269 782 l 1,13,-1
 365 972 l 1,14,-1
 479 916 l 1,15,-1
 350 743 l 1,12,-1
EndSplineSet
EndChar

StartChar: Acircumflex
Encoding: 194 194 129
Width: 677
Flags: W
LayerCount: 2
Fore
SplineSet
657 0 m 1,0,-1
 512 0 l 1,1,-1
 458 174 l 1,2,-1
 215 174 l 1,3,-1
 162 0 l 1,4,-1
 21 0 l 1,5,-1
 253 698 l 1,6,-1
 426 698 l 1,7,-1
 657 0 l 1,0,-1
424 292 m 1,8,-1
 338 571 l 1,9,-1
 333 571 l 1,10,-1
 248 292 l 1,11,-1
 424 292 l 1,8,-1
456 743 m 1,12,-1
 336 859 l 1,13,-1
 216 743 l 1,14,-1
 148 796 l 1,15,-1
 276 952 l 1,16,-1
 396 952 l 1,17,-1
 524 796 l 1,18,-1
 456 743 l 1,12,-1
EndSplineSet
EndChar

StartChar: Atilde
Encoding: 195 195 130
Width: 677
Flags: W
LayerCount: 2
Fore
SplineSet
657 0 m 1,0,-1
 512 0 l 1,1,-1
 458 174 l 1,2,-1
 215 174 l 1,3,-1
 162 0 l 1,4,-1
 21 0 l 1,5,-1
 253 698 l 1,6,-1
 426 698 l 1,7,-1
 657 0 l 1,0,-1
424 292 m 1,8,-1
 338 571 l 1,9,-1
 333 571 l 1,10,-1
 248 292 l 1,11,-1
 424 292 l 1,8,-1
411 766 m 0,12,13
 388 766 388 766 371 771 c 0,14,15
 362 774 362 774 326 790 c 0,16,17
 306 799 306 799 291 804 c 128,-1,18
 276 809 276 809 257 809 c 0,19,20
 224 809 224 809 199 784 c 1,21,-1
 150 847 l 1,22,23
 189 909 189 909 261 909 c 0,24,25
 291 909 291 909 314.5 897 c 128,-1,26
 338 885 338 885 363 877 c 0,27,28
 390 865 390 865 415 865 c 0,29,30
 448 865 448 865 473 890 c 1,31,-1
 522 828 l 1,32,33
 484 766 484 766 411 766 c 0,12,13
EndSplineSet
EndChar

StartChar: Adieresis
Encoding: 196 196 131
Width: 677
Flags: W
LayerCount: 2
Fore
SplineSet
657 0 m 1,0,-1
 512 0 l 1,1,-1
 458 174 l 1,2,-1
 215 174 l 1,3,-1
 162 0 l 1,4,-1
 21 0 l 1,5,-1
 253 698 l 1,6,-1
 426 698 l 1,7,-1
 657 0 l 1,0,-1
424 292 m 1,8,-1
 338 571 l 1,9,-1
 333 571 l 1,10,-1
 248 292 l 1,11,-1
 424 292 l 1,8,-1
229 766 m 0,12,13
 155 766 155 766 155 826 c 2,14,-1
 155 849 l 2,15,16
 155 907 155 907 229 909 c 0,17,18
 301 909 301 909 304 849 c 2,19,-1
 304 826 l 2,20,21
 304 766 304 766 229 766 c 0,12,13
443 766 m 0,22,23
 368 766 368 766 368 826 c 2,24,-1
 368 849 l 2,25,26
 368 907 368 907 443 909 c 0,27,28
 517 909 517 909 517 849 c 2,29,-1
 517 826 l 2,30,31
 517 766 517 766 443 766 c 0,22,23
EndSplineSet
EndChar

StartChar: Aring
Encoding: 197 197 132
Width: 677
Flags: W
LayerCount: 2
Fore
SplineSet
657 0 m 1,0,-1
 512 0 l 1,1,-1
 458 174 l 1,2,-1
 215 174 l 1,3,-1
 162 0 l 1,4,-1
 21 0 l 1,5,-1
 253 698 l 1,6,-1
 426 698 l 1,7,-1
 657 0 l 1,0,-1
424 292 m 1,8,-1
 338 571 l 1,9,-1
 333 571 l 1,10,-1
 248 292 l 1,11,-1
 424 292 l 1,8,-1
336 724 m 0,12,13
 279 724 279 724 236.5 761.5 c 128,-1,14
 194 799 194 799 194 862 c 256,15,16
 194 925 194 925 237 962 c 128,-1,17
 280 999 280 999 336 999 c 256,18,19
 392 999 392 999 435 962 c 128,-1,20
 478 925 478 925 478 862 c 256,21,22
 478 799 478 799 434.5 761.5 c 128,-1,23
 391 724 391 724 336 724 c 0,12,13
336 794 m 0,24,25
 388 796 388 796 388 846 c 2,26,-1
 388 878 l 2,27,28
 386 929 386 929 336 929 c 0,29,30
 308 929 308 929 296 914 c 128,-1,31
 284 899 284 899 284 878 c 2,32,-1
 284 846 l 2,33,34
 284 794 284 794 336 794 c 0,24,25
EndSplineSet
EndChar

StartChar: AE
Encoding: 198 198 133
Width: 956
Flags: W
LayerCount: 2
Fore
SplineSet
900 0 m 1,0,-1
 434 0 l 1,1,-1
 434 173 l 1,2,-1
 222 173 l 1,3,-1
 139 0 l 1,4,-1
 0 0 l 1,5,-1
 344 698 l 1,6,-1
 900 698 l 1,7,-1
 900 575 l 1,8,-1
 572 575 l 1,9,-1
 572 415 l 1,10,-1
 859 415 l 1,11,-1
 859 292 l 1,12,-1
 572 292 l 1,13,-1
 572 123 l 1,14,-1
 900 123 l 1,15,-1
 900 0 l 1,0,-1
434 292 m 1,16,-1
 434 575 l 1,17,-1
 413 575 l 1,18,-1
 278 292 l 1,19,-1
 434 292 l 1,16,-1
EndSplineSet
EndChar

StartChar: Ccedilla
Encoding: 199 199 134
Width: 645
Flags: W
LayerCount: 2
Fore
SplineSet
348 -211 m 0,0,1
 264 -211 264 -211 229 -168 c 1,2,-1
 274 -114 l 1,3,4
 295 -143 295 -143 339 -143 c 256,5,6
 383 -143 383 -143 383 -117 c 0,7,8
 383 -82 383 -82 287 -75 c 1,9,-1
 300 -8 l 1,10,11
 185 8 185 8 118.5 94.5 c 128,-1,12
 52 181 52 181 52 346 c 0,13,14
 52 525 52 525 135.5 617.5 c 128,-1,15
 219 710 219 710 355 710 c 0,16,17
 450 710 450 710 512.5 669.5 c 128,-1,18
 575 629 575 629 612 548 c 1,19,-1
 493 485 l 1,20,21
 465 586 465 586 355 586 c 0,22,23
 289 586 289 586 244 543.5 c 128,-1,24
 199 501 199 501 199 404 c 2,25,-1
 199 294 l 2,26,27
 199 197 199 197 244 154.5 c 128,-1,28
 289 112 289 112 355 112 c 0,29,30
 464 112 464 112 502 220 c 1,31,-1
 615 153 l 1,32,33
 540 -8 540 -8 363 -12 c 1,34,-1
 354 -56 l 1,35,-1
 358 -60 l 1,36,37
 379 -53 379 -53 404 -53 c 0,38,39
 432 -53 432 -53 454 -68 c 128,-1,40
 476 -83 476 -83 476 -122 c 0,41,42
 476 -171 476 -171 438 -191 c 128,-1,43
 400 -211 400 -211 348 -211 c 0,0,1
EndSplineSet
EndChar

StartChar: Egrave
Encoding: 200 200 135
Width: 602
Flags: W
LayerCount: 2
Fore
SplineSet
546 0 m 1,0,-1
 80 0 l 1,1,-1
 80 698 l 1,2,-1
 546 698 l 1,3,-1
 546 575 l 1,4,-1
 219 575 l 1,5,-1
 219 415 l 1,6,-1
 505 415 l 1,7,-1
 505 292 l 1,8,-1
 219 292 l 1,9,-1
 219 123 l 1,10,-1
 546 123 l 1,11,-1
 546 0 l 1,0,-1
299 743 m 1,12,-1
 170 916 l 1,13,-1
 284 972 l 1,14,-1
 380 782 l 1,15,-1
 299 743 l 1,12,-1
EndSplineSet
EndChar

StartChar: Eacute
Encoding: 201 201 136
Width: 602
Flags: W
LayerCount: 2
Fore
SplineSet
546 0 m 1,0,-1
 80 0 l 1,1,-1
 80 698 l 1,2,-1
 546 698 l 1,3,-1
 546 575 l 1,4,-1
 219 575 l 1,5,-1
 219 415 l 1,6,-1
 505 415 l 1,7,-1
 505 292 l 1,8,-1
 219 292 l 1,9,-1
 219 123 l 1,10,-1
 546 123 l 1,11,-1
 546 0 l 1,0,-1
327 743 m 1,12,-1
 246 782 l 1,13,-1
 342 972 l 1,14,-1
 456 916 l 1,15,-1
 327 743 l 1,12,-1
EndSplineSet
EndChar

StartChar: Ecircumflex
Encoding: 202 202 137
Width: 602
Flags: W
LayerCount: 2
Fore
SplineSet
546 0 m 1,0,-1
 80 0 l 1,1,-1
 80 698 l 1,2,-1
 546 698 l 1,3,-1
 546 575 l 1,4,-1
 219 575 l 1,5,-1
 219 415 l 1,6,-1
 505 415 l 1,7,-1
 505 292 l 1,8,-1
 219 292 l 1,9,-1
 219 123 l 1,10,-1
 546 123 l 1,11,-1
 546 0 l 1,0,-1
433 743 m 1,12,-1
 313 859 l 1,13,-1
 193 743 l 1,14,-1
 125 796 l 1,15,-1
 253 952 l 1,16,-1
 373 952 l 1,17,-1
 501 796 l 1,18,-1
 433 743 l 1,12,-1
EndSplineSet
EndChar

StartChar: Edieresis
Encoding: 203 203 138
Width: 602
Flags: W
LayerCount: 2
Fore
SplineSet
546 0 m 1,0,-1
 80 0 l 1,1,-1
 80 698 l 1,2,-1
 546 698 l 1,3,-1
 546 575 l 1,4,-1
 219 575 l 1,5,-1
 219 415 l 1,6,-1
 505 415 l 1,7,-1
 505 292 l 1,8,-1
 219 292 l 1,9,-1
 219 123 l 1,10,-1
 546 123 l 1,11,-1
 546 0 l 1,0,-1
206 766 m 0,12,13
 132 766 132 766 132 826 c 2,14,-1
 132 849 l 2,15,16
 132 907 132 907 206 909 c 0,17,18
 278 909 278 909 281 849 c 2,19,-1
 281 826 l 2,20,21
 281 766 281 766 206 766 c 0,12,13
420 766 m 0,22,23
 345 766 345 766 345 826 c 2,24,-1
 345 849 l 2,25,26
 345 907 345 907 420 909 c 0,27,28
 494 909 494 909 494 849 c 2,29,-1
 494 826 l 2,30,31
 494 766 494 766 420 766 c 0,22,23
EndSplineSet
EndChar

StartChar: Eth
Encoding: 208 208 143
Width: 697
Flags: W
LayerCount: 2
Fore
SplineSet
342 0 m 2,0,-1
 85 0 l 1,1,-1
 85 305 l 1,2,-1
 9 305 l 1,3,-1
 9 409 l 1,4,-1
 85 409 l 1,5,-1
 85 698 l 1,6,-1
 342 698 l 2,7,8
 446 698 446 698 513 653.5 c 128,-1,9
 580 609 580 609 612.5 530.5 c 128,-1,10
 645 452 645 452 645 349 c 0,11,12
 645 231 645 231 606 153.5 c 128,-1,13
 567 76 567 76 498.5 38 c 128,-1,14
 430 0 430 0 342 0 c 2,0,-1
342 123 m 2,15,16
 412 123 412 123 455 163 c 128,-1,17
 498 203 498 203 498 294 c 2,18,-1
 498 404 l 2,19,20
 498 495 498 495 455 535 c 128,-1,21
 412 575 412 575 342 575 c 2,22,-1
 224 575 l 1,23,-1
 224 409 l 1,24,-1
 346 409 l 1,25,-1
 346 305 l 1,26,-1
 224 305 l 1,27,-1
 224 123 l 1,28,-1
 342 123 l 2,15,16
EndSplineSet
EndChar

StartChar: Ntilde
Encoding: 209 209 144
Width: 721
Flags: W
LayerCount: 2
Fore
SplineSet
641 0 m 1,0,-1
 488 0 l 1,1,2
 276 362 276 362 251 416 c 2,3,-1
 214 491 l 1,4,-1
 211 491 l 1,5,-1
 211 0 l 1,6,-1
 80 0 l 1,7,-1
 80 698 l 1,8,-1
 233 698 l 1,9,-1
 421 375 l 1,10,-1
 506 207 l 1,11,-1
 509 207 l 1,12,-1
 509 698 l 1,13,-1
 641 698 l 1,14,-1
 641 0 l 1,0,-1
435 766 m 0,15,16
 414 766 414 766 399 770.5 c 128,-1,17
 384 775 384 775 368 782 c 2,18,-1
 315 804 l 2,19,20
 299 809 299 809 281 809 c 0,21,22
 246 809 246 809 222 784 c 1,23,-1
 174 847 l 1,24,25
 213 909 213 909 284 909 c 0,26,27
 315 909 315 909 339 897 c 0,28,29
 401 865 401 865 438 865 c 0,30,31
 471 865 471 865 497 890 c 1,32,-1
 545 828 l 1,33,34
 507 766 507 766 435 766 c 0,15,16
EndSplineSet
EndChar

StartChar: Ograve
Encoding: 210 210 145
Width: 713
Flags: W
LayerCount: 2
Fore
SplineSet
357 -12 m 0,0,1
 267 -12 267 -12 198.5 28 c 128,-1,2
 130 68 130 68 91 148.5 c 128,-1,3
 52 229 52 229 52 349 c 0,4,5
 52 526 52 526 136 618 c 128,-1,6
 220 710 220 710 357 710 c 0,7,8
 460 710 460 710 527.5 664 c 128,-1,9
 595 618 595 618 628.5 536.5 c 128,-1,10
 662 455 662 455 662 349 c 0,11,12
 662 227 662 227 622.5 147 c 128,-1,13
 583 67 583 67 514 27.5 c 128,-1,14
 445 -12 445 -12 357 -12 c 0,0,1
357 112 m 0,15,16
 514 112 514 112 514 313 c 2,17,-1
 514 402 l 2,18,19
 514 498 514 498 469 542 c 128,-1,20
 424 586 424 586 357 586 c 0,21,22
 199 586 199 586 199 385 c 2,23,-1
 199 296 l 2,24,25
 199 201 199 201 244 156.5 c 128,-1,26
 289 112 289 112 357 112 c 0,15,16
342 743 m 1,27,-1
 214 916 l 1,28,-1
 327 972 l 1,29,-1
 424 782 l 1,30,-1
 342 743 l 1,27,-1
EndSplineSet
EndChar

StartChar: Oacute
Encoding: 211 211 146
Width: 713
Flags: W
LayerCount: 2
Fore
SplineSet
357 -12 m 0,0,1
 267 -12 267 -12 198.5 28 c 128,-1,2
 130 68 130 68 91 148.5 c 128,-1,3
 52 229 52 229 52 349 c 0,4,5
 52 526 52 526 136 618 c 128,-1,6
 220 710 220 710 357 710 c 0,7,8
 460 710 460 710 527.5 664 c 128,-1,9
 595 618 595 618 628.5 536.5 c 128,-1,10
 662 455 662 455 662 349 c 0,11,12
 662 227 662 227 622.5 147 c 128,-1,13
 583 67 583 67 514 27.5 c 128,-1,14
 445 -12 445 -12 357 -12 c 0,0,1
357 112 m 0,15,16
 514 112 514 112 514 313 c 2,17,-1
 514 402 l 2,18,19
 514 498 514 498 469 542 c 128,-1,20
 424 586 424 586 357 586 c 0,21,22
 199 586 199 586 199 385 c 2,23,-1
 199 296 l 2,24,25
 199 201 199 201 244 156.5 c 128,-1,26
 289 112 289 112 357 112 c 0,15,16
371 743 m 1,27,-1
 290 782 l 1,28,-1
 386 972 l 1,29,-1
 500 916 l 1,30,-1
 371 743 l 1,27,-1
EndSplineSet
EndChar

StartChar: Ocircumflex
Encoding: 212 212 147
Width: 713
Flags: W
LayerCount: 2
Fore
SplineSet
357 -12 m 0,0,1
 267 -12 267 -12 198.5 28 c 128,-1,2
 130 68 130 68 91 148.5 c 128,-1,3
 52 229 52 229 52 349 c 0,4,5
 52 526 52 526 136 618 c 128,-1,6
 220 710 220 710 357 710 c 0,7,8
 460 710 460 710 527.5 664 c 128,-1,9
 595 618 595 618 628.5 536.5 c 128,-1,10
 662 455 662 455 662 349 c 0,11,12
 662 227 662 227 622.5 147 c 128,-1,13
 583 67 583 67 514 27.5 c 128,-1,14
 445 -12 445 -12 357 -12 c 0,0,1
357 112 m 0,15,16
 514 112 514 112 514 313 c 2,17,-1
 514 402 l 2,18,19
 514 498 514 498 469 542 c 128,-1,20
 424 586 424 586 357 586 c 0,21,22
 199 586 199 586 199 385 c 2,23,-1
 199 296 l 2,24,25
 199 201 199 201 244 156.5 c 128,-1,26
 289 112 289 112 357 112 c 0,15,16
477 743 m 1,27,-1
 357 859 l 1,28,-1
 236 743 l 1,29,-1
 169 796 l 1,30,-1
 297 952 l 1,31,-1
 416 952 l 1,32,-1
 544 796 l 1,33,-1
 477 743 l 1,27,-1
EndSplineSet
EndChar

StartChar: Otilde
Encoding: 213 213 148
Width: 713
Flags: W
LayerCount: 2
Fore
SplineSet
357 -12 m 0,0,1
 267 -12 267 -12 198.5 28 c 128,-1,2
 130 68 130 68 91 148.5 c 128,-1,3
 52 229 52 229 52 349 c 0,4,5
 52 526 52 526 136 618 c 128,-1,6
 220 710 220 710 357 710 c 0,7,8
 460 710 460 710 527.5 664 c 128,-1,9
 595 618 595 618 628.5 536.5 c 128,-1,10
 662 455 662 455 662 349 c 0,11,12
 662 227 662 227 622.5 147 c 128,-1,13
 583 67 583 67 514 27.5 c 128,-1,14
 445 -12 445 -12 357 -12 c 0,0,1
357 112 m 0,15,16
 514 112 514 112 514 313 c 2,17,-1
 514 402 l 2,18,19
 514 498 514 498 469 542 c 128,-1,20
 424 586 424 586 357 586 c 0,21,22
 199 586 199 586 199 385 c 2,23,-1
 199 296 l 2,24,25
 199 201 199 201 244 156.5 c 128,-1,26
 289 112 289 112 357 112 c 0,15,16
432 766 m 0,27,28
 411 766 411 766 396 770.5 c 128,-1,29
 381 775 381 775 365 782 c 2,30,-1
 312 804 l 2,31,32
 296 809 296 809 278 809 c 0,33,34
 243 809 243 809 219 784 c 1,35,-1
 171 847 l 1,36,37
 210 909 210 909 281 909 c 0,38,39
 312 909 312 909 336 897 c 0,40,41
 398 865 398 865 435 865 c 0,42,43
 468 865 468 865 494 890 c 1,44,-1
 542 828 l 1,45,46
 504 766 504 766 432 766 c 0,27,28
EndSplineSet
EndChar

StartChar: Odieresis
Encoding: 214 214 149
Width: 713
Flags: W
LayerCount: 2
Fore
SplineSet
357 -12 m 0,0,1
 267 -12 267 -12 198.5 28 c 128,-1,2
 130 68 130 68 91 148.5 c 128,-1,3
 52 229 52 229 52 349 c 0,4,5
 52 526 52 526 136 618 c 128,-1,6
 220 710 220 710 357 710 c 0,7,8
 460 710 460 710 527.5 664 c 128,-1,9
 595 618 595 618 628.5 536.5 c 128,-1,10
 662 455 662 455 662 349 c 0,11,12
 662 227 662 227 622.5 147 c 128,-1,13
 583 67 583 67 514 27.5 c 128,-1,14
 445 -12 445 -12 357 -12 c 0,0,1
357 112 m 0,15,16
 514 112 514 112 514 313 c 2,17,-1
 514 402 l 2,18,19
 514 498 514 498 469 542 c 128,-1,20
 424 586 424 586 357 586 c 0,21,22
 199 586 199 586 199 385 c 2,23,-1
 199 296 l 2,24,25
 199 201 199 201 244 156.5 c 128,-1,26
 289 112 289 112 357 112 c 0,15,16
250 766 m 256,27,28
 176 766 176 766 176 826 c 2,29,-1
 176 849 l 2,30,31
 176 907 176 907 250 909 c 0,32,33
 324 909 324 909 324 849 c 2,34,-1
 324 826 l 2,35,36
 324 766 324 766 250 766 c 256,27,28
463 766 m 0,37,38
 389 766 389 766 389 826 c 2,39,-1
 389 849 l 2,40,41
 389 907 389 907 463 909 c 0,42,43
 535 909 535 909 538 849 c 2,44,-1
 538 826 l 2,45,46
 538 766 538 766 463 766 c 0,37,38
EndSplineSet
EndChar

StartChar: multiply
Encoding: 215 215 150
Width: 600
Flags: W
LayerCount: 2
Fore
SplineSet
443 75 m 1,0,-1
 300 224 l 1,1,-1
 157 75 l 1,2,-1
 81 151 l 1,3,-1
 224 300 l 1,4,-1
 81 449 l 1,5,-1
 157 525 l 1,6,-1
 300 376 l 1,7,-1
 443 525 l 1,8,-1
 519 449 l 1,9,-1
 376 300 l 1,10,-1
 519 151 l 1,11,-1
 443 75 l 1,0,-1
EndSplineSet
EndChar

StartChar: Oslash
Encoding: 216 216 151
Width: 713
Flags: W
LayerCount: 2
Fore
SplineSet
148 -54 m 1,0,-1
 63 1 l 1,1,-1
 125 92 l 1,2,3
 52 181 52 181 52 349 c 0,4,5
 52 526 52 526 136 618 c 128,-1,6
 220 710 220 710 357 710 c 0,7,8
 444 710 444 710 511 673 c 1,9,-1
 565 752 l 1,10,-1
 651 697 l 1,11,-1
 588 606 l 1,12,13
 662 515 662 515 662 349 c 0,14,15
 662 227 662 227 622.5 147 c 128,-1,16
 583 67 583 67 514 27.5 c 128,-1,17
 445 -12 445 -12 357 -12 c 256,18,19
 269 -12 269 -12 202 25 c 1,20,-1
 148 -54 l 1,0,-1
209 201 m 1,21,-1
 447 570 l 1,22,23
 412 595 412 595 357 595 c 0,24,25
 272 591 272 591 233 540.5 c 128,-1,26
 194 490 194 490 194 405 c 2,27,-1
 194 293 l 2,28,29
 194 241 194 241 209 201 c 1,21,-1
357 103 m 0,30,31
 520 110 520 110 520 293 c 2,32,-1
 520 405 l 2,33,34
 520 454 520 454 504 497 c 1,35,-1
 266 128 l 1,36,37
 303 103 303 103 357 103 c 0,30,31
EndSplineSet
EndChar

StartChar: Ugrave
Encoding: 217 217 152
Width: 691
Flags: W
LayerCount: 2
Fore
SplineSet
346 -12 m 0,0,1
 198 -12 198 -12 137 59.5 c 128,-1,2
 76 131 76 131 76 286 c 2,3,-1
 76 698 l 1,4,-1
 212 698 l 1,5,-1
 212 269 l 2,6,7
 212 185 212 185 244.5 148.5 c 128,-1,8
 277 112 277 112 346 112 c 0,9,10
 417 112 417 112 448.5 150.5 c 128,-1,11
 480 189 480 189 480 269 c 2,12,-1
 480 698 l 1,13,-1
 615 698 l 1,14,-1
 615 286 l 2,15,16
 615 122 615 122 550 55 c 128,-1,17
 485 -12 485 -12 346 -12 c 0,0,1
331 743 m 1,18,-1
 203 916 l 1,19,-1
 316 972 l 1,20,-1
 413 782 l 1,21,-1
 331 743 l 1,18,-1
EndSplineSet
EndChar

StartChar: Uacute
Encoding: 218 218 153
Width: 691
Flags: W
LayerCount: 2
Fore
SplineSet
346 -12 m 0,0,1
 198 -12 198 -12 137 59.5 c 128,-1,2
 76 131 76 131 76 286 c 2,3,-1
 76 698 l 1,4,-1
 212 698 l 1,5,-1
 212 269 l 2,6,7
 212 185 212 185 244.5 148.5 c 128,-1,8
 277 112 277 112 346 112 c 0,9,10
 417 112 417 112 448.5 150.5 c 128,-1,11
 480 189 480 189 480 269 c 2,12,-1
 480 698 l 1,13,-1
 615 698 l 1,14,-1
 615 286 l 2,15,16
 615 122 615 122 550 55 c 128,-1,17
 485 -12 485 -12 346 -12 c 0,0,1
360 743 m 1,18,-1
 279 782 l 1,19,-1
 375 972 l 1,20,-1
 489 916 l 1,21,-1
 360 743 l 1,18,-1
EndSplineSet
EndChar

StartChar: Ucircumflex
Encoding: 219 219 154
Width: 691
Flags: W
LayerCount: 2
Fore
SplineSet
346 -12 m 0,0,1
 198 -12 198 -12 137 59.5 c 128,-1,2
 76 131 76 131 76 286 c 2,3,-1
 76 698 l 1,4,-1
 212 698 l 1,5,-1
 212 269 l 2,6,7
 212 185 212 185 244.5 148.5 c 128,-1,8
 277 112 277 112 346 112 c 0,9,10
 417 112 417 112 448.5 150.5 c 128,-1,11
 480 189 480 189 480 269 c 2,12,-1
 480 698 l 1,13,-1
 615 698 l 1,14,-1
 615 286 l 2,15,16
 615 122 615 122 550 55 c 128,-1,17
 485 -12 485 -12 346 -12 c 0,0,1
466 743 m 1,18,-1
 346 859 l 1,19,-1
 225 743 l 1,20,-1
 158 796 l 1,21,-1
 286 952 l 1,22,-1
 405 952 l 1,23,-1
 533 796 l 1,24,-1
 466 743 l 1,18,-1
EndSplineSet
EndChar

StartChar: Udieresis
Encoding: 220 220 155
Width: 691
Flags: W
LayerCount: 2
Fore
SplineSet
346 -12 m 0,0,1
 198 -12 198 -12 137 59.5 c 128,-1,2
 76 131 76 131 76 286 c 2,3,-1
 76 698 l 1,4,-1
 212 698 l 1,5,-1
 212 269 l 2,6,7
 212 185 212 185 244.5 148.5 c 128,-1,8
 277 112 277 112 346 112 c 0,9,10
 417 112 417 112 448.5 150.5 c 128,-1,11
 480 189 480 189 480 269 c 2,12,-1
 480 698 l 1,13,-1
 615 698 l 1,14,-1
 615 286 l 2,15,16
 615 122 615 122 550 55 c 128,-1,17
 485 -12 485 -12 346 -12 c 0,0,1
239 766 m 256,18,19
 165 766 165 766 165 826 c 2,20,-1
 165 849 l 2,21,22
 165 907 165 907 239 909 c 0,23,24
 313 909 313 909 313 849 c 2,25,-1
 313 826 l 2,26,27
 313 766 313 766 239 766 c 256,18,19
452 766 m 0,28,29
 378 766 378 766 378 826 c 2,30,-1
 378 849 l 2,31,32
 378 907 378 907 452 909 c 0,33,34
 524 909 524 909 527 849 c 2,35,-1
 527 826 l 2,36,37
 527 766 527 766 452 766 c 0,28,29
EndSplineSet
EndChar

StartChar: Yacute
Encoding: 221 221 156
Width: 638
Flags: W
LayerCount: 2
Fore
SplineSet
389 0 m 1,0,-1
 249 0 l 1,1,-1
 249 274 l 1,2,-1
 10 698 l 1,3,-1
 166 698 l 1,4,-1
 323 409 l 1,5,-1
 325 409 l 1,6,-1
 477 698 l 1,7,-1
 629 698 l 1,8,-1
 389 275 l 1,9,-1
 389 0 l 1,0,-1
334 743 m 1,10,-1
 253 782 l 1,11,-1
 349 972 l 1,12,-1
 463 916 l 1,13,-1
 334 743 l 1,10,-1
EndSplineSet
EndChar

StartChar: Thorn
Encoding: 222 222 157
Width: 646
Flags: W
LayerCount: 2
Fore
SplineSet
219 0 m 1,0,-1
 80 0 l 1,1,-1
 80 698 l 1,2,-1
 219 698 l 1,3,-1
 219 573 l 1,4,-1
 400 573 l 2,5,6
 469 573 469 573 515.5 543.5 c 128,-1,7
 562 514 562 514 585.5 464.5 c 128,-1,8
 609 415 609 415 609 355 c 0,9,10
 609 258 609 258 552.5 197 c 128,-1,11
 496 136 496 136 400 136 c 2,12,-1
 219 136 l 1,13,-1
 219 0 l 1,0,-1
386 257 m 2,14,15
 465 259 465 259 465 332 c 2,16,-1
 465 377 l 2,17,18
 465 418 465 418 442 435 c 128,-1,19
 419 452 419 452 386 452 c 2,20,-1
 219 452 l 1,21,-1
 219 257 l 1,22,-1
 386 257 l 2,14,15
EndSplineSet
EndChar

StartChar: germandbls
Encoding: 223 223 158
Width: 682
Flags: W
LayerCount: 2
Fore
SplineSet
465 -12 m 0,0,1
 342 -12 342 -12 281 65 c 1,2,-1
 359 143 l 1,3,4
 403 90 403 90 465 90 c 0,5,6
 532 90 532 90 532 152 c 0,7,8
 532 196 532 196 485 212 c 2,9,-1
 461 221 l 2,10,11
 409 240 409 240 378 256 c 128,-1,12
 347 272 347 272 331.5 299.5 c 128,-1,13
 316 327 316 327 316 374 c 0,14,15
 316 497 316 497 464 528 c 1,16,17
 464 650 464 650 352 650 c 0,18,19
 281 650 281 650 257 614 c 128,-1,20
 233 578 233 578 233 510 c 2,21,-1
 233 0 l 1,22,-1
 98 0 l 1,23,-1
 98 417 l 1,24,-1
 23 417 l 1,25,-1
 23 523 l 1,26,-1
 98 523 l 1,27,28
 98 599 98 599 130.5 650 c 128,-1,29
 163 701 163 701 219 726.5 c 128,-1,30
 275 752 275 752 345 752 c 0,31,32
 460 752 460 752 524.5 690 c 128,-1,33
 589 628 589 628 589 529 c 2,34,-1
 589 439 l 1,35,-1
 534 439 l 2,36,37
 440 439 440 439 440 391 c 0,38,39
 440 360 440 360 456 346.5 c 128,-1,40
 472 333 472 333 521 320 c 0,41,42
 557 309 557 309 582 298 c 0,43,44
 657 263 657 263 657 168 c 0,45,46
 657 107 657 107 630.5 67 c 128,-1,47
 604 27 604 27 560.5 7.5 c 128,-1,48
 517 -12 517 -12 465 -12 c 0,0,1
EndSplineSet
EndChar

StartChar: agrave
Encoding: 224 224 159
Width: 548
Flags: W
LayerCount: 2
Fore
SplineSet
252 580 m 1,0,-1
 123 753 l 1,1,-1
 237 809 l 1,2,-1
 333 620 l 1,3,-1
 252 580 l 1,0,-1
201 -12 m 0,4,5
 117 -12 117 -12 76.5 31.5 c 128,-1,6
 36 75 36 75 36 142 c 0,7,8
 36 227 36 227 97 265 c 128,-1,9
 158 303 158 303 260 303 c 2,10,-1
 347 303 l 1,11,-1
 347 340 l 2,12,13
 347 428 347 428 253 428 c 0,14,15
 209 428 209 428 182 410 c 128,-1,16
 155 392 155 392 136 363 c 1,17,-1
 56 435 l 1,18,19
 117 535 117 535 263 535 c 0,20,21
 482 535 482 535 482 347 c 2,22,-1
 482 0 l 1,23,-1
 360 0 l 1,24,-1
 360 90 l 1,25,-1
 354 90 l 1,26,27
 337 35 337 35 296 11.5 c 128,-1,28
 255 -12 255 -12 201 -12 c 0,4,5
248 84 m 0,29,30
 285 84 285 84 316 99.5 c 128,-1,31
 347 115 347 115 347 157 c 2,32,-1
 347 224 l 1,33,-1
 277 224 l 2,34,35
 172 224 172 224 172 164 c 2,36,-1
 172 145 l 2,37,38
 172 84 172 84 248 84 c 0,29,30
EndSplineSet
EndChar

StartChar: aacute
Encoding: 225 225 160
Width: 548
Flags: W
LayerCount: 2
Fore
SplineSet
280 580 m 1,0,-1
 199 620 l 1,1,-1
 295 809 l 1,2,-1
 409 753 l 1,3,-1
 280 580 l 1,0,-1
201 -12 m 0,4,5
 117 -12 117 -12 76.5 31.5 c 128,-1,6
 36 75 36 75 36 142 c 0,7,8
 36 227 36 227 97 265 c 128,-1,9
 158 303 158 303 260 303 c 2,10,-1
 347 303 l 1,11,-1
 347 340 l 2,12,13
 347 428 347 428 253 428 c 0,14,15
 209 428 209 428 182 410 c 128,-1,16
 155 392 155 392 136 363 c 1,17,-1
 56 435 l 1,18,19
 117 535 117 535 263 535 c 0,20,21
 482 535 482 535 482 347 c 2,22,-1
 482 0 l 1,23,-1
 360 0 l 1,24,-1
 360 90 l 1,25,-1
 354 90 l 1,26,27
 337 35 337 35 296 11.5 c 128,-1,28
 255 -12 255 -12 201 -12 c 0,4,5
248 84 m 0,29,30
 285 84 285 84 316 99.5 c 128,-1,31
 347 115 347 115 347 157 c 2,32,-1
 347 224 l 1,33,-1
 277 224 l 2,34,35
 172 224 172 224 172 164 c 2,36,-1
 172 145 l 2,37,38
 172 84 172 84 248 84 c 0,29,30
EndSplineSet
EndChar

StartChar: acircumflex
Encoding: 226 226 161
Width: 548
Flags: W
LayerCount: 2
Fore
SplineSet
386 580 m 1,0,-1
 266 696 l 1,1,-1
 146 580 l 1,2,-1
 78 633 l 1,3,-1
 206 789 l 1,4,-1
 326 789 l 1,5,-1
 454 633 l 1,6,-1
 386 580 l 1,0,-1
201 -12 m 0,7,8
 117 -12 117 -12 76.5 31.5 c 128,-1,9
 36 75 36 75 36 142 c 0,10,11
 36 227 36 227 97 265 c 128,-1,12
 158 303 158 303 260 303 c 2,13,-1
 347 303 l 1,14,-1
 347 340 l 2,15,16
 347 428 347 428 253 428 c 0,17,18
 209 428 209 428 182 410 c 128,-1,19
 155 392 155 392 136 363 c 1,20,-1
 56 435 l 1,21,22
 117 535 117 535 263 535 c 0,23,24
 482 535 482 535 482 347 c 2,25,-1
 482 0 l 1,26,-1
 360 0 l 1,27,-1
 360 90 l 1,28,-1
 354 90 l 1,29,30
 337 35 337 35 296 11.5 c 128,-1,31
 255 -12 255 -12 201 -12 c 0,7,8
248 84 m 0,32,33
 285 84 285 84 316 99.5 c 128,-1,34
 347 115 347 115 347 157 c 2,35,-1
 347 224 l 1,36,-1
 277 224 l 2,37,38
 172 224 172 224 172 164 c 2,39,-1
 172 145 l 2,40,41
 172 84 172 84 248 84 c 0,32,33
EndSplineSet
EndChar

StartChar: atilde
Encoding: 227 227 162
Width: 548
Flags: W
LayerCount: 2
Fore
SplineSet
341 603 m 0,0,1
 311 603 311 603 288 614.5 c 128,-1,2
 265 626 265 626 239 634 c 0,3,4
 210 647 210 647 187 647 c 0,5,6
 169 647 169 647 156 640 c 128,-1,7
 143 633 143 633 129 621 c 1,8,-1
 80 684 l 1,9,10
 119 746 119 746 191 746 c 0,11,12
 221 746 221 746 244.5 734.5 c 128,-1,13
 268 723 268 723 293 715 c 0,14,15
 322 702 322 702 345 702 c 0,16,17
 378 702 378 702 403 728 c 1,18,-1
 452 665 l 1,19,20
 414 603 414 603 341 603 c 0,0,1
201 -12 m 0,21,22
 117 -12 117 -12 76.5 31.5 c 128,-1,23
 36 75 36 75 36 142 c 0,24,25
 36 227 36 227 97 265 c 128,-1,26
 158 303 158 303 260 303 c 2,27,-1
 347 303 l 1,28,-1
 347 340 l 2,29,30
 347 428 347 428 253 428 c 0,31,32
 209 428 209 428 182 410 c 128,-1,33
 155 392 155 392 136 363 c 1,34,-1
 56 435 l 1,35,36
 117 535 117 535 263 535 c 0,37,38
 482 535 482 535 482 347 c 2,39,-1
 482 0 l 1,40,-1
 360 0 l 1,41,-1
 360 90 l 1,42,-1
 354 90 l 1,43,44
 337 35 337 35 296 11.5 c 128,-1,45
 255 -12 255 -12 201 -12 c 0,21,22
248 84 m 0,46,47
 285 84 285 84 316 99.5 c 128,-1,48
 347 115 347 115 347 157 c 2,49,-1
 347 224 l 1,50,-1
 277 224 l 2,51,52
 172 224 172 224 172 164 c 2,53,-1
 172 145 l 2,54,55
 172 84 172 84 248 84 c 0,46,47
EndSplineSet
EndChar

StartChar: adieresis
Encoding: 228 228 163
Width: 548
Flags: W
LayerCount: 2
Fore
SplineSet
159 603 m 256,0,1
 85 603 85 603 85 663 c 2,2,-1
 85 686 l 2,3,4
 85 745 85 745 159 745 c 256,5,6
 233 745 233 745 233 686 c 2,7,-1
 233 663 l 2,8,9
 233 603 233 603 159 603 c 256,0,1
373 603 m 256,10,11
 299 603 299 603 299 663 c 2,12,-1
 299 686 l 2,13,14
 299 745 299 745 373 745 c 256,15,16
 447 745 447 745 447 686 c 2,17,-1
 447 663 l 2,18,19
 447 603 447 603 373 603 c 256,10,11
201 -12 m 0,20,21
 117 -12 117 -12 76.5 31.5 c 128,-1,22
 36 75 36 75 36 142 c 0,23,24
 36 227 36 227 97 265 c 128,-1,25
 158 303 158 303 260 303 c 2,26,-1
 347 303 l 1,27,-1
 347 340 l 2,28,29
 347 428 347 428 253 428 c 0,30,31
 209 428 209 428 182 410 c 128,-1,32
 155 392 155 392 136 363 c 1,33,-1
 56 435 l 1,34,35
 117 535 117 535 263 535 c 0,36,37
 482 535 482 535 482 347 c 2,38,-1
 482 0 l 1,39,-1
 360 0 l 1,40,-1
 360 90 l 1,41,-1
 354 90 l 1,42,43
 337 35 337 35 296 11.5 c 128,-1,44
 255 -12 255 -12 201 -12 c 0,20,21
248 84 m 0,45,46
 285 84 285 84 316 99.5 c 128,-1,47
 347 115 347 115 347 157 c 2,48,-1
 347 224 l 1,49,-1
 277 224 l 2,50,51
 172 224 172 224 172 164 c 2,52,-1
 172 145 l 2,53,54
 172 84 172 84 248 84 c 0,45,46
EndSplineSet
EndChar

StartChar: aring
Encoding: 229 229 164
Width: 548
Flags: W
LayerCount: 2
Fore
SplineSet
266 561 m 0,0,1
 203 561 203 561 163.5 601.5 c 128,-1,2
 124 642 124 642 124 699 c 0,3,4
 124 761 124 761 167 799 c 128,-1,5
 210 837 210 837 266 837 c 256,6,7
 322 837 322 837 365 799 c 128,-1,8
 408 761 408 761 408 699 c 0,9,10
 408 636 408 636 364.5 598.5 c 128,-1,11
 321 561 321 561 266 561 c 0,0,1
266 631 m 0,12,13
 318 634 318 634 318 683 c 2,14,-1
 318 716 l 2,15,16
 318 767 318 767 266 767 c 0,17,18
 214 764 214 764 214 715 c 2,19,-1
 214 683 l 2,20,21
 214 631 214 631 266 631 c 0,12,13
201 -12 m 0,22,23
 117 -12 117 -12 76.5 31.5 c 128,-1,24
 36 75 36 75 36 142 c 0,25,26
 36 227 36 227 97 265 c 128,-1,27
 158 303 158 303 260 303 c 2,28,-1
 347 303 l 1,29,-1
 347 340 l 2,30,31
 347 428 347 428 253 428 c 0,32,33
 209 428 209 428 182 410 c 128,-1,34
 155 392 155 392 136 363 c 1,35,-1
 56 435 l 1,36,37
 117 535 117 535 263 535 c 0,38,39
 482 535 482 535 482 347 c 2,40,-1
 482 0 l 1,41,-1
 360 0 l 1,42,-1
 360 90 l 1,43,-1
 354 90 l 1,44,45
 337 35 337 35 296 11.5 c 128,-1,46
 255 -12 255 -12 201 -12 c 0,22,23
248 84 m 0,47,48
 285 84 285 84 316 99.5 c 128,-1,49
 347 115 347 115 347 157 c 2,50,-1
 347 224 l 1,51,-1
 277 224 l 2,52,53
 172 224 172 224 172 164 c 2,54,-1
 172 145 l 2,55,56
 172 84 172 84 248 84 c 0,47,48
EndSplineSet
EndChar

StartChar: ae
Encoding: 230 230 165
Width: 864
Flags: W
LayerCount: 2
Fore
SplineSet
250 84 m 0,0,1
 347 84 347 84 347 168 c 2,2,-1
 347 227 l 1,3,-1
 268 227 l 2,4,5
 172 227 172 227 172 164 c 2,6,-1
 172 149 l 2,7,8
 174 84 174 84 250 84 c 0,0,1
686 309 m 1,9,10
 686 434 686 434 588 434 c 0,11,12
 533 434 533 434 507.5 397.5 c 128,-1,13
 482 361 482 361 482 309 c 1,14,-1
 686 309 l 1,9,10
595 -12 m 0,15,16
 511 -12 511 -12 461 19 c 128,-1,17
 411 50 411 50 393 93 c 1,18,-1
 387 93 l 1,19,20
 374 51 374 51 330 19.5 c 128,-1,21
 286 -12 286 -12 201 -12 c 0,22,23
 143 -12 143 -12 106.5 9.5 c 128,-1,24
 70 31 70 31 53 66.5 c 128,-1,25
 36 102 36 102 36 144 c 0,26,27
 36 205 36 205 68 241 c 128,-1,28
 100 277 100 277 154 293 c 128,-1,29
 208 309 208 309 274 309 c 2,30,-1
 347 309 l 1,31,-1
 347 340 l 2,32,33
 347 428 347 428 253 428 c 0,34,35
 208 428 208 428 181 410 c 128,-1,36
 154 392 154 392 136 364 c 1,37,-1
 56 435 l 1,38,39
 117 535 117 535 263 535 c 0,40,41
 369 535 369 535 413 453 c 1,42,-1
 419 453 l 1,43,44
 439 490 439 490 481.5 512.5 c 128,-1,45
 524 535 524 535 591 535 c 0,46,47
 674 535 674 535 726 499 c 128,-1,48
 778 463 778 463 802 402.5 c 128,-1,49
 826 342 826 342 826 270 c 2,50,-1
 826 227 l 1,51,-1
 482 227 l 1,52,53
 482 159 482 159 515 128 c 128,-1,54
 548 97 548 97 608 97 c 0,55,56
 693 97 693 97 739 163 c 1,57,-1
 810 81 l 1,58,59
 735 -12 735 -12 595 -12 c 0,15,16
EndSplineSet
EndChar

StartChar: ccedilla
Encoding: 231 231 166
Width: 515
Flags: W
LayerCount: 2
Fore
SplineSet
278 -211 m 0,0,1
 193 -211 193 -211 158 -168 c 1,2,-1
 203 -114 l 1,3,4
 226 -143 226 -143 268 -143 c 0,5,6
 312 -143 312 -143 312 -117 c 0,7,8
 312 -82 312 -82 216 -75 c 1,9,-1
 230 -8 l 1,10,11
 128 13 128 13 83 86.5 c 128,-1,12
 38 160 38 160 38 262 c 0,13,14
 38 341 38 341 64.5 402.5 c 128,-1,15
 91 464 91 464 145 499.5 c 128,-1,16
 199 535 199 535 280 535 c 0,17,18
 438 535 438 535 487 401 c 1,19,-1
 377 353 l 1,20,21
 360 427 360 427 280 427 c 0,22,23
 179 427 179 427 179 296 c 2,24,-1
 179 213 l 2,25,26
 179 163 179 163 202 129 c 128,-1,27
 225 95 225 95 280 95 c 0,28,29
 327 95 327 95 350 116.5 c 128,-1,30
 373 138 373 138 386 177 c 1,31,-1
 491 129 l 1,32,33
 437 -8 437 -8 293 -12 c 1,34,-1
 284 -56 l 1,35,-1
 287 -60 l 1,36,37
 309 -53 309 -53 334 -53 c 0,38,39
 406 -53 406 -53 406 -122 c 0,40,41
 406 -170 406 -170 368.5 -190.5 c 128,-1,42
 331 -211 331 -211 278 -211 c 0,0,1
EndSplineSet
EndChar

StartChar: egrave
Encoding: 232 232 167
Width: 560
Flags: W
LayerCount: 2
Fore
SplineSet
286 -12 m 0,0,1
 204 -12 204 -12 149 23 c 128,-1,2
 94 58 94 58 66 120 c 128,-1,3
 38 182 38 182 38 262 c 0,4,5
 38 339 38 339 64.5 401 c 128,-1,6
 91 463 91 463 145.5 499 c 128,-1,7
 200 535 200 535 282 535 c 0,8,9
 370 535 370 535 422.5 497 c 128,-1,10
 475 459 475 459 498.5 398 c 128,-1,11
 522 337 522 337 522 270 c 2,12,-1
 522 227 l 1,13,-1
 178 227 l 1,14,15
 178 95 178 95 301 95 c 0,16,17
 381 95 381 95 433 163 c 1,18,-1
 503 81 l 1,19,20
 430 -12 430 -12 286 -12 c 0,0,1
381 309 m 1,21,22
 381 434 381 434 284 434 c 0,23,24
 245 434 245 434 221.5 416.5 c 128,-1,25
 198 399 198 399 188 370.5 c 128,-1,26
 178 342 178 342 178 309 c 1,27,-1
 381 309 l 1,21,22
272 580 m 1,28,-1
 144 753 l 1,29,-1
 257 809 l 1,30,-1
 354 620 l 1,31,-1
 272 580 l 1,28,-1
EndSplineSet
EndChar

StartChar: eacute
Encoding: 233 233 168
Width: 560
Flags: W
LayerCount: 2
Fore
SplineSet
286 -12 m 0,0,1
 204 -12 204 -12 149 23 c 128,-1,2
 94 58 94 58 66 120 c 128,-1,3
 38 182 38 182 38 262 c 0,4,5
 38 339 38 339 64.5 401 c 128,-1,6
 91 463 91 463 145.5 499 c 128,-1,7
 200 535 200 535 282 535 c 0,8,9
 370 535 370 535 422.5 497 c 128,-1,10
 475 459 475 459 498.5 398 c 128,-1,11
 522 337 522 337 522 270 c 2,12,-1
 522 227 l 1,13,-1
 178 227 l 1,14,15
 178 95 178 95 301 95 c 0,16,17
 381 95 381 95 433 163 c 1,18,-1
 503 81 l 1,19,20
 430 -12 430 -12 286 -12 c 0,0,1
381 309 m 1,21,22
 381 434 381 434 284 434 c 0,23,24
 245 434 245 434 221.5 416.5 c 128,-1,25
 198 399 198 399 188 370.5 c 128,-1,26
 178 342 178 342 178 309 c 1,27,-1
 381 309 l 1,21,22
301 580 m 1,28,-1
 220 620 l 1,29,-1
 316 809 l 1,30,-1
 430 753 l 1,31,-1
 301 580 l 1,28,-1
EndSplineSet
EndChar

StartChar: ecircumflex
Encoding: 234 234 169
Width: 560
Flags: W
LayerCount: 2
Fore
SplineSet
286 -12 m 0,0,1
 204 -12 204 -12 149 23 c 128,-1,2
 94 58 94 58 66 120 c 128,-1,3
 38 182 38 182 38 262 c 0,4,5
 38 339 38 339 64.5 401 c 128,-1,6
 91 463 91 463 145.5 499 c 128,-1,7
 200 535 200 535 282 535 c 0,8,9
 370 535 370 535 422.5 497 c 128,-1,10
 475 459 475 459 498.5 398 c 128,-1,11
 522 337 522 337 522 270 c 2,12,-1
 522 227 l 1,13,-1
 178 227 l 1,14,15
 178 95 178 95 301 95 c 0,16,17
 381 95 381 95 433 163 c 1,18,-1
 503 81 l 1,19,20
 430 -12 430 -12 286 -12 c 0,0,1
381 309 m 1,21,22
 381 434 381 434 284 434 c 0,23,24
 245 434 245 434 221.5 416.5 c 128,-1,25
 198 399 198 399 188 370.5 c 128,-1,26
 178 342 178 342 178 309 c 1,27,-1
 381 309 l 1,21,22
407 580 m 1,28,-1
 287 696 l 1,29,-1
 166 580 l 1,30,-1
 99 633 l 1,31,-1
 227 789 l 1,32,-1
 346 789 l 1,33,-1
 474 633 l 1,34,-1
 407 580 l 1,28,-1
EndSplineSet
EndChar

StartChar: edieresis
Encoding: 235 235 170
Width: 560
Flags: W
LayerCount: 2
Fore
SplineSet
286 -12 m 0,0,1
 204 -12 204 -12 149 23 c 128,-1,2
 94 58 94 58 66 120 c 128,-1,3
 38 182 38 182 38 262 c 0,4,5
 38 339 38 339 64.5 401 c 128,-1,6
 91 463 91 463 145.5 499 c 128,-1,7
 200 535 200 535 282 535 c 0,8,9
 370 535 370 535 422.5 497 c 128,-1,10
 475 459 475 459 498.5 398 c 128,-1,11
 522 337 522 337 522 270 c 2,12,-1
 522 227 l 1,13,-1
 178 227 l 1,14,15
 178 95 178 95 301 95 c 0,16,17
 381 95 381 95 433 163 c 1,18,-1
 503 81 l 1,19,20
 430 -12 430 -12 286 -12 c 0,0,1
381 309 m 1,21,22
 381 434 381 434 284 434 c 0,23,24
 245 434 245 434 221.5 416.5 c 128,-1,25
 198 399 198 399 188 370.5 c 128,-1,26
 178 342 178 342 178 309 c 1,27,-1
 381 309 l 1,21,22
180 603 m 256,28,29
 106 603 106 603 106 663 c 2,30,-1
 106 686 l 2,31,32
 106 745 106 745 180 745 c 256,33,34
 254 745 254 745 254 686 c 2,35,-1
 254 663 l 2,36,37
 254 603 254 603 180 603 c 256,28,29
393 603 m 256,38,39
 319 603 319 603 319 663 c 2,40,-1
 319 686 l 2,41,42
 319 745 319 745 393 745 c 256,43,44
 467 745 467 745 467 686 c 2,45,-1
 467 663 l 2,46,47
 467 603 467 603 393 603 c 256,38,39
EndSplineSet
EndChar

StartChar: igrave
Encoding: 236 236 171
Width: 279
Flags: W
LayerCount: 2
Fore
SplineSet
207 0 m 1,0,-1
 72 0 l 1,1,-1
 72 523 l 1,2,-1
 207 523 l 1,3,-1
 207 0 l 1,0,-1
126 580 m 1,4,-1
 -2 753 l 1,5,-1
 111 809 l 1,6,-1
 208 620 l 1,7,-1
 126 580 l 1,4,-1
EndSplineSet
EndChar

StartChar: iacute
Encoding: 237 237 172
Width: 279
Flags: W
LayerCount: 2
Fore
SplineSet
207 0 m 1,0,-1
 72 0 l 1,1,-1
 72 523 l 1,2,-1
 207 523 l 1,3,-1
 207 0 l 1,0,-1
155 580 m 1,4,-1
 74 620 l 1,5,-1
 170 809 l 1,6,-1
 284 753 l 1,7,-1
 155 580 l 1,4,-1
EndSplineSet
EndChar

StartChar: icircumflex
Encoding: 238 238 173
Width: 279
Flags: W
LayerCount: 2
Fore
SplineSet
207 0 m 1,0,-1
 72 0 l 1,1,-1
 72 523 l 1,2,-1
 207 523 l 1,3,-1
 207 0 l 1,0,-1
261 580 m 1,4,-1
 141 696 l 1,5,-1
 20 580 l 1,6,-1
 -47 633 l 1,7,-1
 81 789 l 1,8,-1
 200 789 l 1,9,-1
 328 633 l 1,10,-1
 261 580 l 1,4,-1
EndSplineSet
EndChar

StartChar: idieresis
Encoding: 239 239 174
Width: 279
Flags: W
LayerCount: 2
Fore
SplineSet
207 0 m 1,0,-1
 72 0 l 1,1,-1
 72 523 l 1,2,-1
 207 523 l 1,3,-1
 207 0 l 1,0,-1
34 603 m 256,4,5
 -40 603 -40 603 -40 663 c 2,6,-1
 -40 686 l 2,7,8
 -40 745 -40 745 34 745 c 256,9,10
 108 745 108 745 108 686 c 2,11,-1
 108 663 l 2,12,13
 108 603 108 603 34 603 c 256,4,5
247 603 m 256,14,15
 173 603 173 603 173 663 c 2,16,-1
 173 686 l 2,17,18
 173 745 173 745 247 745 c 256,19,20
 321 745 321 745 321 686 c 2,21,-1
 321 663 l 2,22,23
 321 603 321 603 247 603 c 256,14,15
EndSplineSet
EndChar

StartChar: eth
Encoding: 240 240 175
Width: 593
Flags: W
LayerCount: 2
Fore
SplineSet
296 -12 m 0,0,1
 212 -12 212 -12 155.5 22.5 c 128,-1,2
 99 57 99 57 70.5 116.5 c 128,-1,3
 42 176 42 176 42 252 c 0,4,5
 42 322 42 322 65 378.5 c 128,-1,6
 88 435 88 435 133.5 468 c 128,-1,7
 179 501 179 501 246 501 c 0,8,9
 350 501 350 501 397 403 c 1,10,-1
 403 406 l 1,11,12
 376 504 376 504 288 587 c 1,13,-1
 201 534 l 1,14,-1
 154 590 l 1,15,-1
 232 638 l 1,16,17
 159 696 159 696 78 740 c 1,18,-1
 285 740 l 1,19,20
 301 730 301 730 337 702 c 1,21,-1
 420 753 l 1,22,-1
 467 697 l 1,23,-1
 393 650 l 1,24,25
 545 495 545 495 545 277 c 0,26,27
 545 176 545 176 513 112 c 128,-1,28
 481 48 481 48 424.5 18 c 128,-1,29
 368 -12 368 -12 296 -12 c 0,0,1
294 90 m 0,30,31
 351 90 351 90 378 125 c 128,-1,32
 405 160 405 160 405 215 c 2,33,-1
 405 272 l 2,34,35
 405 336 405 336 374 366.5 c 128,-1,36
 343 397 343 397 294 397 c 0,37,38
 234 397 234 397 208 361.5 c 128,-1,39
 182 326 182 326 182 272 c 2,40,-1
 182 215 l 2,41,42
 182 161 182 161 208 125.5 c 128,-1,43
 234 90 234 90 294 90 c 0,30,31
EndSplineSet
EndChar

StartChar: ntilde
Encoding: 241 241 176
Width: 591
Flags: W
LayerCount: 2
Fore
SplineSet
524 0 m 1,0,-1
 389 0 l 1,1,-1
 389 317 l 2,2,3
 389 424 389 424 311 424 c 0,4,5
 286 424 286 424 263 416 c 0,6,7
 207 397 207 397 207 343 c 2,8,-1
 207 0 l 1,9,-1
 72 0 l 1,10,-1
 72 523 l 1,11,-1
 207 523 l 1,12,-1
 207 435 l 1,13,-1
 213 435 l 1,14,15
 247 535 247 535 359 535 c 0,16,17
 418 535 418 535 454.5 508.5 c 128,-1,18
 491 482 491 482 507.5 435.5 c 128,-1,19
 524 389 524 389 524 329 c 2,20,-1
 524 0 l 1,0,-1
373 603 m 0,21,22
 343 603 343 603 320 614.5 c 128,-1,23
 297 626 297 626 271 634 c 0,24,25
 242 647 242 647 219 647 c 0,26,27
 201 647 201 647 188 640 c 128,-1,28
 175 633 175 633 161 621 c 1,29,-1
 112 684 l 1,30,31
 151 746 151 746 223 746 c 0,32,33
 253 746 253 746 276.5 734.5 c 128,-1,34
 300 723 300 723 325 715 c 0,35,36
 354 702 354 702 377 702 c 0,37,38
 410 702 410 702 435 728 c 1,39,-1
 484 665 l 1,40,41
 446 603 446 603 373 603 c 0,21,22
EndSplineSet
EndChar

StartChar: ograve
Encoding: 242 242 177
Width: 564
Flags: W
LayerCount: 2
Fore
SplineSet
282 -12 m 0,0,1
 201 -12 201 -12 146.5 24 c 128,-1,2
 92 60 92 60 65 122 c 128,-1,3
 38 184 38 184 38 262 c 0,4,5
 38 395 38 395 106 465 c 128,-1,6
 174 535 174 535 282 535 c 0,7,8
 397 535 397 535 461.5 461 c 128,-1,9
 526 387 526 387 526 262 c 0,10,11
 526 138 526 138 462 63 c 128,-1,12
 398 -12 398 -12 282 -12 c 0,0,1
282 96 m 0,13,14
 342 96 342 96 363.5 134 c 128,-1,15
 385 172 385 172 385 235 c 2,16,-1
 385 312 l 1,17,18
 380 427 380 427 282 427 c 0,19,20
 221 427 221 427 200 388.5 c 128,-1,21
 179 350 179 350 179 288 c 2,22,-1
 179 211 l 2,23,24
 182 96 182 96 282 96 c 0,13,14
268 580 m 1,25,-1
 139 753 l 1,26,-1
 253 809 l 1,27,-1
 349 620 l 1,28,-1
 268 580 l 1,25,-1
EndSplineSet
EndChar

StartChar: oacute
Encoding: 243 243 178
Width: 564
Flags: W
LayerCount: 2
Fore
SplineSet
282 -12 m 0,0,1
 201 -12 201 -12 146.5 24 c 128,-1,2
 92 60 92 60 65 122 c 128,-1,3
 38 184 38 184 38 262 c 0,4,5
 38 395 38 395 106 465 c 128,-1,6
 174 535 174 535 282 535 c 0,7,8
 397 535 397 535 461.5 461 c 128,-1,9
 526 387 526 387 526 262 c 0,10,11
 526 138 526 138 462 63 c 128,-1,12
 398 -12 398 -12 282 -12 c 0,0,1
282 96 m 0,13,14
 342 96 342 96 363.5 134 c 128,-1,15
 385 172 385 172 385 235 c 2,16,-1
 385 312 l 1,17,18
 380 427 380 427 282 427 c 0,19,20
 221 427 221 427 200 388.5 c 128,-1,21
 179 350 179 350 179 288 c 2,22,-1
 179 211 l 2,23,24
 182 96 182 96 282 96 c 0,13,14
296 580 m 1,25,-1
 215 620 l 1,26,-1
 311 809 l 1,27,-1
 425 753 l 1,28,-1
 296 580 l 1,25,-1
EndSplineSet
EndChar

StartChar: ocircumflex
Encoding: 244 244 179
Width: 564
Flags: W
LayerCount: 2
Fore
SplineSet
282 -12 m 0,0,1
 201 -12 201 -12 146.5 24 c 128,-1,2
 92 60 92 60 65 122 c 128,-1,3
 38 184 38 184 38 262 c 0,4,5
 38 395 38 395 106 465 c 128,-1,6
 174 535 174 535 282 535 c 0,7,8
 397 535 397 535 461.5 461 c 128,-1,9
 526 387 526 387 526 262 c 0,10,11
 526 138 526 138 462 63 c 128,-1,12
 398 -12 398 -12 282 -12 c 0,0,1
282 96 m 0,13,14
 342 96 342 96 363.5 134 c 128,-1,15
 385 172 385 172 385 235 c 2,16,-1
 385 312 l 1,17,18
 380 427 380 427 282 427 c 0,19,20
 221 427 221 427 200 388.5 c 128,-1,21
 179 350 179 350 179 288 c 2,22,-1
 179 211 l 2,23,24
 182 96 182 96 282 96 c 0,13,14
402 580 m 1,25,-1
 282 696 l 1,26,-1
 162 580 l 1,27,-1
 94 633 l 1,28,-1
 222 789 l 1,29,-1
 342 789 l 1,30,-1
 470 633 l 1,31,-1
 402 580 l 1,25,-1
EndSplineSet
EndChar

StartChar: otilde
Encoding: 245 245 180
Width: 564
Flags: W
LayerCount: 2
Fore
SplineSet
282 -12 m 0,0,1
 201 -12 201 -12 146.5 24 c 128,-1,2
 92 60 92 60 65 122 c 128,-1,3
 38 184 38 184 38 262 c 0,4,5
 38 395 38 395 106 465 c 128,-1,6
 174 535 174 535 282 535 c 0,7,8
 397 535 397 535 461.5 461 c 128,-1,9
 526 387 526 387 526 262 c 0,10,11
 526 138 526 138 462 63 c 128,-1,12
 398 -12 398 -12 282 -12 c 0,0,1
282 96 m 0,13,14
 342 96 342 96 363.5 134 c 128,-1,15
 385 172 385 172 385 235 c 2,16,-1
 385 312 l 1,17,18
 380 427 380 427 282 427 c 0,19,20
 221 427 221 427 200 388.5 c 128,-1,21
 179 350 179 350 179 288 c 2,22,-1
 179 211 l 2,23,24
 182 96 182 96 282 96 c 0,13,14
357 603 m 0,25,26
 327 603 327 603 304 614.5 c 128,-1,27
 281 626 281 626 255 634 c 0,28,29
 226 647 226 647 203 647 c 0,30,31
 185 647 185 647 172 640 c 128,-1,32
 159 633 159 633 145 621 c 1,33,-1
 96 684 l 1,34,35
 135 746 135 746 207 746 c 0,36,37
 237 746 237 746 260.5 734.5 c 128,-1,38
 284 723 284 723 309 715 c 0,39,40
 338 702 338 702 361 702 c 0,41,42
 394 702 394 702 419 728 c 1,43,-1
 468 665 l 1,44,45
 430 603 430 603 357 603 c 0,25,26
EndSplineSet
EndChar

StartChar: odieresis
Encoding: 246 246 181
Width: 564
Flags: W
LayerCount: 2
Fore
SplineSet
282 -12 m 0,0,1
 201 -12 201 -12 146.5 24 c 128,-1,2
 92 60 92 60 65 122 c 128,-1,3
 38 184 38 184 38 262 c 0,4,5
 38 395 38 395 106 465 c 128,-1,6
 174 535 174 535 282 535 c 0,7,8
 397 535 397 535 461.5 461 c 128,-1,9
 526 387 526 387 526 262 c 0,10,11
 526 138 526 138 462 63 c 128,-1,12
 398 -12 398 -12 282 -12 c 0,0,1
282 96 m 0,13,14
 342 96 342 96 363.5 134 c 128,-1,15
 385 172 385 172 385 235 c 2,16,-1
 385 312 l 1,17,18
 380 427 380 427 282 427 c 0,19,20
 221 427 221 427 200 388.5 c 128,-1,21
 179 350 179 350 179 288 c 2,22,-1
 179 211 l 2,23,24
 182 96 182 96 282 96 c 0,13,14
175 603 m 256,25,26
 101 603 101 603 101 663 c 2,27,-1
 101 686 l 2,28,29
 101 745 101 745 175 745 c 256,30,31
 249 745 249 745 249 686 c 2,32,-1
 249 663 l 2,33,34
 249 603 249 603 175 603 c 256,25,26
389 603 m 256,35,36
 315 603 315 603 315 663 c 2,37,-1
 315 686 l 2,38,39
 315 745 315 745 389 745 c 256,40,41
 463 745 463 745 463 686 c 2,42,-1
 463 663 l 2,43,44
 463 603 463 603 389 603 c 256,35,36
EndSplineSet
EndChar

StartChar: divide
Encoding: 247 247 182
Width: 600
Flags: W
LayerCount: 2
Fore
SplineSet
532 252 m 1,0,-1
 67 252 l 1,1,-1
 67 360 l 1,2,-1
 532 360 l 1,3,-1
 532 252 l 1,0,-1
300 33 m 256,4,5
 255 33 255 33 236.5 52 c 128,-1,6
 218 71 218 71 218 98 c 2,7,-1
 218 121 l 2,8,9
 218 186 218 186 300 186 c 0,10,11
 345 186 345 186 363.5 167 c 128,-1,12
 382 148 382 148 382 121 c 2,13,-1
 382 98 l 2,14,15
 382 73 382 73 363.5 53 c 128,-1,16
 345 33 345 33 300 33 c 256,4,5
300 424 m 256,17,18
 255 424 255 424 236.5 443 c 128,-1,19
 218 462 218 462 218 489 c 2,20,-1
 218 512 l 2,21,22
 218 577 218 577 300 577 c 0,23,24
 345 577 345 577 363.5 558 c 128,-1,25
 382 539 382 539 382 512 c 2,26,-1
 382 489 l 2,27,28
 382 464 382 464 363.5 444 c 128,-1,29
 345 424 345 424 300 424 c 256,17,18
EndSplineSet
EndChar

StartChar: oslash
Encoding: 248 248 183
Width: 571
Flags: W
LayerCount: 2
Fore
SplineSet
91 -48 m 1,0,-1
 18 7 l 1,1,-1
 85 90 l 1,2,3
 42 157 42 157 42 262 c 0,4,5
 42 392 42 392 109.5 463.5 c 128,-1,6
 177 535 177 535 286 535 c 0,7,8
 361 535 361 535 420 499 c 1,9,-1
 480 571 l 1,10,-1
 553 516 l 1,11,-1
 485 432 l 1,12,13
 529 367 529 367 529 261 c 0,14,15
 529 182 529 182 501.5 120.5 c 128,-1,16
 474 59 474 59 420 23.5 c 128,-1,17
 366 -12 366 -12 286 -12 c 0,18,19
 207 -12 207 -12 152 24 c 1,20,-1
 91 -48 l 1,0,-1
286 89 m 0,21,22
 333 89 333 89 362.5 121 c 128,-1,23
 392 153 392 153 392 215 c 2,24,-1
 392 304 l 2,25,26
 392 314 392 314 390 325 c 1,27,-1
 215 114 l 1,28,29
 241 89 241 89 286 89 c 0,21,22
181 199 m 1,30,-1
 355 409 l 1,31,32
 329 434 329 434 286 434 c 0,33,34
 231 434 231 434 205 397.5 c 128,-1,35
 179 361 179 361 179 308 c 0,36,37
 179 216 179 216 181 199 c 1,30,-1
EndSplineSet
EndChar

StartChar: ugrave
Encoding: 249 249 184
Width: 591
Flags: W
LayerCount: 2
Fore
SplineSet
232 -12 m 0,0,1
 172 -12 172 -12 135.5 14 c 128,-1,2
 99 40 99 40 82.5 86.5 c 128,-1,3
 66 133 66 133 66 193 c 2,4,-1
 66 523 l 1,5,-1
 201 523 l 1,6,-1
 201 206 l 2,7,8
 201 99 201 99 285 99 c 0,9,10
 321 99 321 99 352.5 118.5 c 128,-1,11
 384 138 384 138 384 180 c 2,12,-1
 384 523 l 1,13,-1
 519 523 l 1,14,-1
 519 0 l 1,15,-1
 384 0 l 1,16,-1
 384 87 l 1,17,-1
 379 87 l 1,18,19
 349 -12 349 -12 232 -12 c 0,0,1
279 580 m 1,20,-1
 151 753 l 1,21,-1
 264 809 l 1,22,-1
 361 620 l 1,23,-1
 279 580 l 1,20,-1
EndSplineSet
EndChar

StartChar: uacute
Encoding: 250 250 185
Width: 591
Flags: W
LayerCount: 2
Fore
SplineSet
232 -12 m 0,0,1
 172 -12 172 -12 135.5 14 c 128,-1,2
 99 40 99 40 82.5 86.5 c 128,-1,3
 66 133 66 133 66 193 c 2,4,-1
 66 523 l 1,5,-1
 201 523 l 1,6,-1
 201 206 l 2,7,8
 201 99 201 99 285 99 c 0,9,10
 321 99 321 99 352.5 118.5 c 128,-1,11
 384 138 384 138 384 180 c 2,12,-1
 384 523 l 1,13,-1
 519 523 l 1,14,-1
 519 0 l 1,15,-1
 384 0 l 1,16,-1
 384 87 l 1,17,-1
 379 87 l 1,18,19
 349 -12 349 -12 232 -12 c 0,0,1
308 580 m 1,20,-1
 227 620 l 1,21,-1
 323 809 l 1,22,-1
 437 753 l 1,23,-1
 308 580 l 1,20,-1
EndSplineSet
EndChar

StartChar: ucircumflex
Encoding: 251 251 186
Width: 591
Flags: W
LayerCount: 2
Fore
SplineSet
232 -12 m 0,0,1
 172 -12 172 -12 135.5 14 c 128,-1,2
 99 40 99 40 82.5 86.5 c 128,-1,3
 66 133 66 133 66 193 c 2,4,-1
 66 523 l 1,5,-1
 201 523 l 1,6,-1
 201 206 l 2,7,8
 201 99 201 99 285 99 c 0,9,10
 321 99 321 99 352.5 118.5 c 128,-1,11
 384 138 384 138 384 180 c 2,12,-1
 384 523 l 1,13,-1
 519 523 l 1,14,-1
 519 0 l 1,15,-1
 384 0 l 1,16,-1
 384 87 l 1,17,-1
 379 87 l 1,18,19
 349 -12 349 -12 232 -12 c 0,0,1
414 580 m 1,20,-1
 294 696 l 1,21,-1
 173 580 l 1,22,-1
 106 633 l 1,23,-1
 234 789 l 1,24,-1
 353 789 l 1,25,-1
 481 633 l 1,26,-1
 414 580 l 1,20,-1
EndSplineSet
EndChar

StartChar: udieresis
Encoding: 252 252 187
Width: 591
Flags: W
LayerCount: 2
Fore
SplineSet
232 -12 m 0,0,1
 172 -12 172 -12 135.5 14 c 128,-1,2
 99 40 99 40 82.5 86.5 c 128,-1,3
 66 133 66 133 66 193 c 2,4,-1
 66 523 l 1,5,-1
 201 523 l 1,6,-1
 201 206 l 2,7,8
 201 99 201 99 285 99 c 0,9,10
 321 99 321 99 352.5 118.5 c 128,-1,11
 384 138 384 138 384 180 c 2,12,-1
 384 523 l 1,13,-1
 519 523 l 1,14,-1
 519 0 l 1,15,-1
 384 0 l 1,16,-1
 384 87 l 1,17,-1
 379 87 l 1,18,19
 349 -12 349 -12 232 -12 c 0,0,1
187 603 m 256,20,21
 113 603 113 603 113 663 c 2,22,-1
 113 686 l 2,23,24
 113 745 113 745 187 745 c 256,25,26
 261 745 261 745 261 686 c 2,27,-1
 261 663 l 2,28,29
 261 603 261 603 187 603 c 256,20,21
400 603 m 256,30,31
 326 603 326 603 326 663 c 2,32,-1
 326 686 l 2,33,34
 326 745 326 745 400 745 c 256,35,36
 474 745 474 745 474 686 c 2,37,-1
 474 663 l 2,38,39
 474 603 474 603 400 603 c 256,30,31
EndSplineSet
EndChar

StartChar: yacute
Encoding: 253 253 188
Width: 527
Flags: W
LayerCount: 2
Fore
SplineSet
159 -200 m 2,0,-1
 76 -200 l 1,1,-1
 76 -94 l 1,2,-1
 172 -94 l 1,3,-1
 194 -26 l 1,4,-1
 8 523 l 1,5,-1
 142 523 l 1,6,7
 237 224 237 224 241 205 c 0,8,9
 252 161 252 161 264 119 c 1,10,-1
 269 119 l 1,11,-1
 298 224 l 1,12,-1
 392 523 l 1,13,-1
 519 523 l 1,14,-1
 312 -88 l 2,15,16
 294 -146 294 -146 258 -173 c 128,-1,17
 222 -200 222 -200 159 -200 c 2,0,-1
282 580 m 1,18,-1
 201 620 l 1,19,-1
 297 809 l 1,20,-1
 411 753 l 1,21,-1
 282 580 l 1,18,-1
EndSplineSet
EndChar

StartChar: thorn
Encoding: 254 254 189
Width: 603
Flags: W
LayerCount: 2
Fore
SplineSet
207 -200 m 1,0,-1
 72 -200 l 1,1,-1
 72 740 l 1,2,-1
 207 740 l 1,3,-1
 207 436 l 1,4,-1
 212 436 l 1,5,6
 229 484 229 484 268 509.5 c 128,-1,7
 307 535 307 535 355 535 c 0,8,9
 428 535 428 535 472.5 500 c 128,-1,10
 517 465 517 465 537.5 403.5 c 128,-1,11
 558 342 558 342 558 262 c 0,12,13
 558 -12 558 -12 355 -12 c 0,14,15
 299 -12 299 -12 263 16 c 128,-1,16
 227 44 227 44 212 87 c 1,17,-1
 207 87 l 1,18,-1
 207 -200 l 1,0,-1
311 99 m 0,19,20
 370 99 370 99 393.5 137.5 c 128,-1,21
 417 176 417 176 417 228 c 2,22,-1
 417 307 l 2,23,24
 417 356 417 356 390 390 c 128,-1,25
 363 424 363 424 311 424 c 0,26,27
 257 424 257 424 232 397.5 c 128,-1,28
 207 371 207 371 207 330 c 2,29,-1
 207 180 l 2,30,31
 207 138 207 138 238 118.5 c 128,-1,32
 269 99 269 99 311 99 c 0,19,20
EndSplineSet
EndChar

StartChar: ydieresis
Encoding: 255 255 190
Width: 527
Flags: W
LayerCount: 2
Fore
SplineSet
159 -200 m 2,0,-1
 76 -200 l 1,1,-1
 76 -94 l 1,2,-1
 172 -94 l 1,3,-1
 194 -26 l 1,4,-1
 8 523 l 1,5,-1
 142 523 l 1,6,7
 237 224 237 224 241 205 c 0,8,9
 252 161 252 161 264 119 c 1,10,-1
 269 119 l 1,11,-1
 298 224 l 1,12,-1
 392 523 l 1,13,-1
 519 523 l 1,14,-1
 312 -88 l 2,15,16
 294 -146 294 -146 258 -173 c 128,-1,17
 222 -200 222 -200 159 -200 c 2,0,-1
161 603 m 256,18,19
 87 603 87 603 87 663 c 2,20,-1
 87 686 l 2,21,22
 87 745 87 745 161 745 c 256,23,24
 235 745 235 745 235 686 c 2,25,-1
 235 663 l 2,26,27
 235 603 235 603 161 603 c 256,18,19
375 603 m 256,28,29
 301 603 301 603 301 663 c 2,30,-1
 301 686 l 2,31,32
 301 745 301 745 375 745 c 256,33,34
 449 745 449 745 449 686 c 2,35,-1
 449 663 l 2,36,37
 449 603 449 603 375 603 c 256,28,29
EndSplineSet
EndChar

StartChar: Amacron
Encoding: 256 256 191
Width: 677
Flags: W
LayerCount: 2
Fore
SplineSet
657 0 m 1,0,-1
 512 0 l 1,1,-1
 458 174 l 1,2,-1
 215 174 l 1,3,-1
 162 0 l 1,4,-1
 21 0 l 1,5,-1
 253 698 l 1,6,-1
 426 698 l 1,7,-1
 657 0 l 1,0,-1
424 292 m 1,8,-1
 338 571 l 1,9,-1
 333 571 l 1,10,-1
 248 292 l 1,11,-1
 424 292 l 1,8,-1
487 789 m 1,12,-1
 185 789 l 1,13,-1
 185 886 l 1,14,-1
 487 886 l 1,15,-1
 487 789 l 1,12,-1
EndSplineSet
EndChar

StartChar: amacron
Encoding: 257 257 192
Width: 548
Flags: W
LayerCount: 2
Fore
SplineSet
417 626 m 1,0,-1
 115 626 l 1,1,-1
 115 723 l 1,2,-1
 417 723 l 1,3,-1
 417 626 l 1,0,-1
201 -12 m 0,4,5
 117 -12 117 -12 76.5 31.5 c 128,-1,6
 36 75 36 75 36 142 c 0,7,8
 36 227 36 227 97 265 c 128,-1,9
 158 303 158 303 260 303 c 2,10,-1
 347 303 l 1,11,-1
 347 340 l 2,12,13
 347 428 347 428 253 428 c 0,14,15
 209 428 209 428 182 410 c 128,-1,16
 155 392 155 392 136 363 c 1,17,-1
 56 435 l 1,18,19
 117 535 117 535 263 535 c 0,20,21
 482 535 482 535 482 347 c 2,22,-1
 482 0 l 1,23,-1
 360 0 l 1,24,-1
 360 90 l 1,25,-1
 354 90 l 1,26,27
 337 35 337 35 296 11.5 c 128,-1,28
 255 -12 255 -12 201 -12 c 0,4,5
248 84 m 0,29,30
 285 84 285 84 316 99.5 c 128,-1,31
 347 115 347 115 347 157 c 2,32,-1
 347 224 l 1,33,-1
 277 224 l 2,34,35
 172 224 172 224 172 164 c 2,36,-1
 172 145 l 2,37,38
 172 84 172 84 248 84 c 0,29,30
EndSplineSet
EndChar

StartChar: Abreve
Encoding: 258 258 193
Width: 677
Flags: W
LayerCount: 2
Fore
SplineSet
657 0 m 1,0,-1
 512 0 l 1,1,-1
 458 174 l 1,2,-1
 215 174 l 1,3,-1
 162 0 l 1,4,-1
 21 0 l 1,5,-1
 253 698 l 1,6,-1
 426 698 l 1,7,-1
 657 0 l 1,0,-1
424 292 m 1,8,-1
 338 571 l 1,9,-1
 333 571 l 1,10,-1
 248 292 l 1,11,-1
 424 292 l 1,8,-1
336 745 m 0,12,13
 262 745 262 745 216.5 791.5 c 128,-1,14
 171 838 171 838 153 906 c 1,15,-1
 227 945 l 1,16,-1
 238 925 l 2,17,18
 250 904 250 904 260 890 c 0,19,20
 290 840 290 840 336 840 c 0,21,22
 373 840 373 840 393.5 864 c 128,-1,23
 414 888 414 888 439 935 c 2,24,-1
 445 945 l 1,25,-1
 518 906 l 1,26,27
 499 836 499 836 453.5 790.5 c 128,-1,28
 408 745 408 745 336 745 c 0,12,13
EndSplineSet
EndChar

StartChar: abreve
Encoding: 259 259 194
Width: 548
Flags: W
LayerCount: 2
Fore
SplineSet
266 582 m 0,0,1
 216 582 216 582 179.5 604.5 c 128,-1,2
 143 627 143 627 119 663.5 c 128,-1,3
 95 700 95 700 83 744 c 1,4,-1
 157 782 l 1,5,-1
 164 770 l 2,6,7
 187 728 187 728 208.5 703 c 128,-1,8
 230 678 230 678 266 678 c 0,9,10
 301 678 301 678 321.5 702 c 128,-1,11
 342 726 342 726 369 771 c 2,12,-1
 375 782 l 1,13,-1
 448 744 l 1,14,15
 427 673 427 673 381 627.5 c 128,-1,16
 335 582 335 582 266 582 c 0,0,1
201 -12 m 0,17,18
 117 -12 117 -12 76.5 31.5 c 128,-1,19
 36 75 36 75 36 142 c 0,20,21
 36 227 36 227 97 265 c 128,-1,22
 158 303 158 303 260 303 c 2,23,-1
 347 303 l 1,24,-1
 347 340 l 2,25,26
 347 428 347 428 253 428 c 0,27,28
 209 428 209 428 182 410 c 128,-1,29
 155 392 155 392 136 363 c 1,30,-1
 56 435 l 1,31,32
 117 535 117 535 263 535 c 0,33,34
 482 535 482 535 482 347 c 2,35,-1
 482 0 l 1,36,-1
 360 0 l 1,37,-1
 360 90 l 1,38,-1
 354 90 l 1,39,40
 337 35 337 35 296 11.5 c 128,-1,41
 255 -12 255 -12 201 -12 c 0,17,18
248 84 m 0,42,43
 285 84 285 84 316 99.5 c 128,-1,44
 347 115 347 115 347 157 c 2,45,-1
 347 224 l 1,46,-1
 277 224 l 2,47,48
 172 224 172 224 172 164 c 2,49,-1
 172 145 l 2,50,51
 172 84 172 84 248 84 c 0,42,43
EndSplineSet
EndChar

StartChar: Aogonek
Encoding: 260 260 195
Width: 677
Flags: W
LayerCount: 2
Fore
SplineSet
571 -211 m 0,0,1
 452 -211 452 -211 452 -128 c 0,2,3
 452 -87 452 -87 481 -58.5 c 128,-1,4
 510 -30 510 -30 568 -4 c 1,5,-1
 567 0 l 1,6,-1
 512 0 l 1,7,-1
 458 174 l 1,8,-1
 215 174 l 1,9,-1
 162 0 l 1,10,-1
 21 0 l 1,11,-1
 253 698 l 1,12,-1
 426 698 l 1,13,-1
 657 0 l 1,14,15
 588 -44 588 -44 566.5 -67 c 128,-1,16
 545 -90 545 -90 545 -108 c 0,17,18
 545 -141 545 -141 582 -141 c 0,19,20
 612 -141 612 -141 636 -114 c 1,21,-1
 686 -162 l 1,22,23
 662 -211 662 -211 571 -211 c 0,0,1
424 292 m 1,24,-1
 338 571 l 1,25,-1
 333 571 l 1,26,-1
 248 292 l 1,27,-1
 424 292 l 1,24,-1
EndSplineSet
EndChar

StartChar: aogonek
Encoding: 261 261 196
Width: 548
Flags: W
LayerCount: 2
Fore
SplineSet
248 84 m 0,0,1
 285 84 285 84 316 99.5 c 128,-1,2
 347 115 347 115 347 157 c 2,3,-1
 347 224 l 1,4,-1
 277 224 l 2,5,6
 172 224 172 224 172 164 c 2,7,-1
 172 145 l 2,8,9
 172 84 172 84 248 84 c 0,0,1
396 -211 m 0,10,11
 349 -211 349 -211 313.5 -193 c 128,-1,12
 278 -175 278 -175 278 -128 c 0,13,14
 278 -87 278 -87 308 -58.5 c 128,-1,15
 338 -30 338 -30 393 -4 c 1,16,-1
 392 0 l 1,17,-1
 360 0 l 1,18,-1
 360 90 l 1,19,-1
 354 90 l 1,20,21
 337 35 337 35 295.5 11.5 c 128,-1,22
 254 -12 254 -12 201 -12 c 0,23,24
 113 -12 113 -12 74.5 32.5 c 128,-1,25
 36 77 36 77 36 142 c 0,26,27
 36 227 36 227 97 265 c 128,-1,28
 158 303 158 303 260 303 c 2,29,-1
 347 303 l 1,30,-1
 347 340 l 2,31,32
 347 428 347 428 253 428 c 0,33,34
 208 428 208 428 181 409.5 c 128,-1,35
 154 391 154 391 136 363 c 1,36,-1
 56 435 l 1,37,38
 111 535 111 535 263 535 c 0,39,40
 482 535 482 535 482 347 c 2,41,-1
 482 0 l 1,42,43
 371 -67 371 -67 371 -108 c 0,44,45
 371 -141 371 -141 407 -141 c 0,46,47
 437 -141 437 -141 461 -114 c 1,48,-1
 512 -162 l 1,49,50
 486 -211 486 -211 396 -211 c 0,10,11
EndSplineSet
EndChar

StartChar: Cacute
Encoding: 262 262 197
Width: 645
Flags: W
LayerCount: 2
Fore
SplineSet
355 -12 m 0,0,1
 265 -12 265 -12 196.5 27 c 128,-1,2
 128 66 128 66 90 145.5 c 128,-1,3
 52 225 52 225 52 346 c 0,4,5
 52 470 52 470 91 550.5 c 128,-1,6
 130 631 130 631 198.5 670.5 c 128,-1,7
 267 710 267 710 355 710 c 0,8,9
 450 710 450 710 512.5 669.5 c 128,-1,10
 575 629 575 629 612 548 c 1,11,-1
 493 485 l 1,12,13
 465 586 465 586 355 586 c 0,14,15
 288 586 288 586 243.5 542.5 c 128,-1,16
 199 499 199 499 199 404 c 2,17,-1
 199 294 l 2,18,19
 199 197 199 197 244 154.5 c 128,-1,20
 289 112 289 112 355 112 c 0,21,22
 466 112 466 112 502 220 c 1,23,-1
 615 153 l 1,24,25
 537 -12 537 -12 355 -12 c 0,0,1
366 743 m 1,26,-1
 285 782 l 1,27,-1
 381 972 l 1,28,-1
 495 916 l 1,29,-1
 366 743 l 1,26,-1
EndSplineSet
EndChar

StartChar: cacute
Encoding: 263 263 198
Width: 515
Flags: W
LayerCount: 2
Fore
SplineSet
280 -12 m 0,0,1
 166 -12 166 -12 102 61 c 128,-1,2
 38 134 38 134 38 262 c 0,3,4
 38 385 38 385 100 460 c 128,-1,5
 162 535 162 535 280 535 c 0,6,7
 437 535 437 535 487 401 c 1,8,-1
 377 353 l 1,9,10
 360 427 360 427 280 427 c 0,11,12
 224 427 224 427 201.5 392.5 c 128,-1,13
 179 358 179 358 179 309 c 2,14,-1
 179 213 l 2,15,16
 179 163 179 163 202 129 c 128,-1,17
 225 95 225 95 280 95 c 0,18,19
 361 95 361 95 386 177 c 1,20,-1
 491 129 l 1,21,22
 437 -12 437 -12 280 -12 c 0,0,1
290 580 m 1,23,-1
 209 620 l 1,24,-1
 305 809 l 1,25,-1
 419 753 l 1,26,-1
 290 580 l 1,23,-1
EndSplineSet
EndChar

StartChar: Ccircumflex
Encoding: 264 264 199
Width: 645
Flags: W
LayerCount: 2
Fore
SplineSet
355 -12 m 0,0,1
 265 -12 265 -12 196.5 27 c 128,-1,2
 128 66 128 66 90 145.5 c 128,-1,3
 52 225 52 225 52 346 c 0,4,5
 52 470 52 470 91 550.5 c 128,-1,6
 130 631 130 631 198.5 670.5 c 128,-1,7
 267 710 267 710 355 710 c 0,8,9
 450 710 450 710 512.5 669.5 c 128,-1,10
 575 629 575 629 612 548 c 1,11,-1
 493 485 l 1,12,13
 465 586 465 586 355 586 c 0,14,15
 288 586 288 586 243.5 542.5 c 128,-1,16
 199 499 199 499 199 404 c 2,17,-1
 199 294 l 2,18,19
 199 197 199 197 244 154.5 c 128,-1,20
 289 112 289 112 355 112 c 0,21,22
 466 112 466 112 502 220 c 1,23,-1
 615 153 l 1,24,25
 537 -12 537 -12 355 -12 c 0,0,1
472 743 m 1,26,-1
 352 859 l 1,27,-1
 231 743 l 1,28,-1
 164 796 l 1,29,-1
 292 952 l 1,30,-1
 411 952 l 1,31,-1
 539 796 l 1,32,-1
 472 743 l 1,26,-1
EndSplineSet
EndChar

StartChar: ccircumflex
Encoding: 265 265 200
Width: 515
Flags: W
LayerCount: 2
Fore
SplineSet
280 -12 m 0,0,1
 166 -12 166 -12 102 61 c 128,-1,2
 38 134 38 134 38 262 c 0,3,4
 38 385 38 385 100 460 c 128,-1,5
 162 535 162 535 280 535 c 0,6,7
 437 535 437 535 487 401 c 1,8,-1
 377 353 l 1,9,10
 360 427 360 427 280 427 c 0,11,12
 224 427 224 427 201.5 392.5 c 128,-1,13
 179 358 179 358 179 309 c 2,14,-1
 179 213 l 2,15,16
 179 163 179 163 202 129 c 128,-1,17
 225 95 225 95 280 95 c 0,18,19
 361 95 361 95 386 177 c 1,20,-1
 491 129 l 1,21,22
 437 -12 437 -12 280 -12 c 0,0,1
396 580 m 1,23,-1
 276 696 l 1,24,-1
 155 580 l 1,25,-1
 88 633 l 1,26,-1
 216 789 l 1,27,-1
 335 789 l 1,28,-1
 463 633 l 1,29,-1
 396 580 l 1,23,-1
EndSplineSet
EndChar

StartChar: Cdot
Encoding: 266 266 201
Width: 645
Flags: W
LayerCount: 2
Fore
SplineSet
355 -12 m 0,0,1
 265 -12 265 -12 196.5 27 c 128,-1,2
 128 66 128 66 90 145.5 c 128,-1,3
 52 225 52 225 52 346 c 0,4,5
 52 470 52 470 91 550.5 c 128,-1,6
 130 631 130 631 198.5 670.5 c 128,-1,7
 267 710 267 710 355 710 c 0,8,9
 450 710 450 710 512.5 669.5 c 128,-1,10
 575 629 575 629 612 548 c 1,11,-1
 493 485 l 1,12,13
 465 586 465 586 355 586 c 0,14,15
 288 586 288 586 243.5 542.5 c 128,-1,16
 199 499 199 499 199 404 c 2,17,-1
 199 294 l 2,18,19
 199 197 199 197 244 154.5 c 128,-1,20
 289 112 289 112 355 112 c 0,21,22
 466 112 466 112 502 220 c 1,23,-1
 615 153 l 1,24,25
 537 -12 537 -12 355 -12 c 0,0,1
352 757 m 0,26,27
 272 757 272 757 269 824 c 2,28,-1
 269 850 l 2,29,30
 269 917 269 917 352 917 c 0,31,32
 434 917 434 917 434 850 c 2,33,-1
 434 824 l 2,34,35
 434 757 434 757 352 757 c 0,26,27
EndSplineSet
EndChar

StartChar: cdot
Encoding: 267 267 202
Width: 515
Flags: W
LayerCount: 2
Fore
SplineSet
280 -12 m 0,0,1
 166 -12 166 -12 102 61 c 128,-1,2
 38 134 38 134 38 262 c 0,3,4
 38 385 38 385 100 460 c 128,-1,5
 162 535 162 535 280 535 c 0,6,7
 437 535 437 535 487 401 c 1,8,-1
 377 353 l 1,9,10
 360 427 360 427 280 427 c 0,11,12
 224 427 224 427 201.5 392.5 c 128,-1,13
 179 358 179 358 179 309 c 2,14,-1
 179 213 l 2,15,16
 179 163 179 163 202 129 c 128,-1,17
 225 95 225 95 280 95 c 0,18,19
 361 95 361 95 386 177 c 1,20,-1
 491 129 l 1,21,22
 437 -12 437 -12 280 -12 c 0,0,1
276 596 m 0,23,24
 194 596 194 596 194 661 c 2,25,-1
 194 687 l 2,26,27
 194 752 194 752 276 752 c 0,28,29
 357 752 357 752 357 687 c 2,30,-1
 357 661 l 2,31,32
 357 596 357 596 276 596 c 0,23,24
EndSplineSet
EndChar

StartChar: Ccaron
Encoding: 268 268 203
Width: 645
Flags: W
LayerCount: 2
Fore
SplineSet
355 -12 m 0,0,1
 265 -12 265 -12 196.5 27 c 128,-1,2
 128 66 128 66 90 145.5 c 128,-1,3
 52 225 52 225 52 346 c 0,4,5
 52 470 52 470 91 550.5 c 128,-1,6
 130 631 130 631 198.5 670.5 c 128,-1,7
 267 710 267 710 355 710 c 0,8,9
 450 710 450 710 512.5 669.5 c 128,-1,10
 575 629 575 629 612 548 c 1,11,-1
 493 485 l 1,12,13
 465 586 465 586 355 586 c 0,14,15
 288 586 288 586 243.5 542.5 c 128,-1,16
 199 499 199 499 199 404 c 2,17,-1
 199 294 l 2,18,19
 199 197 199 197 244 154.5 c 128,-1,20
 289 112 289 112 355 112 c 0,21,22
 466 112 466 112 502 220 c 1,23,-1
 615 153 l 1,24,25
 537 -12 537 -12 355 -12 c 0,0,1
411 752 m 1,26,-1
 292 752 l 1,27,-1
 164 908 l 1,28,-1
 231 961 l 1,29,-1
 352 845 l 1,30,-1
 472 961 l 1,31,-1
 539 908 l 1,32,-1
 411 752 l 1,26,-1
EndSplineSet
EndChar

StartChar: ccaron
Encoding: 269 269 204
Width: 515
Flags: W
LayerCount: 2
Fore
SplineSet
280 -12 m 0,0,1
 166 -12 166 -12 102 61 c 128,-1,2
 38 134 38 134 38 262 c 0,3,4
 38 385 38 385 100 460 c 128,-1,5
 162 535 162 535 280 535 c 0,6,7
 437 535 437 535 487 401 c 1,8,-1
 377 353 l 1,9,10
 360 427 360 427 280 427 c 0,11,12
 224 427 224 427 201.5 392.5 c 128,-1,13
 179 358 179 358 179 309 c 2,14,-1
 179 213 l 2,15,16
 179 163 179 163 202 129 c 128,-1,17
 225 95 225 95 280 95 c 0,18,19
 361 95 361 95 386 177 c 1,20,-1
 491 129 l 1,21,22
 437 -12 437 -12 280 -12 c 0,0,1
335 589 m 1,23,-1
 216 589 l 1,24,-1
 88 745 l 1,25,-1
 155 798 l 1,26,-1
 276 683 l 1,27,-1
 396 798 l 1,28,-1
 463 745 l 1,29,-1
 335 589 l 1,23,-1
EndSplineSet
EndChar

StartChar: Dcaron
Encoding: 270 270 205
Width: 692
Flags: W
LayerCount: 2
Fore
SplineSet
338 0 m 2,0,-1
 80 0 l 1,1,-1
 80 698 l 1,2,-1
 338 698 l 2,3,4
 441 698 441 698 508.5 653 c 128,-1,5
 576 608 576 608 608.5 529.5 c 128,-1,6
 641 451 641 451 641 349 c 0,7,8
 641 230 641 230 601 152.5 c 128,-1,9
 561 75 561 75 492.5 37.5 c 128,-1,10
 424 0 424 0 338 0 c 2,0,-1
338 123 m 2,11,12
 493 123 493 123 493 294 c 2,13,-1
 493 404 l 2,14,15
 493 494 493 494 450 534.5 c 128,-1,16
 407 575 407 575 338 575 c 2,17,-1
 219 575 l 1,18,-1
 219 123 l 1,19,-1
 338 123 l 2,11,12
380 752 m 1,20,-1
 260 752 l 1,21,-1
 132 908 l 1,22,-1
 200 961 l 1,23,-1
 320 845 l 1,24,-1
 440 961 l 1,25,-1
 508 908 l 1,26,-1
 380 752 l 1,20,-1
EndSplineSet
EndChar

StartChar: dcaron
Encoding: 271 271 206
Width: 667
Flags: W
LayerCount: 2
Fore
SplineSet
680 531 m 1,0,-1
 591 531 l 1,1,-1
 599 740 l 1,2,-1
 743 740 l 1,3,-1
 680 531 l 1,0,-1
248 -12 m 0,4,5
 175 -12 175 -12 130 22.5 c 128,-1,6
 85 57 85 57 64.5 118.5 c 128,-1,7
 44 180 44 180 44 262 c 0,8,9
 47 535 47 535 248 535 c 0,10,11
 294 535 294 535 333.5 510.5 c 128,-1,12
 373 486 373 486 391 436 c 1,13,-1
 396 436 l 1,14,-1
 396 740 l 1,15,-1
 531 740 l 1,16,-1
 531 0 l 1,17,-1
 396 0 l 1,18,-1
 396 87 l 1,19,-1
 391 87 l 1,20,21
 370 36 370 36 331.5 12 c 128,-1,22
 293 -12 293 -12 248 -12 c 0,4,5
292 99 m 0,23,24
 346 99 346 99 371 124.5 c 128,-1,25
 396 150 396 150 396 193 c 2,26,-1
 396 343 l 2,27,28
 396 384 396 384 364 404 c 128,-1,29
 332 424 332 424 292 424 c 0,30,31
 233 424 233 424 209 386 c 128,-1,32
 185 348 185 348 185 295 c 2,33,-1
 185 216 l 2,34,35
 185 168 185 168 212 133.5 c 128,-1,36
 239 99 239 99 292 99 c 0,23,24
EndSplineSet
EndChar

StartChar: Dcroat
Encoding: 272 272 207
Width: 697
Flags: W
LayerCount: 2
Fore
SplineSet
342 0 m 2,0,-1
 85 0 l 1,1,-1
 85 305 l 1,2,-1
 9 305 l 1,3,-1
 9 409 l 1,4,-1
 85 409 l 1,5,-1
 85 698 l 1,6,-1
 342 698 l 2,7,8
 446 698 446 698 513 653.5 c 128,-1,9
 580 609 580 609 612.5 530.5 c 128,-1,10
 645 452 645 452 645 349 c 0,11,12
 645 231 645 231 606 153.5 c 128,-1,13
 567 76 567 76 498.5 38 c 128,-1,14
 430 0 430 0 342 0 c 2,0,-1
342 123 m 2,15,16
 412 123 412 123 455 163 c 128,-1,17
 498 203 498 203 498 294 c 2,18,-1
 498 404 l 2,19,20
 498 495 498 495 455 535 c 128,-1,21
 412 575 412 575 342 575 c 2,22,-1
 224 575 l 1,23,-1
 224 409 l 1,24,-1
 346 409 l 1,25,-1
 346 305 l 1,26,-1
 224 305 l 1,27,-1
 224 123 l 1,28,-1
 342 123 l 2,15,16
EndSplineSet
EndChar

StartChar: dcroat
Encoding: 273 273 208
Width: 603
Flags: W
LayerCount: 2
Fore
SplineSet
248 -12 m 0,0,1
 175 -12 175 -12 130 22.5 c 128,-1,2
 85 57 85 57 64.5 118.5 c 128,-1,3
 44 180 44 180 44 262 c 0,4,5
 48 535 48 535 248 535 c 0,6,7
 293 535 293 535 333 511 c 128,-1,8
 373 487 373 487 391 436 c 1,9,-1
 396 436 l 1,10,-1
 396 593 l 1,11,-1
 253 593 l 1,12,-1
 253 686 l 1,13,-1
 396 686 l 1,14,-1
 396 740 l 1,15,-1
 531 740 l 1,16,-1
 531 686 l 1,17,-1
 592 686 l 1,18,-1
 592 593 l 1,19,-1
 531 593 l 1,20,-1
 531 0 l 1,21,-1
 396 0 l 1,22,-1
 396 87 l 1,23,-1
 391 87 l 1,24,25
 371 36 371 36 333 12 c 128,-1,26
 295 -12 295 -12 248 -12 c 0,0,1
292 99 m 0,27,28
 346 99 346 99 371 124.5 c 128,-1,29
 396 150 396 150 396 193 c 2,30,-1
 396 343 l 2,31,32
 396 384 396 384 364 404 c 128,-1,33
 332 424 332 424 292 424 c 0,34,35
 233 424 233 424 209 386 c 128,-1,36
 185 348 185 348 185 295 c 2,37,-1
 185 216 l 2,38,39
 185 168 185 168 212 133.5 c 128,-1,40
 239 99 239 99 292 99 c 0,27,28
EndSplineSet
EndChar

StartChar: Emacron
Encoding: 274 274 209
Width: 602
Flags: W
LayerCount: 2
Fore
SplineSet
546 0 m 1,0,-1
 80 0 l 1,1,-1
 80 698 l 1,2,-1
 546 698 l 1,3,-1
 546 575 l 1,4,-1
 219 575 l 1,5,-1
 219 415 l 1,6,-1
 505 415 l 1,7,-1
 505 292 l 1,8,-1
 219 292 l 1,9,-1
 219 123 l 1,10,-1
 546 123 l 1,11,-1
 546 0 l 1,0,-1
464 789 m 1,12,-1
 162 789 l 1,13,-1
 162 886 l 1,14,-1
 464 886 l 1,15,-1
 464 789 l 1,12,-1
EndSplineSet
EndChar

StartChar: emacron
Encoding: 275 275 210
Width: 560
Flags: W
LayerCount: 2
Fore
SplineSet
286 -12 m 0,0,1
 204 -12 204 -12 149 23 c 128,-1,2
 94 58 94 58 66 120 c 128,-1,3
 38 182 38 182 38 262 c 0,4,5
 38 339 38 339 64.5 401 c 128,-1,6
 91 463 91 463 145.5 499 c 128,-1,7
 200 535 200 535 282 535 c 0,8,9
 370 535 370 535 422.5 497 c 128,-1,10
 475 459 475 459 498.5 398 c 128,-1,11
 522 337 522 337 522 270 c 2,12,-1
 522 227 l 1,13,-1
 178 227 l 1,14,15
 178 95 178 95 301 95 c 0,16,17
 381 95 381 95 433 163 c 1,18,-1
 503 81 l 1,19,20
 430 -12 430 -12 286 -12 c 0,0,1
381 309 m 1,21,22
 381 434 381 434 284 434 c 0,23,24
 245 434 245 434 221.5 416.5 c 128,-1,25
 198 399 198 399 188 370.5 c 128,-1,26
 178 342 178 342 178 309 c 1,27,-1
 381 309 l 1,21,22
437 626 m 1,28,-1
 136 626 l 1,29,-1
 136 723 l 1,30,-1
 437 723 l 1,31,-1
 437 626 l 1,28,-1
EndSplineSet
EndChar

StartChar: Ebreve
Encoding: 276 276 211
Width: 602
Flags: W
LayerCount: 2
Fore
SplineSet
546 0 m 1,0,-1
 80 0 l 1,1,-1
 80 698 l 1,2,-1
 546 698 l 1,3,-1
 546 575 l 1,4,-1
 219 575 l 1,5,-1
 219 415 l 1,6,-1
 505 415 l 1,7,-1
 505 292 l 1,8,-1
 219 292 l 1,9,-1
 219 123 l 1,10,-1
 546 123 l 1,11,-1
 546 0 l 1,0,-1
313 745 m 0,12,13
 239 745 239 745 193.5 791.5 c 128,-1,14
 148 838 148 838 130 906 c 1,15,-1
 204 945 l 1,16,-1
 215 925 l 2,17,18
 227 904 227 904 237 890 c 0,19,20
 267 840 267 840 313 840 c 0,21,22
 350 840 350 840 370.5 864 c 128,-1,23
 391 888 391 888 416 935 c 2,24,-1
 422 945 l 1,25,-1
 495 906 l 1,26,27
 476 836 476 836 430.5 790.5 c 128,-1,28
 385 745 385 745 313 745 c 0,12,13
EndSplineSet
EndChar

StartChar: ebreve
Encoding: 277 277 212
Width: 560
Flags: W
LayerCount: 2
Fore
SplineSet
286 -12 m 0,0,1
 204 -12 204 -12 149 23 c 128,-1,2
 94 58 94 58 66 120 c 128,-1,3
 38 182 38 182 38 262 c 0,4,5
 38 339 38 339 64.5 401 c 128,-1,6
 91 463 91 463 145.5 499 c 128,-1,7
 200 535 200 535 282 535 c 0,8,9
 370 535 370 535 422.5 497 c 128,-1,10
 475 459 475 459 498.5 398 c 128,-1,11
 522 337 522 337 522 270 c 2,12,-1
 522 227 l 1,13,-1
 178 227 l 1,14,15
 178 95 178 95 301 95 c 0,16,17
 381 95 381 95 433 163 c 1,18,-1
 503 81 l 1,19,20
 430 -12 430 -12 286 -12 c 0,0,1
381 309 m 1,21,22
 381 434 381 434 284 434 c 0,23,24
 245 434 245 434 221.5 416.5 c 128,-1,25
 198 399 198 399 188 370.5 c 128,-1,26
 178 342 178 342 178 309 c 1,27,-1
 381 309 l 1,21,22
286 582 m 0,28,29
 235 582 235 582 198.5 605 c 128,-1,30
 162 628 162 628 138.5 665 c 128,-1,31
 115 702 115 702 104 744 c 1,32,-1
 178 782 l 1,33,34
 187 766 187 766 192 757.5 c 128,-1,35
 197 749 197 749 201.5 741.5 c 128,-1,36
 206 734 206 734 213 724 c 0,37,38
 245 678 245 678 286 678 c 0,39,40
 319 678 319 678 339.5 700 c 128,-1,41
 360 722 360 722 385 764 c 2,42,-1
 396 782 l 1,43,-1
 469 744 l 1,44,45
 447 671 447 671 400.5 626.5 c 128,-1,46
 354 582 354 582 286 582 c 0,28,29
EndSplineSet
EndChar

StartChar: Edot
Encoding: 278 278 213
Width: 602
Flags: W
LayerCount: 2
Fore
SplineSet
546 0 m 1,0,-1
 80 0 l 1,1,-1
 80 698 l 1,2,-1
 546 698 l 1,3,-1
 546 575 l 1,4,-1
 219 575 l 1,5,-1
 219 415 l 1,6,-1
 505 415 l 1,7,-1
 505 292 l 1,8,-1
 219 292 l 1,9,-1
 219 123 l 1,10,-1
 546 123 l 1,11,-1
 546 0 l 1,0,-1
313 757 m 0,12,13
 233 757 233 757 230 824 c 2,14,-1
 230 850 l 2,15,16
 230 917 230 917 313 917 c 256,17,18
 396 917 396 917 396 850 c 2,19,-1
 396 824 l 2,20,21
 396 757 396 757 313 757 c 0,12,13
EndSplineSet
EndChar

StartChar: edot
Encoding: 279 279 214
Width: 560
Flags: W
LayerCount: 2
Fore
SplineSet
286 -12 m 0,0,1
 204 -12 204 -12 149 23 c 128,-1,2
 94 58 94 58 66 120 c 128,-1,3
 38 182 38 182 38 262 c 0,4,5
 38 339 38 339 64.5 401 c 128,-1,6
 91 463 91 463 145.5 499 c 128,-1,7
 200 535 200 535 282 535 c 0,8,9
 370 535 370 535 422.5 497 c 128,-1,10
 475 459 475 459 498.5 398 c 128,-1,11
 522 337 522 337 522 270 c 2,12,-1
 522 227 l 1,13,-1
 178 227 l 1,14,15
 178 95 178 95 301 95 c 0,16,17
 381 95 381 95 433 163 c 1,18,-1
 503 81 l 1,19,20
 430 -12 430 -12 286 -12 c 0,0,1
381 309 m 1,21,22
 381 434 381 434 284 434 c 0,23,24
 245 434 245 434 221.5 416.5 c 128,-1,25
 198 399 198 399 188 370.5 c 128,-1,26
 178 342 178 342 178 309 c 1,27,-1
 381 309 l 1,21,22
287 596 m 0,28,29
 205 596 205 596 205 661 c 2,30,-1
 205 687 l 2,31,32
 205 752 205 752 287 752 c 0,33,34
 368 752 368 752 368 687 c 2,35,-1
 368 661 l 2,36,37
 368 596 368 596 287 596 c 0,28,29
EndSplineSet
EndChar

StartChar: Eogonek
Encoding: 280 280 215
Width: 602
Flags: W
LayerCount: 2
Fore
SplineSet
461 -211 m 0,0,1
 342 -211 342 -211 342 -128 c 0,2,3
 342 -88 342 -88 372 -59 c 128,-1,4
 402 -30 402 -30 458 -4 c 1,5,-1
 457 0 l 1,6,-1
 80 0 l 1,7,-1
 80 698 l 1,8,-1
 546 698 l 1,9,-1
 546 575 l 1,10,-1
 219 575 l 1,11,-1
 219 415 l 1,12,-1
 505 415 l 1,13,-1
 505 292 l 1,14,-1
 219 292 l 1,15,-1
 219 123 l 1,16,-1
 546 123 l 1,17,-1
 546 0 l 1,18,19
 484 -41 484 -41 460 -64 c 128,-1,20
 436 -87 436 -87 436 -108 c 0,21,22
 436 -141 436 -141 472 -141 c 0,23,24
 502 -141 502 -141 526 -114 c 1,25,-1
 576 -162 l 1,26,27
 552 -211 552 -211 461 -211 c 0,0,1
EndSplineSet
EndChar

StartChar: eogonek
Encoding: 281 281 216
Width: 560
Flags: W
LayerCount: 2
Fore
SplineSet
340 -211 m 0,0,1
 314 -211 314 -211 287 -204.5 c 128,-1,2
 260 -198 260 -198 241.5 -180 c 128,-1,3
 223 -162 223 -162 223 -128 c 0,4,5
 223 -85 223 -85 254.5 -58 c 128,-1,6
 286 -31 286 -31 335 -10 c 1,7,-1
 333 -6 l 1,8,9
 309 -12 309 -12 282 -12 c 0,10,11
 200 -12 200 -12 146 23.5 c 128,-1,12
 92 59 92 59 65 121 c 128,-1,13
 38 183 38 183 38 262 c 0,14,15
 38 340 38 340 65 402 c 128,-1,16
 92 464 92 464 146 499.5 c 128,-1,17
 200 535 200 535 281 535 c 0,18,19
 365 535 365 535 418 498.5 c 128,-1,20
 471 462 471 462 496 401.5 c 128,-1,21
 521 341 521 341 521 270 c 2,22,-1
 521 227 l 1,23,-1
 178 227 l 1,24,25
 178 95 178 95 303 95 c 0,26,27
 382 95 382 95 433 163 c 1,28,-1
 504 81 l 1,29,30
 485 56 485 56 413 2 c 0,31,32
 366 -34 366 -34 340.5 -59.5 c 128,-1,33
 315 -85 315 -85 315 -109 c 0,34,35
 315 -141 315 -141 352 -141 c 0,36,37
 382 -141 382 -141 405 -114 c 1,38,-1
 454 -162 l 1,39,40
 430 -211 430 -211 340 -211 c 0,0,1
381 309 m 1,41,42
 381 364 381 364 360 399 c 128,-1,43
 339 434 339 434 284 434 c 256,44,45
 229 434 229 434 203.5 398.5 c 128,-1,46
 178 363 178 363 178 317 c 2,47,-1
 178 309 l 1,48,-1
 381 309 l 1,41,42
EndSplineSet
EndChar

StartChar: Ecaron
Encoding: 282 282 217
Width: 602
Flags: W
LayerCount: 2
Fore
SplineSet
546 0 m 1,0,-1
 80 0 l 1,1,-1
 80 698 l 1,2,-1
 546 698 l 1,3,-1
 546 575 l 1,4,-1
 219 575 l 1,5,-1
 219 415 l 1,6,-1
 505 415 l 1,7,-1
 505 292 l 1,8,-1
 219 292 l 1,9,-1
 219 123 l 1,10,-1
 546 123 l 1,11,-1
 546 0 l 1,0,-1
373 752 m 1,12,-1
 253 752 l 1,13,-1
 125 908 l 1,14,-1
 193 961 l 1,15,-1
 313 845 l 1,16,-1
 433 961 l 1,17,-1
 501 908 l 1,18,-1
 373 752 l 1,12,-1
EndSplineSet
EndChar

StartChar: ecaron
Encoding: 283 283 218
Width: 560
Flags: W
LayerCount: 2
Fore
SplineSet
286 -12 m 0,0,1
 204 -12 204 -12 149 23 c 128,-1,2
 94 58 94 58 66 120 c 128,-1,3
 38 182 38 182 38 262 c 0,4,5
 38 339 38 339 64.5 401 c 128,-1,6
 91 463 91 463 145.5 499 c 128,-1,7
 200 535 200 535 282 535 c 0,8,9
 370 535 370 535 422.5 497 c 128,-1,10
 475 459 475 459 498.5 398 c 128,-1,11
 522 337 522 337 522 270 c 2,12,-1
 522 227 l 1,13,-1
 178 227 l 1,14,15
 178 95 178 95 301 95 c 0,16,17
 381 95 381 95 433 163 c 1,18,-1
 503 81 l 1,19,20
 430 -12 430 -12 286 -12 c 0,0,1
381 309 m 1,21,22
 381 434 381 434 284 434 c 0,23,24
 245 434 245 434 221.5 416.5 c 128,-1,25
 198 399 198 399 188 370.5 c 128,-1,26
 178 342 178 342 178 309 c 1,27,-1
 381 309 l 1,21,22
346 589 m 1,28,-1
 227 589 l 1,29,-1
 99 745 l 1,30,-1
 166 798 l 1,31,-1
 287 683 l 1,32,-1
 407 798 l 1,33,-1
 474 745 l 1,34,-1
 346 589 l 1,28,-1
EndSplineSet
EndChar

StartChar: Gcircumflex
Encoding: 284 284 219
Width: 714
Flags: W
LayerCount: 2
Fore
SplineSet
338 -12 m 0,0,1
 244 -12 244 -12 180.5 35 c 128,-1,2
 117 82 117 82 84.5 163 c 128,-1,3
 52 244 52 244 52 347 c 0,4,5
 52 468 52 468 92.5 548.5 c 128,-1,6
 133 629 133 629 203.5 669.5 c 128,-1,7
 274 710 274 710 364 710 c 0,8,9
 551 710 551 710 630 550 c 1,10,-1
 517 484 l 1,11,12
 479 586 479 586 364 586 c 0,13,14
 317 586 317 586 279.5 567.5 c 128,-1,15
 242 549 242 549 220.5 509.5 c 128,-1,16
 199 470 199 470 199 405 c 2,17,-1
 199 293 l 2,18,19
 199 198 199 198 245 155 c 128,-1,20
 291 112 291 112 364 112 c 0,21,22
 399 112 399 112 432.5 123.5 c 128,-1,23
 466 135 466 135 488 159.5 c 128,-1,24
 510 184 510 184 510 225 c 2,25,-1
 510 266 l 1,26,-1
 376 266 l 1,27,-1
 376 383 l 1,28,-1
 643 383 l 1,29,-1
 643 0 l 1,30,-1
 525 0 l 1,31,-1
 525 109 l 1,32,-1
 520 109 l 1,33,34
 512 57 512 57 468 22.5 c 128,-1,35
 424 -12 424 -12 338 -12 c 0,0,1
478 743 m 1,36,-1
 358 859 l 1,37,-1
 237 743 l 1,38,-1
 170 796 l 1,39,-1
 298 952 l 1,40,-1
 417 952 l 1,41,-1
 545 796 l 1,42,-1
 478 743 l 1,36,-1
EndSplineSet
EndChar

StartChar: Gbreve
Encoding: 286 286 221
Width: 714
Flags: W
LayerCount: 2
Fore
SplineSet
338 -12 m 0,0,1
 244 -12 244 -12 180.5 35 c 128,-1,2
 117 82 117 82 84.5 163 c 128,-1,3
 52 244 52 244 52 347 c 0,4,5
 52 468 52 468 92.5 548.5 c 128,-1,6
 133 629 133 629 203.5 669.5 c 128,-1,7
 274 710 274 710 364 710 c 0,8,9
 551 710 551 710 630 550 c 1,10,-1
 517 484 l 1,11,12
 479 586 479 586 364 586 c 0,13,14
 317 586 317 586 279.5 567.5 c 128,-1,15
 242 549 242 549 220.5 509.5 c 128,-1,16
 199 470 199 470 199 405 c 2,17,-1
 199 293 l 2,18,19
 199 198 199 198 245 155 c 128,-1,20
 291 112 291 112 364 112 c 0,21,22
 399 112 399 112 432.5 123.5 c 128,-1,23
 466 135 466 135 488 159.5 c 128,-1,24
 510 184 510 184 510 225 c 2,25,-1
 510 266 l 1,26,-1
 376 266 l 1,27,-1
 376 383 l 1,28,-1
 643 383 l 1,29,-1
 643 0 l 1,30,-1
 525 0 l 1,31,-1
 525 109 l 1,32,-1
 520 109 l 1,33,34
 512 57 512 57 468 22.5 c 128,-1,35
 424 -12 424 -12 338 -12 c 0,0,1
357 745 m 0,36,37
 306 745 306 745 269 767.5 c 128,-1,38
 232 790 232 790 208.5 826.5 c 128,-1,39
 185 863 185 863 175 906 c 1,40,-1
 249 945 l 1,41,42
 282 887 282 887 299 867 c 0,43,44
 321 840 321 840 357 840 c 0,45,46
 386 840 386 840 406.5 857.5 c 128,-1,47
 427 875 427 875 447 912 c 2,48,-1
 467 945 l 1,49,-1
 540 906 l 1,50,51
 520 836 520 836 474.5 790.5 c 128,-1,52
 429 745 429 745 357 745 c 0,36,37
EndSplineSet
EndChar

StartChar: Gdot
Encoding: 288 288 223
Width: 714
Flags: W
LayerCount: 2
Fore
SplineSet
338 -12 m 0,0,1
 244 -12 244 -12 180.5 35 c 128,-1,2
 117 82 117 82 84.5 163 c 128,-1,3
 52 244 52 244 52 347 c 0,4,5
 52 468 52 468 92.5 548.5 c 128,-1,6
 133 629 133 629 203.5 669.5 c 128,-1,7
 274 710 274 710 364 710 c 0,8,9
 551 710 551 710 630 550 c 1,10,-1
 517 484 l 1,11,12
 479 586 479 586 364 586 c 0,13,14
 317 586 317 586 279.5 567.5 c 128,-1,15
 242 549 242 549 220.5 509.5 c 128,-1,16
 199 470 199 470 199 405 c 2,17,-1
 199 293 l 2,18,19
 199 198 199 198 245 155 c 128,-1,20
 291 112 291 112 364 112 c 0,21,22
 399 112 399 112 432.5 123.5 c 128,-1,23
 466 135 466 135 488 159.5 c 128,-1,24
 510 184 510 184 510 225 c 2,25,-1
 510 266 l 1,26,-1
 376 266 l 1,27,-1
 376 383 l 1,28,-1
 643 383 l 1,29,-1
 643 0 l 1,30,-1
 525 0 l 1,31,-1
 525 109 l 1,32,-1
 520 109 l 1,33,34
 512 57 512 57 468 22.5 c 128,-1,35
 424 -12 424 -12 338 -12 c 0,0,1
358 757 m 0,36,37
 278 757 278 757 275 824 c 2,38,-1
 275 850 l 2,39,40
 275 917 275 917 358 917 c 0,41,42
 440 917 440 917 440 850 c 2,43,-1
 440 824 l 2,44,45
 440 757 440 757 358 757 c 0,36,37
EndSplineSet
EndChar

StartChar: Gcedilla
Encoding: 290 290 225
Width: 714
Flags: W
LayerCount: 2
Fore
SplineSet
338 -12 m 0,0,1
 244 -12 244 -12 180.5 35 c 128,-1,2
 117 82 117 82 84.5 163 c 128,-1,3
 52 244 52 244 52 347 c 0,4,5
 52 468 52 468 92.5 548.5 c 128,-1,6
 133 629 133 629 203.5 669.5 c 128,-1,7
 274 710 274 710 364 710 c 0,8,9
 551 710 551 710 630 550 c 1,10,-1
 517 484 l 1,11,12
 479 586 479 586 364 586 c 0,13,14
 317 586 317 586 279.5 567.5 c 128,-1,15
 242 549 242 549 220.5 509.5 c 128,-1,16
 199 470 199 470 199 405 c 2,17,-1
 199 293 l 2,18,19
 199 198 199 198 245 155 c 128,-1,20
 291 112 291 112 364 112 c 0,21,22
 399 112 399 112 432.5 123.5 c 128,-1,23
 466 135 466 135 488 159.5 c 128,-1,24
 510 184 510 184 510 225 c 2,25,-1
 510 266 l 1,26,-1
 376 266 l 1,27,-1
 376 383 l 1,28,-1
 643 383 l 1,29,-1
 643 0 l 1,30,-1
 525 0 l 1,31,-1
 525 109 l 1,32,-1
 520 109 l 1,33,34
 512 57 512 57 468 22.5 c 128,-1,35
 424 -12 424 -12 338 -12 c 0,0,1
349 -269 m 1,36,-1
 269 -269 l 1,37,38
 315 -231 315 -231 329 -174 c 1,39,40
 301 -170 301 -170 291.5 -152 c 128,-1,41
 282 -134 282 -134 282 -108 c 0,42,43
 285 -47 285 -47 348 -47 c 0,44,45
 414 -47 414 -47 414 -106 c 0,46,47
 414 -134 414 -134 410.5 -155.5 c 128,-1,48
 407 -177 407 -177 397 -201 c 0,49,50
 379 -242 379 -242 349 -269 c 1,36,-1
EndSplineSet
EndChar

StartChar: Hcircumflex
Encoding: 292 292 227
Width: 721
Flags: W
LayerCount: 2
Fore
SplineSet
641 0 m 1,0,-1
 502 0 l 1,1,-1
 502 292 l 1,2,-1
 219 292 l 1,3,-1
 219 0 l 1,4,-1
 80 0 l 1,5,-1
 80 698 l 1,6,-1
 219 698 l 1,7,-1
 219 415 l 1,8,-1
 502 415 l 1,9,-1
 502 698 l 1,10,-1
 641 698 l 1,11,-1
 641 0 l 1,0,-1
481 743 m 1,12,-1
 360 859 l 1,13,-1
 240 743 l 1,14,-1
 173 796 l 1,15,-1
 301 952 l 1,16,-1
 420 952 l 1,17,-1
 548 796 l 1,18,-1
 481 743 l 1,12,-1
EndSplineSet
EndChar

StartChar: hcircumflex
Encoding: 293 293 228
Width: 591
Flags: W
LayerCount: 2
Fore
SplineSet
524 0 m 1,0,-1
 389 0 l 1,1,-1
 389 317 l 2,2,3
 389 375 389 375 369.5 399.5 c 128,-1,4
 350 424 350 424 308 424 c 0,5,6
 268 424 268 424 237.5 404.5 c 128,-1,7
 207 385 207 385 207 343 c 2,8,-1
 207 0 l 1,9,-1
 72 0 l 1,10,-1
 72 740 l 1,11,-1
 207 740 l 1,12,-1
 207 435 l 1,13,-1
 213 435 l 1,14,15
 247 535 247 535 359 535 c 0,16,17
 446 535 446 535 485 477 c 128,-1,18
 524 419 524 419 524 329 c 2,19,-1
 524 0 l 1,0,-1
261 738 m 1,20,-1
 141 854 l 1,21,-1
 21 738 l 1,22,-1
 -47 791 l 1,23,-1
 81 947 l 1,24,-1
 201 947 l 1,25,-1
 329 791 l 1,26,-1
 261 738 l 1,20,-1
EndSplineSet
EndChar

StartChar: Hbar
Encoding: 294 294 229
Width: 730
Flags: W
LayerCount: 2
Fore
SplineSet
645 0 m 1,0,-1
 506 0 l 1,1,-1
 506 292 l 1,2,-1
 224 292 l 1,3,-1
 224 0 l 1,4,-1
 85 0 l 1,5,-1
 85 508 l 1,6,-1
 12 508 l 1,7,-1
 12 613 l 1,8,-1
 85 613 l 1,9,-1
 85 698 l 1,10,-1
 224 698 l 1,11,-1
 224 613 l 1,12,-1
 506 613 l 1,13,-1
 506 698 l 1,14,-1
 645 698 l 1,15,-1
 645 613 l 1,16,-1
 718 613 l 1,17,-1
 718 508 l 1,18,-1
 645 508 l 1,19,-1
 645 0 l 1,0,-1
506 415 m 1,20,-1
 506 508 l 1,21,-1
 224 508 l 1,22,-1
 224 415 l 1,23,-1
 506 415 l 1,20,-1
EndSplineSet
EndChar

StartChar: hbar
Encoding: 295 295 230
Width: 591
Flags: W
LayerCount: 2
Fore
SplineSet
524 0 m 1,0,-1
 389 0 l 1,1,-1
 389 317 l 2,2,3
 389 424 389 424 311 424 c 0,4,5
 272 424 272 424 239.5 405 c 128,-1,6
 207 386 207 386 207 343 c 2,7,-1
 207 0 l 1,8,-1
 72 0 l 1,9,-1
 72 593 l 1,10,-1
 10 593 l 1,11,-1
 10 686 l 1,12,-1
 72 686 l 1,13,-1
 72 740 l 1,14,-1
 207 740 l 1,15,-1
 207 686 l 1,16,-1
 349 686 l 1,17,-1
 349 593 l 1,18,-1
 207 593 l 1,19,-1
 207 435 l 1,20,-1
 213 435 l 1,21,22
 247 535 247 535 359 535 c 0,23,24
 418 535 418 535 454.5 508.5 c 128,-1,25
 491 482 491 482 507.5 435.5 c 128,-1,26
 524 389 524 389 524 329 c 2,27,-1
 524 0 l 1,0,-1
EndSplineSet
EndChar

StartChar: itilde
Encoding: 297 297 232
Width: 279
Flags: W
LayerCount: 2
Fore
SplineSet
207 0 m 1,0,-1
 72 0 l 1,1,-1
 72 523 l 1,2,-1
 207 523 l 1,3,-1
 207 0 l 1,0,-1
216 603 m 0,4,5
 186 603 186 603 162.5 614.5 c 128,-1,6
 139 626 139 626 114 634 c 0,7,8
 85 647 85 647 62 647 c 0,9,10
 33 647 33 647 3 621 c 1,11,-1
 -45 684 l 1,12,13
 -6 746 -6 746 65 746 c 0,14,15
 96 746 96 746 120 735 c 0,16,17
 186 702 186 702 219 702 c 256,18,19
 252 702 252 702 278 728 c 1,20,-1
 326 665 l 1,21,22
 288 603 288 603 216 603 c 0,4,5
EndSplineSet
EndChar

StartChar: imacron
Encoding: 299 299 234
Width: 279
Flags: W
LayerCount: 2
Fore
SplineSet
207 0 m 1,0,-1
 72 0 l 1,1,-1
 72 523 l 1,2,-1
 207 523 l 1,3,-1
 207 0 l 1,0,-1
291 626 m 1,4,-1
 -10 626 l 1,5,-1
 -10 723 l 1,6,-1
 291 723 l 1,7,-1
 291 626 l 1,4,-1
EndSplineSet
EndChar

StartChar: ibreve
Encoding: 301 301 236
Width: 279
Flags: W
LayerCount: 2
Fore
SplineSet
207 0 m 1,0,-1
 72 0 l 1,1,-1
 72 523 l 1,2,-1
 207 523 l 1,3,-1
 207 0 l 1,0,-1
140 582 m 0,4,5
 65 582 65 582 21 628.5 c 128,-1,6
 -23 675 -23 675 -42 744 c 1,7,-1
 32 782 l 1,8,9
 41 766 41 766 46 757.5 c 128,-1,10
 51 749 51 749 55.5 741.5 c 128,-1,11
 60 734 60 734 67 724 c 0,12,13
 99 678 99 678 140 678 c 0,14,15
 173 678 173 678 193.5 700 c 128,-1,16
 214 722 214 722 239 764 c 2,17,-1
 250 782 l 1,18,-1
 323 744 l 1,19,20
 301 671 301 671 254.5 626.5 c 128,-1,21
 208 582 208 582 140 582 c 0,4,5
EndSplineSet
EndChar

StartChar: Iogonek
Encoding: 302 302 237
Width: 299
Flags: W
LayerCount: 2
Fore
SplineSet
133 -211 m 0,0,1
 86 -211 86 -211 50.5 -193 c 128,-1,2
 15 -175 15 -175 15 -128 c 0,3,4
 15 -89 15 -89 43 -60 c 128,-1,5
 71 -31 71 -31 130 -4 c 1,6,-1
 129 0 l 1,7,-1
 80 0 l 1,8,-1
 80 698 l 1,9,-1
 219 698 l 1,10,-1
 219 0 l 1,11,12
 151 -44 151 -44 129.5 -66 c 128,-1,13
 108 -88 108 -88 108 -108 c 0,14,15
 108 -141 108 -141 145 -141 c 0,16,17
 175 -141 175 -141 198 -114 c 1,18,-1
 249 -162 l 1,19,20
 224 -211 224 -211 133 -211 c 0,0,1
EndSplineSet
EndChar

StartChar: iogonek
Encoding: 303 303 238
Width: 279
Flags: W
LayerCount: 2
Fore
SplineSet
121 -211 m 0,0,1
 74 -211 74 -211 38.5 -193 c 128,-1,2
 3 -175 3 -175 3 -128 c 0,3,4
 3 -87 3 -87 33 -58.5 c 128,-1,5
 63 -30 63 -30 119 -4 c 1,6,-1
 118 0 l 1,7,-1
 72 0 l 1,8,-1
 72 523 l 1,9,-1
 207 523 l 1,10,-1
 207 0 l 1,11,12
 139 -44 139 -44 117.5 -66 c 128,-1,13
 96 -88 96 -88 96 -108 c 0,14,15
 96 -141 96 -141 133 -141 c 0,16,17
 163 -141 163 -141 186 -114 c 1,18,-1
 237 -162 l 1,19,20
 212 -211 212 -211 121 -211 c 0,0,1
140 592 m 0,21,22
 61 592 61 592 61 659 c 2,23,-1
 61 680 l 2,24,25
 61 708 61 708 79 727.5 c 128,-1,26
 97 747 97 747 140 747 c 0,27,28
 218 747 218 747 218 680 c 2,29,-1
 218 659 l 2,30,31
 218 628 218 628 198.5 610 c 128,-1,32
 179 592 179 592 140 592 c 0,21,22
EndSplineSet
EndChar

StartChar: dotlessi
Encoding: 305 305 240
Width: 279
Flags: W
LayerCount: 2
Fore
SplineSet
207 0 m 1,0,-1
 72 0 l 1,1,-1
 72 523 l 1,2,-1
 207 523 l 1,3,-1
 207 0 l 1,0,-1
EndSplineSet
EndChar

StartChar: ij
Encoding: 307 307 242
Width: 553
Flags: W
LayerCount: 2
Fore
SplineSet
140 592 m 0,0,1
 61 592 61 592 61 659 c 2,2,-1
 61 680 l 2,3,4
 61 708 61 708 79 727.5 c 128,-1,5
 97 747 97 747 140 747 c 0,6,7
 218 747 218 747 218 680 c 2,8,-1
 218 659 l 2,9,10
 218 628 218 628 198.5 610 c 128,-1,11
 179 592 179 592 140 592 c 0,0,1
207 0 m 1,12,-1
 72 0 l 1,13,-1
 72 523 l 1,14,-1
 207 523 l 1,15,-1
 207 0 l 1,12,-1
340 -200 m 2,16,-1
 267 -200 l 1,17,-1
 267 -94 l 1,18,-1
 346 -94 l 1,19,-1
 346 523 l 1,20,-1
 481 523 l 1,21,-1
 481 -61 l 2,22,23
 481 -200 481 -200 340 -200 c 2,16,-1
413 592 m 0,24,25
 334 592 334 592 334 657 c 2,26,-1
 334 680 l 2,27,28
 334 708 334 708 352 727.5 c 128,-1,29
 370 747 370 747 413 747 c 256,30,31
 456 747 456 747 474 727.5 c 128,-1,32
 492 708 492 708 492 680 c 2,33,-1
 492 659 l 2,34,35
 492 630 492 630 473.5 611 c 128,-1,36
 455 592 455 592 413 592 c 0,24,25
EndSplineSet
EndChar

StartChar: Jcircumflex
Encoding: 308 308 243
Width: 550
Flags: W
LayerCount: 2
Fore
SplineSet
250 -11 m 0,0,1
 147 -11 147 -11 92.5 41.5 c 128,-1,2
 38 94 38 94 26 178 c 1,3,-1
 155 204 l 1,4,5
 171 111 171 111 248 111 c 0,6,7
 296 111 296 111 315.5 142.5 c 128,-1,8
 335 174 335 174 335 239 c 2,9,-1
 335 698 l 1,10,-1
 474 698 l 1,11,-1
 474 198 l 2,12,13
 474 128 474 128 444 81.5 c 128,-1,14
 414 35 414 35 363.5 12 c 128,-1,15
 313 -11 313 -11 250 -11 c 0,0,1
416 743 m 1,16,-1
 296 859 l 1,17,-1
 175 743 l 1,18,-1
 108 796 l 1,19,-1
 236 952 l 1,20,-1
 355 952 l 1,21,-1
 483 796 l 1,22,-1
 416 743 l 1,16,-1
EndSplineSet
EndChar

StartChar: jcircumflex
Encoding: 309 309 244
Width: 279
Flags: W
LayerCount: 2
Fore
SplineSet
66 -200 m 2,0,-1
 -7 -200 l 1,1,-1
 -7 -94 l 1,2,-1
 72 -94 l 1,3,-1
 72 523 l 1,4,-1
 207 523 l 1,5,-1
 207 -61 l 2,6,7
 207 -200 207 -200 66 -200 c 2,0,-1
261 580 m 1,8,-1
 141 696 l 1,9,-1
 20 580 l 1,10,-1
 -47 633 l 1,11,-1
 81 789 l 1,12,-1
 200 789 l 1,13,-1
 328 633 l 1,14,-1
 261 580 l 1,8,-1
EndSplineSet
EndChar

StartChar: Kcedilla
Encoding: 310 310 245
Width: 684
Flags: W
LayerCount: 2
Fore
SplineSet
670 0 m 1,0,-1
 506 0 l 1,1,-1
 312 311 l 1,2,-1
 219 201 l 1,3,-1
 219 0 l 1,4,-1
 80 0 l 1,5,-1
 80 698 l 1,6,-1
 219 698 l 1,7,-1
 219 359 l 1,8,-1
 224 359 l 1,9,-1
 294 453 l 2,10,11
 329 499 329 499 376 556 c 0,12,13
 456 653 456 653 491 698 c 1,14,-1
 650 698 l 1,15,-1
 410 409 l 1,16,-1
 670 0 l 1,0,-1
359 -269 m 1,17,-1
 279 -269 l 1,18,19
 325 -231 325 -231 339 -174 c 1,20,21
 312 -171 312 -171 302 -153 c 128,-1,22
 292 -135 292 -135 292 -108 c 0,23,24
 296 -47 296 -47 358 -47 c 0,25,26
 425 -47 425 -47 425 -106 c 0,27,28
 425 -211 425 -211 359 -269 c 1,17,-1
EndSplineSet
EndChar

StartChar: kcedilla
Encoding: 311 311 246
Width: 567
Flags: W
LayerCount: 2
Fore
SplineSet
564 0 m 1,0,-1
 403 0 l 1,1,-1
 275 231 l 1,2,-1
 207 155 l 1,3,-1
 207 0 l 1,4,-1
 72 0 l 1,5,-1
 72 740 l 1,6,-1
 207 740 l 1,7,-1
 207 297 l 1,8,-1
 213 297 l 1,9,-1
 280 393 l 1,10,-1
 392 523 l 1,11,-1
 543 523 l 1,12,-1
 366 322 l 1,13,-1
 564 0 l 1,0,-1
318 -269 m 1,14,-1
 238 -269 l 1,15,16
 284 -231 284 -231 298 -174 c 1,17,18
 269 -171 269 -171 260 -152 c 128,-1,19
 251 -133 251 -133 251 -106 c 0,20,21
 254 -47 254 -47 317 -47 c 0,22,23
 383 -47 383 -47 383 -106 c 0,24,25
 383 -134 383 -134 379.5 -155.5 c 128,-1,26
 376 -177 376 -177 366 -201 c 0,27,28
 348 -242 348 -242 318 -269 c 1,14,-1
EndSplineSet
EndChar

StartChar: kgreenlandic
Encoding: 312 312 247
Width: 567
Flags: W
LayerCount: 2
Fore
SplineSet
564 0 m 1,0,-1
 406 0 l 1,1,-1
 274 228 l 1,2,-1
 207 155 l 1,3,-1
 207 0 l 1,4,-1
 72 0 l 1,5,-1
 72 523 l 1,6,-1
 207 523 l 1,7,-1
 207 297 l 1,8,-1
 213 297 l 1,9,-1
 284 389 l 1,10,-1
 403 523 l 1,11,-1
 556 523 l 1,12,-1
 369 319 l 1,13,-1
 564 0 l 1,0,-1
EndSplineSet
EndChar

StartChar: Lacute
Encoding: 313 313 248
Width: 524
Flags: W
LayerCount: 2
Fore
SplineSet
491 0 m 1,0,-1
 80 0 l 1,1,-1
 80 698 l 1,2,-1
 219 698 l 1,3,-1
 219 123 l 1,4,-1
 491 123 l 1,5,-1
 491 0 l 1,0,-1
165 743 m 1,6,-1
 84 782 l 1,7,-1
 180 972 l 1,8,-1
 294 916 l 1,9,-1
 165 743 l 1,6,-1
EndSplineSet
EndChar

StartChar: lacute
Encoding: 314 314 249
Width: 297
Flags: W
LayerCount: 2
Fore
SplineSet
155 780 m 1,0,-1
 74 820 l 1,1,-1
 170 1009 l 1,2,-1
 284 953 l 1,3,-1
 155 780 l 1,0,-1
275 0 m 1,4,-1
 207 0 l 2,5,6
 72 0 72 0 72 132 c 2,7,-1
 72 740 l 1,8,-1
 207 740 l 1,9,-1
 207 106 l 1,10,-1
 275 106 l 1,11,-1
 275 0 l 1,4,-1
EndSplineSet
EndChar

StartChar: Lcedilla
Encoding: 315 315 250
Width: 524
Flags: W
LayerCount: 2
Fore
SplineSet
491 0 m 1,0,-1
 80 0 l 1,1,-1
 80 698 l 1,2,-1
 219 698 l 1,3,-1
 219 123 l 1,4,-1
 491 123 l 1,5,-1
 491 0 l 1,0,-1
288 -269 m 1,6,-1
 208 -269 l 1,7,8
 254 -232 254 -232 268 -174 c 1,9,10
 221 -167 221 -167 221 -117 c 0,11,12
 221 -47 221 -47 283 -47 c 2,13,-1
 287 -47 l 2,14,15
 354 -47 354 -47 354 -106 c 0,16,17
 354 -211 354 -211 288 -269 c 1,6,-1
EndSplineSet
EndChar

StartChar: lcedilla
Encoding: 316 316 251
Width: 297
Flags: W
LayerCount: 2
Fore
SplineSet
275 0 m 1,0,-1
 207 0 l 2,1,2
 72 0 72 0 72 132 c 2,3,-1
 72 740 l 1,4,-1
 207 740 l 1,5,-1
 207 106 l 1,6,-1
 275 106 l 1,7,-1
 275 0 l 1,0,-1
173 -269 m 1,8,-1
 93 -269 l 1,9,10
 139 -232 139 -232 153 -174 c 1,11,12
 124 -171 124 -171 115 -152 c 128,-1,13
 106 -133 106 -133 106 -106 c 0,14,15
 109 -47 109 -47 172 -47 c 0,16,17
 238 -47 238 -47 238 -106 c 0,18,19
 238 -135 238 -135 234.5 -156.5 c 128,-1,20
 231 -178 231 -178 220 -202 c 0,21,22
 202 -243 202 -243 173 -269 c 1,8,-1
EndSplineSet
EndChar

StartChar: Lcaron
Encoding: 317 317 252
Width: 524
Flags: W
LayerCount: 2
Fore
SplineSet
491 0 m 1,0,-1
 80 0 l 1,1,-1
 80 698 l 1,2,-1
 219 698 l 1,3,-1
 219 123 l 1,4,-1
 491 123 l 1,5,-1
 491 0 l 1,0,-1
381 531 m 1,6,-1
 292 531 l 1,7,-1
 300 740 l 1,8,-1
 444 740 l 1,9,-1
 381 531 l 1,6,-1
EndSplineSet
EndChar

StartChar: lcaron
Encoding: 318 318 253
Width: 343
Flags: W
LayerCount: 2
Fore
SplineSet
356 531 m 1,0,-1
 268 531 l 1,1,-1
 275 740 l 1,2,-1
 420 740 l 1,3,-1
 356 531 l 1,0,-1
275 0 m 1,4,-1
 207 0 l 2,5,6
 72 0 72 0 72 132 c 2,7,-1
 72 740 l 1,8,-1
 207 740 l 1,9,-1
 207 106 l 1,10,-1
 275 106 l 1,11,-1
 275 0 l 1,4,-1
EndSplineSet
EndChar

StartChar: Ldot
Encoding: 319 319 254
Width: 524
Flags: W
LayerCount: 2
Fore
SplineSet
491 0 m 1,0,-1
 80 0 l 1,1,-1
 80 698 l 1,2,-1
 219 698 l 1,3,-1
 219 123 l 1,4,-1
 491 123 l 1,5,-1
 491 0 l 1,0,-1
409 317 m 0,6,7
 327 317 327 317 327 382 c 2,8,-1
 327 408 l 2,9,10
 327 473 327 473 409 473 c 0,11,12
 490 473 490 473 490 408 c 2,13,-1
 490 382 l 2,14,15
 490 317 490 317 409 317 c 0,6,7
EndSplineSet
EndChar

StartChar: ldot
Encoding: 320 320 255
Width: 431
Flags: W
LayerCount: 2
Fore
SplineSet
352 270 m 256,0,1
 270 270 270 270 270 336 c 2,2,-1
 270 361 l 2,3,4
 270 427 270 427 352 427 c 256,5,6
 434 427 434 427 434 361 c 2,7,-1
 434 336 l 2,8,9
 434 270 434 270 352 270 c 256,0,1
275 0 m 1,10,-1
 207 0 l 2,11,12
 72 0 72 0 72 132 c 2,13,-1
 72 740 l 1,14,-1
 207 740 l 1,15,-1
 207 106 l 1,16,-1
 275 106 l 1,17,-1
 275 0 l 1,10,-1
EndSplineSet
EndChar

StartChar: Lslash
Encoding: 321 321 256
Width: 534
Flags: W
LayerCount: 2
Fore
SplineSet
496 0 m 1,0,-1
 85 0 l 1,1,-1
 85 248 l 1,2,-1
 -7 218 l 1,3,-1
 -7 323 l 1,4,-1
 85 353 l 1,5,-1
 85 698 l 1,6,-1
 224 698 l 1,7,-1
 224 397 l 1,8,-1
 386 450 l 1,9,-1
 386 345 l 1,10,-1
 224 292 l 1,11,-1
 224 123 l 1,12,-1
 496 123 l 1,13,-1
 496 0 l 1,0,-1
EndSplineSet
EndChar

StartChar: lslash
Encoding: 322 322 257
Width: 307
Flags: W
LayerCount: 2
Fore
SplineSet
280 0 m 1,0,-1
 212 0 l 2,1,2
 77 0 77 0 77 145 c 2,3,-1
 77 301 l 1,4,-1
 2 276 l 1,5,-1
 2 377 l 1,6,-1
 77 402 l 1,7,-1
 77 740 l 1,8,-1
 212 740 l 1,9,-1
 212 446 l 1,10,-1
 316 480 l 1,11,-1
 316 379 l 1,12,-1
 212 345 l 1,13,-1
 212 106 l 1,14,-1
 280 106 l 1,15,-1
 280 0 l 1,0,-1
EndSplineSet
EndChar

StartChar: Nacute
Encoding: 323 323 258
Width: 721
Flags: W
LayerCount: 2
Fore
SplineSet
641 0 m 1,0,-1
 488 0 l 1,1,-1
 285 349 l 1,2,-1
 214 491 l 1,3,-1
 211 491 l 1,4,-1
 211 0 l 1,5,-1
 80 0 l 1,6,-1
 80 698 l 1,7,-1
 233 698 l 1,8,-1
 436 349 l 1,9,-1
 506 207 l 1,10,-1
 509 207 l 1,11,-1
 509 698 l 1,12,-1
 641 698 l 1,13,-1
 641 0 l 1,0,-1
374 743 m 1,14,-1
 293 782 l 1,15,-1
 389 972 l 1,16,-1
 503 916 l 1,17,-1
 374 743 l 1,14,-1
EndSplineSet
EndChar

StartChar: nacute
Encoding: 324 324 259
Width: 591
Flags: W
LayerCount: 2
Fore
SplineSet
524 0 m 1,0,-1
 389 0 l 1,1,-1
 389 317 l 2,2,3
 389 424 389 424 311 424 c 0,4,5
 286 424 286 424 263 416 c 0,6,7
 207 397 207 397 207 343 c 2,8,-1
 207 0 l 1,9,-1
 72 0 l 1,10,-1
 72 523 l 1,11,-1
 207 523 l 1,12,-1
 207 435 l 1,13,-1
 213 435 l 1,14,15
 247 535 247 535 359 535 c 0,16,17
 418 535 418 535 454.5 508.5 c 128,-1,18
 491 482 491 482 507.5 435.5 c 128,-1,19
 524 389 524 389 524 329 c 2,20,-1
 524 0 l 1,0,-1
312 580 m 1,21,-1
 231 620 l 1,22,-1
 327 809 l 1,23,-1
 441 753 l 1,24,-1
 312 580 l 1,21,-1
EndSplineSet
EndChar

StartChar: Ncedilla
Encoding: 325 325 260
Width: 721
Flags: W
LayerCount: 2
Fore
SplineSet
641 0 m 1,0,-1
 488 0 l 1,1,2
 276 362 276 362 251 416 c 2,3,-1
 214 491 l 1,4,-1
 211 491 l 1,5,-1
 211 0 l 1,6,-1
 80 0 l 1,7,-1
 80 698 l 1,8,-1
 233 698 l 1,9,-1
 421 375 l 1,10,-1
 506 207 l 1,11,-1
 509 207 l 1,12,-1
 509 698 l 1,13,-1
 641 698 l 1,14,-1
 641 0 l 1,0,-1
359 -269 m 1,15,-1
 280 -269 l 1,16,17
 327 -230 327 -230 339 -174 c 1,18,19
 312 -171 312 -171 302 -153 c 128,-1,20
 292 -135 292 -135 292 -108 c 0,21,22
 296 -47 296 -47 359 -47 c 0,23,24
 425 -47 425 -47 425 -106 c 0,25,26
 425 -211 425 -211 359 -269 c 1,15,-1
EndSplineSet
EndChar

StartChar: ncedilla
Encoding: 326 326 261
Width: 591
Flags: W
LayerCount: 2
Fore
SplineSet
524 0 m 1,0,-1
 389 0 l 1,1,-1
 389 317 l 2,2,3
 389 424 389 424 311 424 c 0,4,5
 286 424 286 424 263 416 c 0,6,7
 207 397 207 397 207 343 c 2,8,-1
 207 0 l 1,9,-1
 72 0 l 1,10,-1
 72 523 l 1,11,-1
 207 523 l 1,12,-1
 207 435 l 1,13,-1
 213 435 l 1,14,15
 247 535 247 535 359 535 c 0,16,17
 418 535 418 535 454.5 508.5 c 128,-1,18
 491 482 491 482 507.5 435.5 c 128,-1,19
 524 389 524 389 524 329 c 2,20,-1
 524 0 l 1,0,-1
299 -269 m 1,21,-1
 219 -269 l 1,22,23
 265 -232 265 -232 279 -174 c 1,24,25
 250 -171 250 -171 241 -152 c 128,-1,26
 232 -133 232 -133 232 -106 c 0,27,28
 235 -47 235 -47 298 -47 c 0,29,30
 364 -47 364 -47 364 -106 c 0,31,32
 364 -134 364 -134 360.5 -155.5 c 128,-1,33
 357 -177 357 -177 347 -201 c 0,34,35
 329 -242 329 -242 299 -269 c 1,21,-1
EndSplineSet
EndChar

StartChar: Ncaron
Encoding: 327 327 262
Width: 721
Flags: W
LayerCount: 2
Fore
SplineSet
641 0 m 1,0,-1
 488 0 l 1,1,-1
 285 349 l 1,2,-1
 214 491 l 1,3,-1
 211 491 l 1,4,-1
 211 0 l 1,5,-1
 80 0 l 1,6,-1
 80 698 l 1,7,-1
 233 698 l 1,8,-1
 436 349 l 1,9,-1
 506 207 l 1,10,-1
 509 207 l 1,11,-1
 509 698 l 1,12,-1
 641 698 l 1,13,-1
 641 0 l 1,0,-1
419 752 m 1,14,-1
 300 752 l 1,15,-1
 172 908 l 1,16,-1
 239 961 l 1,17,-1
 360 845 l 1,18,-1
 480 961 l 1,19,-1
 547 908 l 1,20,-1
 419 752 l 1,14,-1
EndSplineSet
EndChar

StartChar: ncaron
Encoding: 328 328 263
Width: 591
Flags: W
LayerCount: 2
Fore
SplineSet
524 0 m 1,0,-1
 389 0 l 1,1,-1
 389 317 l 2,2,3
 389 424 389 424 311 424 c 0,4,5
 286 424 286 424 263 416 c 0,6,7
 207 397 207 397 207 343 c 2,8,-1
 207 0 l 1,9,-1
 72 0 l 1,10,-1
 72 523 l 1,11,-1
 207 523 l 1,12,-1
 207 435 l 1,13,-1
 213 435 l 1,14,15
 247 535 247 535 359 535 c 0,16,17
 418 535 418 535 454.5 508.5 c 128,-1,18
 491 482 491 482 507.5 435.5 c 128,-1,19
 524 389 524 389 524 329 c 2,20,-1
 524 0 l 1,0,-1
358 589 m 1,21,-1
 238 589 l 1,22,-1
 110 745 l 1,23,-1
 178 798 l 1,24,-1
 298 683 l 1,25,-1
 418 798 l 1,26,-1
 486 745 l 1,27,-1
 358 589 l 1,21,-1
EndSplineSet
EndChar

StartChar: napostrophe
Encoding: 329 329 264
Width: 872
GlyphClass: 2
Flags: W
LayerCount: 2
Fore
SplineSet
126 460 m 1,0,-1
 38 460 l 1,1,2
 102 516 102 516 127 588 c 1,3,4
 68 602 68 602 68 658 c 2,5,-1
 68 680 l 2,6,7
 68 710 68 710 87 730 c 128,-1,8
 106 750 106 750 150 750 c 0,9,10
 231 750 231 750 231 680 c 0,11,12
 231 642 231 642 225.5 613 c 128,-1,13
 220 584 220 584 201 550 c 0,14,15
 171 497 171 497 126 460 c 1,0,-1
806 0 m 1,16,-1
 671 0 l 1,17,-1
 671 317 l 2,18,19
 671 424 671 424 592 424 c 0,20,21
 567 424 567 424 544 416 c 0,22,23
 488 397 488 397 488 343 c 2,24,-1
 488 0 l 1,25,-1
 353 0 l 1,26,-1
 353 523 l 1,27,-1
 488 523 l 1,28,-1
 488 435 l 1,29,-1
 494 435 l 1,30,31
 528 535 528 535 640 535 c 0,32,33
 699 535 699 535 736 508.5 c 128,-1,34
 773 482 773 482 789.5 435.5 c 128,-1,35
 806 389 806 389 806 329 c 2,36,-1
 806 0 l 1,16,-1
EndSplineSet
EndChar

StartChar: Eng
Encoding: 330 330 265
Width: 721
GlyphClass: 5
Flags: W
LayerCount: 2
Fore
SplineSet
499 -200 m 2,0,-1
 425 -200 l 1,1,-1
 425 -93 l 1,2,-1
 509 -93 l 1,3,-1
 509 0 l 1,4,-1
 488 0 l 1,5,-1
 285 349 l 1,6,-1
 214 491 l 1,7,-1
 211 491 l 1,8,-1
 211 0 l 1,9,-1
 80 0 l 1,10,-1
 80 698 l 1,11,-1
 233 698 l 1,12,-1
 436 349 l 1,13,-1
 506 207 l 1,14,-1
 509 207 l 1,15,-1
 509 698 l 1,16,-1
 641 698 l 1,17,-1
 641 -60 l 2,18,19
 641 -200 641 -200 499 -200 c 2,0,-1
EndSplineSet
EndChar

StartChar: eng
Encoding: 331 331 266
Width: 591
GlyphClass: 1
Flags: W
LayerCount: 2
Fore
SplineSet
384 -200 m 2,0,-1
 310 -200 l 1,1,-1
 310 -94 l 1,2,-1
 389 -94 l 1,3,-1
 389 317 l 2,4,5
 389 424 389 424 311 424 c 0,6,7
 270 424 270 424 238.5 405 c 128,-1,8
 207 386 207 386 207 343 c 2,9,-1
 207 0 l 1,10,-1
 72 0 l 1,11,-1
 72 523 l 1,12,-1
 207 523 l 1,13,-1
 207 435 l 1,14,-1
 213 435 l 1,15,16
 247 535 247 535 359 535 c 0,17,18
 418 535 418 535 454.5 508.5 c 128,-1,19
 491 482 491 482 507.5 435.5 c 128,-1,20
 524 389 524 389 524 329 c 2,21,-1
 524 -61 l 2,22,23
 524 -199 524 -199 384 -200 c 2,0,-1
EndSplineSet
EndChar

StartChar: Omacron
Encoding: 332 332 267
Width: 713
GlyphClass: 2
Flags: W
LayerCount: 2
Fore
SplineSet
357 -12 m 0,0,1
 267 -12 267 -12 198.5 28 c 128,-1,2
 130 68 130 68 91 148.5 c 128,-1,3
 52 229 52 229 52 349 c 0,4,5
 52 526 52 526 136 618 c 128,-1,6
 220 710 220 710 357 710 c 0,7,8
 460 710 460 710 527.5 664 c 128,-1,9
 595 618 595 618 628.5 536.5 c 128,-1,10
 662 455 662 455 662 349 c 0,11,12
 662 227 662 227 622.5 147 c 128,-1,13
 583 67 583 67 514 27.5 c 128,-1,14
 445 -12 445 -12 357 -12 c 0,0,1
357 112 m 0,15,16
 514 112 514 112 514 313 c 2,17,-1
 514 402 l 2,18,19
 514 498 514 498 469 542 c 128,-1,20
 424 586 424 586 357 586 c 0,21,22
 199 586 199 586 199 385 c 2,23,-1
 199 296 l 2,24,25
 199 201 199 201 244 156.5 c 128,-1,26
 289 112 289 112 357 112 c 0,15,16
507 789 m 1,27,-1
 206 789 l 1,28,-1
 206 886 l 1,29,-1
 507 886 l 1,30,-1
 507 789 l 1,27,-1
EndSplineSet
EndChar

StartChar: omacron
Encoding: 333 333 268
Width: 564
Flags: W
LayerCount: 2
Fore
SplineSet
282 -12 m 0,0,1
 201 -12 201 -12 146.5 24 c 128,-1,2
 92 60 92 60 65 122 c 128,-1,3
 38 184 38 184 38 262 c 0,4,5
 38 395 38 395 106 465 c 128,-1,6
 174 535 174 535 282 535 c 0,7,8
 397 535 397 535 461.5 461 c 128,-1,9
 526 387 526 387 526 262 c 0,10,11
 526 138 526 138 462 63 c 128,-1,12
 398 -12 398 -12 282 -12 c 0,0,1
282 96 m 0,13,14
 342 96 342 96 363.5 134 c 128,-1,15
 385 172 385 172 385 235 c 2,16,-1
 385 312 l 1,17,18
 380 427 380 427 282 427 c 0,19,20
 221 427 221 427 200 388.5 c 128,-1,21
 179 350 179 350 179 288 c 2,22,-1
 179 211 l 2,23,24
 182 96 182 96 282 96 c 0,13,14
433 626 m 1,25,-1
 131 626 l 1,26,-1
 131 723 l 1,27,-1
 433 723 l 1,28,-1
 433 626 l 1,25,-1
EndSplineSet
EndChar

StartChar: Obreve
Encoding: 334 334 269
Width: 713
Flags: W
LayerCount: 2
Fore
SplineSet
357 -12 m 0,0,1
 267 -12 267 -12 198.5 28 c 128,-1,2
 130 68 130 68 91 148.5 c 128,-1,3
 52 229 52 229 52 349 c 0,4,5
 52 526 52 526 136 618 c 128,-1,6
 220 710 220 710 357 710 c 0,7,8
 460 710 460 710 527.5 664 c 128,-1,9
 595 618 595 618 628.5 536.5 c 128,-1,10
 662 455 662 455 662 349 c 0,11,12
 662 227 662 227 622.5 147 c 128,-1,13
 583 67 583 67 514 27.5 c 128,-1,14
 445 -12 445 -12 357 -12 c 0,0,1
357 112 m 0,15,16
 514 112 514 112 514 313 c 2,17,-1
 514 402 l 2,18,19
 514 498 514 498 469 542 c 128,-1,20
 424 586 424 586 357 586 c 0,21,22
 199 586 199 586 199 385 c 2,23,-1
 199 296 l 2,24,25
 199 201 199 201 244 156.5 c 128,-1,26
 289 112 289 112 357 112 c 0,15,16
356 745 m 0,27,28
 305 745 305 745 268 767.5 c 128,-1,29
 231 790 231 790 207.5 826.5 c 128,-1,30
 184 863 184 863 174 906 c 1,31,-1
 248 945 l 1,32,33
 281 887 281 887 298 867 c 0,34,35
 320 840 320 840 356 840 c 0,36,37
 385 840 385 840 405.5 857.5 c 128,-1,38
 426 875 426 875 446 912 c 2,39,-1
 466 945 l 1,40,-1
 539 906 l 1,41,42
 519 836 519 836 473.5 790.5 c 128,-1,43
 428 745 428 745 356 745 c 0,27,28
EndSplineSet
EndChar

StartChar: obreve
Encoding: 335 335 270
Width: 564
Flags: W
LayerCount: 2
Fore
SplineSet
282 -12 m 0,0,1
 201 -12 201 -12 146.5 24 c 128,-1,2
 92 60 92 60 65 122 c 128,-1,3
 38 184 38 184 38 262 c 0,4,5
 38 395 38 395 106 465 c 128,-1,6
 174 535 174 535 282 535 c 0,7,8
 397 535 397 535 461.5 461 c 128,-1,9
 526 387 526 387 526 262 c 0,10,11
 526 138 526 138 462 63 c 128,-1,12
 398 -12 398 -12 282 -12 c 0,0,1
282 96 m 0,13,14
 342 96 342 96 363.5 134 c 128,-1,15
 385 172 385 172 385 235 c 2,16,-1
 385 312 l 1,17,18
 380 427 380 427 282 427 c 0,19,20
 221 427 221 427 200 388.5 c 128,-1,21
 179 350 179 350 179 288 c 2,22,-1
 179 211 l 2,23,24
 182 96 182 96 282 96 c 0,13,14
282 582 m 0,25,26
 232 582 232 582 195.5 604.5 c 128,-1,27
 159 627 159 627 135 663.5 c 128,-1,28
 111 700 111 700 99 744 c 1,29,-1
 173 782 l 1,30,-1
 180 770 l 2,31,32
 203 728 203 728 224.5 703 c 128,-1,33
 246 678 246 678 282 678 c 0,34,35
 317 678 317 678 337.5 702 c 128,-1,36
 358 726 358 726 385 771 c 2,37,-1
 391 782 l 1,38,-1
 464 744 l 1,39,40
 443 673 443 673 397 627.5 c 128,-1,41
 351 582 351 582 282 582 c 0,25,26
EndSplineSet
EndChar

StartChar: Odblacute
Encoding: 336 336 271
Width: 713
Flags: W
LayerCount: 2
Fore
SplineSet
357 -12 m 0,0,1
 267 -12 267 -12 198.5 28 c 128,-1,2
 130 68 130 68 91 148.5 c 128,-1,3
 52 229 52 229 52 349 c 0,4,5
 52 526 52 526 136 618 c 128,-1,6
 220 710 220 710 357 710 c 0,7,8
 460 710 460 710 527.5 664 c 128,-1,9
 595 618 595 618 628.5 536.5 c 128,-1,10
 662 455 662 455 662 349 c 0,11,12
 662 227 662 227 622.5 147 c 128,-1,13
 583 67 583 67 514 27.5 c 128,-1,14
 445 -12 445 -12 357 -12 c 0,0,1
357 112 m 0,15,16
 514 112 514 112 514 313 c 2,17,-1
 514 402 l 2,18,19
 514 498 514 498 469 542 c 128,-1,20
 424 586 424 586 357 586 c 0,21,22
 199 586 199 586 199 385 c 2,23,-1
 199 296 l 2,24,25
 199 201 199 201 244 156.5 c 128,-1,26
 289 112 289 112 357 112 c 0,15,16
270 743 m 1,27,-1
 195 779 l 1,28,-1
 292 968 l 1,29,-1
 399 916 l 1,30,-1
 270 743 l 1,27,-1
466 743 m 1,31,-1
 392 779 l 1,32,-1
 488 968 l 1,33,-1
 595 916 l 1,34,-1
 466 743 l 1,31,-1
EndSplineSet
EndChar

StartChar: odblacute
Encoding: 337 337 272
Width: 564
GlyphClass: 3
Flags: W
LayerCount: 2
Fore
SplineSet
282 -12 m 0,0,1
 201 -12 201 -12 146.5 24 c 128,-1,2
 92 60 92 60 65 122 c 128,-1,3
 38 184 38 184 38 262 c 0,4,5
 38 395 38 395 106 465 c 128,-1,6
 174 535 174 535 282 535 c 0,7,8
 397 535 397 535 461.5 461 c 128,-1,9
 526 387 526 387 526 262 c 0,10,11
 526 138 526 138 462 63 c 128,-1,12
 398 -12 398 -12 282 -12 c 0,0,1
282 96 m 0,13,14
 342 96 342 96 363.5 134 c 128,-1,15
 385 172 385 172 385 235 c 2,16,-1
 385 312 l 1,17,18
 380 427 380 427 282 427 c 0,19,20
 221 427 221 427 200 388.5 c 128,-1,21
 179 350 179 350 179 288 c 2,22,-1
 179 211 l 2,23,24
 182 96 182 96 282 96 c 0,13,14
195 580 m 1,25,-1
 121 616 l 1,26,-1
 217 806 l 1,27,-1
 324 753 l 1,28,-1
 195 580 l 1,25,-1
392 580 m 1,29,-1
 317 616 l 1,30,-1
 413 806 l 1,31,-1
 520 753 l 1,32,-1
 392 580 l 1,29,-1
EndSplineSet
EndChar

StartChar: OE
Encoding: 338 338 273
Width: 995
Flags: W
LayerCount: 2
Fore
SplineSet
359 -12 m 0,0,1
 217 -12 217 -12 134.5 82 c 128,-1,2
 52 176 52 176 52 349 c 0,3,4
 52 456 52 456 86.5 537.5 c 128,-1,5
 121 619 121 619 189 664.5 c 128,-1,6
 257 710 257 710 359 710 c 0,7,8
 427 710 427 710 483 698 c 1,9,-1
 939 698 l 1,10,-1
 939 575 l 1,11,-1
 611 575 l 1,12,-1
 611 415 l 1,13,-1
 898 415 l 1,14,-1
 898 292 l 1,15,-1
 611 292 l 1,16,-1
 611 123 l 1,17,-1
 939 123 l 1,18,-1
 939 0 l 1,19,-1
 516 0 l 1,20,21
 463 -4 463 -4 436 -4 c 0,22,23
 398 -9 398 -9 359 -12 c 0,0,1
361 112 m 0,24,25
 419 112 419 112 472 122 c 1,26,-1
 472 575 l 1,27,28
 419 586 419 586 361 586 c 256,29,30
 303 586 303 586 267 562 c 128,-1,31
 231 538 231 538 215 496 c 128,-1,32
 199 454 199 454 199 402 c 2,33,-1
 199 296 l 2,34,35
 199 216 199 216 237.5 164 c 128,-1,36
 276 112 276 112 361 112 c 0,24,25
EndSplineSet
EndChar

StartChar: oe
Encoding: 339 339 274
Width: 908
GlyphClass: 2
Flags: W
LayerCount: 2
Fore
SplineSet
282 96 m 0,0,1
 342 96 342 96 363.5 134 c 128,-1,2
 385 172 385 172 385 235 c 2,3,-1
 385 312 l 1,4,5
 380 427 380 427 282 427 c 0,6,7
 221 427 221 427 200 388.5 c 128,-1,8
 179 350 179 350 179 288 c 2,9,-1
 179 211 l 2,10,11
 182 96 182 96 282 96 c 0,0,1
728 309 m 1,12,13
 728 434 728 434 631 434 c 0,14,15
 576 434 576 434 550.5 397.5 c 128,-1,16
 525 361 525 361 525 309 c 1,17,-1
 728 309 l 1,12,13
638 -12 m 0,18,19
 501 -12 501 -12 458 70 c 1,20,-1
 452 70 l 1,21,22
 407 -12 407 -12 282 -12 c 0,23,24
 201 -12 201 -12 147 24.5 c 128,-1,25
 93 61 93 61 65.5 123.5 c 128,-1,26
 38 186 38 186 38 264 c 0,27,28
 38 385 38 385 100.5 460 c 128,-1,29
 163 535 163 535 282 535 c 0,30,31
 403 535 403 535 452 453 c 1,32,-1
 458 453 l 1,33,34
 504 535 504 535 633 535 c 0,35,36
 750 535 750 535 809.5 461 c 128,-1,37
 869 387 869 387 869 270 c 2,38,-1
 869 227 l 1,39,-1
 525 227 l 1,40,41
 525 95 525 95 651 95 c 0,42,43
 733 95 733 95 783 163 c 1,44,-1
 854 81 l 1,45,46
 779 -12 779 -12 638 -12 c 0,18,19
EndSplineSet
EndChar

StartChar: Racute
Encoding: 340 340 275
Width: 668
GlyphClass: 3
Flags: W
LayerCount: 2
Fore
SplineSet
621 0 m 1,0,-1
 466 0 l 1,1,-1
 338 265 l 1,2,-1
 219 265 l 1,3,-1
 219 0 l 1,4,-1
 80 0 l 1,5,-1
 80 698 l 1,6,-1
 401 698 l 2,7,8
 500 698 500 698 554.5 636 c 128,-1,9
 609 574 609 574 609 479 c 0,10,11
 609 329 609 329 479 281 c 1,12,-1
 621 0 l 1,0,-1
386 382 m 2,13,14
 465 382 465 382 465 457 c 2,15,-1
 465 502 l 2,16,17
 465 534 465 534 450 550 c 128,-1,18
 435 566 435 566 410.5 571.5 c 128,-1,19
 386 577 386 577 359 577 c 2,20,-1
 219 577 l 1,21,-1
 219 382 l 1,22,-1
 386 382 l 2,13,14
335 743 m 1,23,-1
 254 782 l 1,24,-1
 350 972 l 1,25,-1
 464 916 l 1,26,-1
 335 743 l 1,23,-1
EndSplineSet
EndChar

StartChar: racute
Encoding: 341 341 276
Width: 397
GlyphClass: 2
Flags: W
LayerCount: 2
Fore
SplineSet
207 0 m 1,0,-1
 72 0 l 1,1,-1
 72 523 l 1,2,-1
 207 523 l 1,3,-1
 207 414 l 1,4,-1
 212 414 l 1,5,6
 219 457 219 457 252.5 490 c 128,-1,7
 286 523 286 523 349 523 c 2,8,-1
 376 523 l 1,9,-1
 376 396 l 1,10,-1
 337 396 l 2,11,12
 271 396 271 396 239 378 c 128,-1,13
 207 360 207 360 207 315 c 2,14,-1
 207 0 l 1,0,-1
238 580 m 1,15,-1
 157 620 l 1,16,-1
 253 809 l 1,17,-1
 367 753 l 1,18,-1
 238 580 l 1,15,-1
EndSplineSet
EndChar

StartChar: Rcedilla
Encoding: 342 342 277
Width: 668
GlyphClass: 3
Flags: W
LayerCount: 2
Fore
SplineSet
621 0 m 1,0,-1
 466 0 l 1,1,-1
 338 265 l 1,2,-1
 219 265 l 1,3,-1
 219 0 l 1,4,-1
 80 0 l 1,5,-1
 80 698 l 1,6,-1
 401 698 l 2,7,8
 500 698 500 698 554.5 636 c 128,-1,9
 609 574 609 574 609 479 c 0,10,11
 609 329 609 329 479 281 c 1,12,-1
 621 0 l 1,0,-1
386 382 m 2,13,14
 465 382 465 382 465 457 c 2,15,-1
 465 502 l 2,16,17
 465 534 465 534 450 550 c 128,-1,18
 435 566 435 566 410.5 571.5 c 128,-1,19
 386 577 386 577 359 577 c 2,20,-1
 219 577 l 1,21,-1
 219 382 l 1,22,-1
 386 382 l 2,13,14
348 -269 m 1,23,-1
 268 -269 l 1,24,25
 314 -231 314 -231 328 -174 c 1,26,27
 301 -171 301 -171 291 -153 c 128,-1,28
 281 -135 281 -135 281 -108 c 0,29,30
 285 -47 285 -47 347 -47 c 0,31,32
 414 -47 414 -47 414 -106 c 0,33,34
 414 -211 414 -211 348 -269 c 1,23,-1
EndSplineSet
EndChar

StartChar: rcedilla
Encoding: 343 343 278
Width: 397
GlyphClass: 7
Flags: W
LayerCount: 2
Fore
SplineSet
207 0 m 1,0,-1
 72 0 l 1,1,-1
 72 523 l 1,2,-1
 207 523 l 1,3,-1
 207 414 l 1,4,-1
 212 414 l 1,5,6
 219 457 219 457 252.5 490 c 128,-1,7
 286 523 286 523 349 523 c 2,8,-1
 376 523 l 1,9,-1
 376 396 l 1,10,-1
 337 396 l 2,11,12
 271 396 271 396 239 378 c 128,-1,13
 207 360 207 360 207 315 c 2,14,-1
 207 0 l 1,0,-1
140 -269 m 1,15,-1
 60 -269 l 1,16,17
 106 -232 106 -232 120 -174 c 1,18,19
 91 -171 91 -171 82 -152 c 128,-1,20
 73 -133 73 -133 73 -106 c 0,21,22
 76 -47 76 -47 139 -47 c 0,23,24
 205 -47 205 -47 205 -106 c 0,25,26
 205 -135 205 -135 201.5 -156.5 c 128,-1,27
 198 -178 198 -178 187 -202 c 0,28,29
 169 -243 169 -243 140 -269 c 1,15,-1
EndSplineSet
EndChar

StartChar: Rcaron
Encoding: 344 344 279
Width: 668
GlyphClass: 5
Flags: W
LayerCount: 2
Fore
SplineSet
621 0 m 1,0,-1
 466 0 l 1,1,-1
 338 265 l 1,2,-1
 219 265 l 1,3,-1
 219 0 l 1,4,-1
 80 0 l 1,5,-1
 80 698 l 1,6,-1
 401 698 l 2,7,8
 500 698 500 698 554.5 636 c 128,-1,9
 609 574 609 574 609 479 c 0,10,11
 609 329 609 329 479 281 c 1,12,-1
 621 0 l 1,0,-1
386 382 m 2,13,14
 465 382 465 382 465 457 c 2,15,-1
 465 502 l 2,16,17
 465 534 465 534 450 550 c 128,-1,18
 435 566 435 566 410.5 571.5 c 128,-1,19
 386 577 386 577 359 577 c 2,20,-1
 219 577 l 1,21,-1
 219 382 l 1,22,-1
 386 382 l 2,13,14
380 752 m 1,23,-1
 261 752 l 1,24,-1
 133 908 l 1,25,-1
 200 961 l 1,26,-1
 321 845 l 1,27,-1
 441 961 l 1,28,-1
 508 908 l 1,29,-1
 380 752 l 1,23,-1
EndSplineSet
EndChar

StartChar: rcaron
Encoding: 345 345 280
Width: 397
GlyphClass: 2
Flags: W
LayerCount: 2
Fore
SplineSet
207 0 m 1,0,-1
 72 0 l 1,1,-1
 72 523 l 1,2,-1
 207 523 l 1,3,-1
 207 414 l 1,4,-1
 212 414 l 1,5,6
 219 457 219 457 252.5 490 c 128,-1,7
 286 523 286 523 349 523 c 2,8,-1
 376 523 l 1,9,-1
 376 396 l 1,10,-1
 337 396 l 2,11,12
 271 396 271 396 239 378 c 128,-1,13
 207 360 207 360 207 315 c 2,14,-1
 207 0 l 1,0,-1
284 589 m 1,15,-1
 164 589 l 1,16,-1
 36 745 l 1,17,-1
 104 798 l 1,18,-1
 224 683 l 1,19,-1
 344 798 l 1,20,-1
 412 745 l 1,21,-1
 284 589 l 1,15,-1
EndSplineSet
EndChar

StartChar: Sacute
Encoding: 346 346 281
Width: 615
GlyphClass: 3
Flags: W
LayerCount: 2
Fore
SplineSet
300 -12 m 0,0,1
 135 -12 135 -12 39 103 c 1,2,-1
 131 194 l 1,3,4
 205 111 205 111 309 111 c 0,5,6
 427 111 427 111 427 204 c 0,7,8
 427 273 427 273 337 287 c 2,9,-1
 270 297 l 2,10,11
 165 313 165 313 112.5 362.5 c 128,-1,12
 60 412 60 412 60 502 c 0,13,14
 60 559 60 559 88 606.5 c 128,-1,15
 116 654 116 654 172.5 682 c 128,-1,16
 229 710 229 710 316 710 c 0,17,18
 472 710 472 710 556 609 c 1,19,-1
 462 518 l 1,20,21
 406 587 406 587 308 587 c 0,22,23
 250 587 250 587 224 566 c 128,-1,24
 198 545 198 545 198 511 c 0,25,26
 198 437 198 437 291 428 c 1,27,-1
 357 416 l 2,28,29
 462 399 462 399 514 350 c 128,-1,30
 566 301 566 301 566 212 c 0,31,32
 566 148 566 148 536 97.5 c 128,-1,33
 506 47 506 47 446.5 17.5 c 128,-1,34
 387 -12 387 -12 300 -12 c 0,0,1
320 743 m 1,35,-1
 238 782 l 1,36,-1
 335 972 l 1,37,-1
 448 916 l 1,38,-1
 320 743 l 1,35,-1
EndSplineSet
EndChar

StartChar: sacute
Encoding: 347 347 282
Width: 501
Flags: W
LayerCount: 2
Fore
SplineSet
246 -12 m 0,0,1
 108 -12 108 -12 28 83 c 1,2,-1
 109 163 l 1,3,4
 166 94 166 94 251 94 c 0,5,6
 335 94 335 94 335 147 c 2,7,-1
 335 151 l 2,8,9
 335 194 335 194 275 202 c 2,10,-1
 221 208 l 2,11,12
 46 230 46 230 46 368 c 0,13,14
 46 439 46 439 95.5 487 c 128,-1,15
 145 535 145 535 246 535 c 0,16,17
 317 535 317 535 366 515.5 c 128,-1,18
 415 496 415 496 453 453 c 1,19,-1
 374 374 l 1,20,21
 320 429 320 429 251 429 c 0,22,23
 175 429 175 429 175 378 c 0,24,25
 175 330 175 330 238 323 c 2,26,-1
 294 316 l 2,27,28
 464 292 464 292 464 160 c 0,29,30
 464 77 464 77 401 32.5 c 128,-1,31
 338 -12 338 -12 246 -12 c 0,0,1
263 580 m 1,32,-1
 182 620 l 1,33,-1
 278 809 l 1,34,-1
 392 753 l 1,35,-1
 263 580 l 1,32,-1
EndSplineSet
EndChar

StartChar: Scircumflex
Encoding: 348 348 283
Width: 615
Flags: W
LayerCount: 2
Fore
SplineSet
300 -12 m 0,0,1
 135 -12 135 -12 39 103 c 1,2,-1
 131 194 l 1,3,4
 205 111 205 111 309 111 c 0,5,6
 427 111 427 111 427 204 c 0,7,8
 427 273 427 273 337 287 c 2,9,-1
 270 297 l 2,10,11
 165 313 165 313 112.5 362.5 c 128,-1,12
 60 412 60 412 60 502 c 0,13,14
 60 559 60 559 88 606.5 c 128,-1,15
 116 654 116 654 172.5 682 c 128,-1,16
 229 710 229 710 316 710 c 0,17,18
 472 710 472 710 556 609 c 1,19,-1
 462 518 l 1,20,21
 406 587 406 587 308 587 c 0,22,23
 250 587 250 587 224 566 c 128,-1,24
 198 545 198 545 198 511 c 0,25,26
 198 437 198 437 291 428 c 1,27,-1
 357 416 l 2,28,29
 462 399 462 399 514 350 c 128,-1,30
 566 301 566 301 566 212 c 0,31,32
 566 148 566 148 536 97.5 c 128,-1,33
 506 47 506 47 446.5 17.5 c 128,-1,34
 387 -12 387 -12 300 -12 c 0,0,1
426 743 m 1,35,-1
 305 859 l 1,36,-1
 185 743 l 1,37,-1
 118 796 l 1,38,-1
 246 952 l 1,39,-1
 365 952 l 1,40,-1
 493 796 l 1,41,-1
 426 743 l 1,35,-1
EndSplineSet
EndChar

StartChar: scircumflex
Encoding: 349 349 284
Width: 501
GlyphClass: 2
Flags: W
LayerCount: 2
Fore
SplineSet
246 -12 m 0,0,1
 108 -12 108 -12 28 83 c 1,2,-1
 109 163 l 1,3,4
 166 94 166 94 251 94 c 0,5,6
 335 94 335 94 335 147 c 2,7,-1
 335 151 l 2,8,9
 335 194 335 194 275 202 c 2,10,-1
 221 208 l 2,11,12
 46 230 46 230 46 368 c 0,13,14
 46 439 46 439 95.5 487 c 128,-1,15
 145 535 145 535 246 535 c 0,16,17
 317 535 317 535 366 515.5 c 128,-1,18
 415 496 415 496 453 453 c 1,19,-1
 374 374 l 1,20,21
 320 429 320 429 251 429 c 0,22,23
 175 429 175 429 175 378 c 0,24,25
 175 330 175 330 238 323 c 2,26,-1
 294 316 l 2,27,28
 464 292 464 292 464 160 c 0,29,30
 464 77 464 77 401 32.5 c 128,-1,31
 338 -12 338 -12 246 -12 c 0,0,1
369 580 m 1,32,-1
 249 696 l 1,33,-1
 128 580 l 1,34,-1
 61 633 l 1,35,-1
 189 789 l 1,36,-1
 308 789 l 1,37,-1
 436 633 l 1,38,-1
 369 580 l 1,32,-1
EndSplineSet
EndChar

StartChar: Scedilla
Encoding: 350 350 285
Width: 615
Flags: W
LayerCount: 2
Fore
SplineSet
315 -211 m 0,0,1
 229 -211 229 -211 196 -168 c 1,2,-1
 240 -114 l 1,3,4
 263 -143 263 -143 305 -143 c 0,5,6
 349 -143 349 -143 349 -117 c 0,7,8
 349 -82 349 -82 253 -75 c 1,9,-1
 266 -11 l 1,10,11
 122 3 122 3 39 103 c 1,12,-1
 131 194 l 1,13,14
 203 111 203 111 309 111 c 0,15,16
 371 111 371 111 399 137 c 128,-1,17
 427 163 427 163 427 204 c 0,18,19
 427 275 427 275 337 287 c 2,20,-1
 270 297 l 2,21,22
 60 326 60 326 60 502 c 0,23,24
 60 561 60 561 88.5 608 c 128,-1,25
 117 655 117 655 174 682.5 c 128,-1,26
 231 710 231 710 316 710 c 0,27,28
 472 710 472 710 556 609 c 1,29,-1
 462 518 l 1,30,31
 406 587 406 587 308 587 c 0,32,33
 198 587 198 587 198 511 c 0,34,35
 198 437 198 437 291 428 c 1,36,-1
 334 420 l 2,37,38
 364 415 364 415 389.5 409 c 128,-1,39
 415 403 415 403 450 389 c 0,40,41
 566 342 566 342 566 212 c 0,42,43
 566 122 566 122 508 61.5 c 128,-1,44
 450 1 450 1 330 -11 c 1,45,-1
 321 -56 l 1,46,-1
 325 -60 l 1,47,48
 346 -53 346 -53 371 -53 c 0,49,50
 443 -53 443 -53 443 -122 c 0,51,52
 443 -171 443 -171 404.5 -191 c 128,-1,53
 366 -211 366 -211 315 -211 c 0,0,1
EndSplineSet
EndChar

StartChar: scedilla
Encoding: 351 351 286
Width: 501
GlyphClass: 3
Flags: W
LayerCount: 2
Fore
SplineSet
260 -211 m 0,0,1
 174 -211 174 -211 141 -168 c 1,2,-1
 185 -114 l 1,3,4
 208 -143 208 -143 250 -143 c 0,5,6
 294 -143 294 -143 294 -117 c 0,7,8
 294 -82 294 -82 198 -75 c 1,9,-1
 211 -10 l 1,10,11
 94 2 94 2 28 83 c 1,12,-1
 109 163 l 1,13,14
 165 94 165 94 251 94 c 0,15,16
 297 94 297 94 316 108.5 c 128,-1,17
 335 123 335 123 335 151 c 0,18,19
 335 194 335 194 275 202 c 2,20,-1
 221 208 l 2,21,22
 46 229 46 229 46 368 c 0,23,24
 46 444 46 444 99.5 489.5 c 128,-1,25
 153 535 153 535 246 535 c 0,26,27
 316 535 316 535 365 515.5 c 128,-1,28
 414 496 414 496 453 453 c 1,29,-1
 374 374 l 1,30,31
 319 429 319 429 251 429 c 0,32,33
 175 429 175 429 175 378 c 0,34,35
 175 351 175 351 191.5 339 c 128,-1,36
 208 327 208 327 248 322 c 2,37,-1
 294 316 l 2,38,39
 464 292 464 292 464 160 c 0,40,41
 464 82 464 82 411 39.5 c 128,-1,42
 358 -3 358 -3 275 -11 c 1,43,-1
 266 -56 l 1,44,-1
 270 -60 l 1,45,46
 291 -53 291 -53 316 -53 c 0,47,48
 346 -53 346 -53 367 -69 c 128,-1,49
 388 -85 388 -85 388 -122 c 0,50,51
 388 -171 388 -171 350 -191 c 128,-1,52
 312 -211 312 -211 260 -211 c 0,0,1
EndSplineSet
EndChar

StartChar: Scaron
Encoding: 352 352 287
Width: 615
Flags: W
LayerCount: 2
Fore
SplineSet
300 -12 m 0,0,1
 135 -12 135 -12 39 103 c 1,2,-1
 131 194 l 1,3,4
 205 111 205 111 309 111 c 0,5,6
 427 111 427 111 427 204 c 0,7,8
 427 273 427 273 337 287 c 2,9,-1
 270 297 l 2,10,11
 165 313 165 313 112.5 362.5 c 128,-1,12
 60 412 60 412 60 502 c 0,13,14
 60 559 60 559 88 606.5 c 128,-1,15
 116 654 116 654 172.5 682 c 128,-1,16
 229 710 229 710 316 710 c 0,17,18
 472 710 472 710 556 609 c 1,19,-1
 462 518 l 1,20,21
 406 587 406 587 308 587 c 0,22,23
 250 587 250 587 224 566 c 128,-1,24
 198 545 198 545 198 511 c 0,25,26
 198 437 198 437 291 428 c 1,27,-1
 357 416 l 2,28,29
 462 399 462 399 514 350 c 128,-1,30
 566 301 566 301 566 212 c 0,31,32
 566 148 566 148 536 97.5 c 128,-1,33
 506 47 506 47 446.5 17.5 c 128,-1,34
 387 -12 387 -12 300 -12 c 0,0,1
365 752 m 1,35,-1
 246 752 l 1,36,-1
 118 908 l 1,37,-1
 185 961 l 1,38,-1
 305 845 l 1,39,-1
 426 961 l 1,40,-1
 493 908 l 1,41,-1
 365 752 l 1,35,-1
EndSplineSet
EndChar

StartChar: scaron
Encoding: 353 353 288
Width: 501
GlyphClass: 5
Flags: W
LayerCount: 2
Fore
SplineSet
246 -12 m 0,0,1
 108 -12 108 -12 28 83 c 1,2,-1
 109 163 l 1,3,4
 166 94 166 94 251 94 c 0,5,6
 335 94 335 94 335 147 c 2,7,-1
 335 151 l 2,8,9
 335 194 335 194 275 202 c 2,10,-1
 221 208 l 2,11,12
 46 230 46 230 46 368 c 0,13,14
 46 439 46 439 95.5 487 c 128,-1,15
 145 535 145 535 246 535 c 0,16,17
 317 535 317 535 366 515.5 c 128,-1,18
 415 496 415 496 453 453 c 1,19,-1
 374 374 l 1,20,21
 320 429 320 429 251 429 c 0,22,23
 175 429 175 429 175 378 c 0,24,25
 175 330 175 330 238 323 c 2,26,-1
 294 316 l 2,27,28
 464 292 464 292 464 160 c 0,29,30
 464 77 464 77 401 32.5 c 128,-1,31
 338 -12 338 -12 246 -12 c 0,0,1
308 589 m 1,32,-1
 189 589 l 1,33,-1
 61 745 l 1,34,-1
 128 798 l 1,35,-1
 249 683 l 1,36,-1
 369 798 l 1,37,-1
 436 745 l 1,38,-1
 308 589 l 1,32,-1
EndSplineSet
EndChar

StartChar: Tcedilla
Encoding: 354 354 289
Width: 582
GlyphClass: 3
Flags: W
LayerCount: 2
Fore
SplineSet
360 0 m 1,0,-1
 221 0 l 1,1,-1
 221 575 l 1,2,-1
 26 575 l 1,3,-1
 26 698 l 1,4,-1
 556 698 l 1,5,-1
 556 575 l 1,6,-1
 360 575 l 1,7,-1
 360 0 l 1,0,-1
290 -269 m 1,8,-1
 211 -269 l 1,9,10
 258 -230 258 -230 270 -174 c 1,11,12
 223 -167 223 -167 223 -117 c 0,13,14
 223 -47 223 -47 286 -47 c 2,15,-1
 290 -47 l 2,16,17
 356 -47 356 -47 356 -106 c 0,18,19
 356 -211 356 -211 290 -269 c 1,8,-1
EndSplineSet
EndChar

StartChar: tcedilla
Encoding: 355 355 290
Width: 377
GlyphClass: 3
Flags: W
LayerCount: 2
Fore
SplineSet
333 0 m 1,0,-1
 243 0 l 2,1,2
 168 0 168 0 134 38 c 128,-1,3
 100 76 100 76 100 140 c 2,4,-1
 100 417 l 1,5,-1
 24 417 l 1,6,-1
 24 523 l 1,7,-1
 65 523 l 2,8,9
 114 523 114 523 114 572 c 2,10,-1
 114 665 l 1,11,-1
 235 665 l 1,12,-1
 235 523 l 1,13,-1
 341 523 l 1,14,-1
 341 417 l 1,15,-1
 235 417 l 1,16,-1
 235 106 l 1,17,-1
 333 106 l 1,18,-1
 333 0 l 1,0,-1
226 -269 m 1,19,-1
 146 -269 l 1,20,21
 192 -232 192 -232 206 -174 c 1,22,23
 177 -171 177 -171 168 -152 c 128,-1,24
 159 -133 159 -133 159 -106 c 0,25,26
 162 -47 162 -47 225 -47 c 0,27,28
 291 -47 291 -47 291 -106 c 0,29,30
 291 -134 291 -134 287.5 -155.5 c 128,-1,31
 284 -177 284 -177 274 -201 c 0,32,33
 256 -242 256 -242 226 -269 c 1,19,-1
EndSplineSet
EndChar

StartChar: Tcaron
Encoding: 356 356 291
Width: 582
GlyphClass: 5
Flags: W
LayerCount: 2
Fore
SplineSet
360 0 m 1,0,-1
 221 0 l 1,1,-1
 221 575 l 1,2,-1
 26 575 l 1,3,-1
 26 698 l 1,4,-1
 556 698 l 1,5,-1
 556 575 l 1,6,-1
 360 575 l 1,7,-1
 360 0 l 1,0,-1
351 752 m 1,8,-1
 232 752 l 1,9,-1
 104 908 l 1,10,-1
 171 961 l 1,11,-1
 292 845 l 1,12,-1
 412 961 l 1,13,-1
 479 908 l 1,14,-1
 351 752 l 1,8,-1
EndSplineSet
EndChar

StartChar: tcaron
Encoding: 357 357 292
Width: 381
GlyphClass: 6
Flags: W
LayerCount: 2
Fore
SplineSet
387 574 m 1,0,-1
 299 574 l 1,1,-1
 306 783 l 1,2,-1
 451 783 l 1,3,-1
 387 574 l 1,0,-1
333 0 m 1,4,-1
 243 0 l 2,5,6
 168 0 168 0 134 38 c 128,-1,7
 100 76 100 76 100 140 c 2,8,-1
 100 417 l 1,9,-1
 24 417 l 1,10,-1
 24 523 l 1,11,-1
 65 523 l 2,12,13
 114 523 114 523 114 572 c 2,14,-1
 114 665 l 1,15,-1
 235 665 l 1,16,-1
 235 523 l 1,17,-1
 341 523 l 1,18,-1
 341 417 l 1,19,-1
 235 417 l 1,20,-1
 235 106 l 1,21,-1
 333 106 l 1,22,-1
 333 0 l 1,4,-1
EndSplineSet
EndChar

StartChar: Tbar
Encoding: 358 358 293
Width: 592
Flags: W
LayerCount: 2
Fore
SplineSet
366 0 m 1,0,-1
 227 0 l 1,1,-1
 227 293 l 1,2,-1
 83 293 l 1,3,-1
 83 397 l 1,4,-1
 227 397 l 1,5,-1
 227 575 l 1,6,-1
 31 575 l 1,7,-1
 31 698 l 1,8,-1
 561 698 l 1,9,-1
 561 575 l 1,10,-1
 366 575 l 1,11,-1
 366 397 l 1,12,-1
 510 397 l 1,13,-1
 510 293 l 1,14,-1
 366 293 l 1,15,-1
 366 0 l 1,0,-1
EndSplineSet
EndChar

StartChar: tbar
Encoding: 359 359 294
Width: 385
GlyphClass: 7
Flags: W
LayerCount: 2
Fore
SplineSet
337 0 m 1,0,-1
 246 0 l 2,1,2
 104 0 104 0 104 140 c 2,3,-1
 104 226 l 1,4,-1
 40 226 l 1,5,-1
 40 319 l 1,6,-1
 104 319 l 1,7,-1
 104 417 l 1,8,-1
 28 417 l 1,9,-1
 28 523 l 1,10,-1
 69 523 l 2,11,12
 118 523 118 523 118 572 c 2,13,-1
 118 665 l 1,14,-1
 239 665 l 1,15,-1
 239 523 l 1,16,-1
 345 523 l 1,17,-1
 345 417 l 1,18,-1
 239 417 l 1,19,-1
 239 319 l 1,20,-1
 325 319 l 1,21,-1
 325 226 l 1,22,-1
 239 226 l 1,23,-1
 239 106 l 1,24,-1
 337 106 l 1,25,-1
 337 0 l 1,0,-1
EndSplineSet
EndChar

StartChar: Utilde
Encoding: 360 360 295
Width: 691
Flags: W
LayerCount: 2
Fore
SplineSet
346 -12 m 0,0,1
 198 -12 198 -12 137 59.5 c 128,-1,2
 76 131 76 131 76 286 c 2,3,-1
 76 698 l 1,4,-1
 212 698 l 1,5,-1
 212 269 l 2,6,7
 212 185 212 185 244.5 148.5 c 128,-1,8
 277 112 277 112 346 112 c 0,9,10
 417 112 417 112 448.5 150.5 c 128,-1,11
 480 189 480 189 480 269 c 2,12,-1
 480 698 l 1,13,-1
 615 698 l 1,14,-1
 615 286 l 2,15,16
 615 122 615 122 550 55 c 128,-1,17
 485 -12 485 -12 346 -12 c 0,0,1
421 766 m 0,18,19
 400 766 400 766 385 770.5 c 128,-1,20
 370 775 370 775 354 782 c 2,21,-1
 301 804 l 2,22,23
 285 809 285 809 267 809 c 0,24,25
 232 809 232 809 208 784 c 1,26,-1
 160 847 l 1,27,28
 199 909 199 909 270 909 c 0,29,30
 301 909 301 909 325 897 c 0,31,32
 387 865 387 865 424 865 c 0,33,34
 457 865 457 865 483 890 c 1,35,-1
 531 828 l 1,36,37
 493 766 493 766 421 766 c 0,18,19
EndSplineSet
EndChar

StartChar: utilde
Encoding: 361 361 296
Width: 591
Flags: W
LayerCount: 2
Fore
SplineSet
232 -12 m 0,0,1
 172 -12 172 -12 135.5 14 c 128,-1,2
 99 40 99 40 82.5 86.5 c 128,-1,3
 66 133 66 133 66 193 c 2,4,-1
 66 523 l 1,5,-1
 201 523 l 1,6,-1
 201 206 l 2,7,8
 201 99 201 99 285 99 c 0,9,10
 321 99 321 99 352.5 118.5 c 128,-1,11
 384 138 384 138 384 180 c 2,12,-1
 384 523 l 1,13,-1
 519 523 l 1,14,-1
 519 0 l 1,15,-1
 384 0 l 1,16,-1
 384 87 l 1,17,-1
 379 87 l 1,18,19
 349 -12 349 -12 232 -12 c 0,0,1
369 603 m 0,20,21
 339 603 339 603 315.5 614.5 c 128,-1,22
 292 626 292 626 267 634 c 0,23,24
 238 647 238 647 215 647 c 0,25,26
 186 647 186 647 156 621 c 1,27,-1
 108 684 l 1,28,29
 147 746 147 746 218 746 c 0,30,31
 249 746 249 746 273 735 c 0,32,33
 339 702 339 702 372 702 c 256,34,35
 405 702 405 702 431 728 c 1,36,-1
 479 665 l 1,37,38
 441 603 441 603 369 603 c 0,20,21
EndSplineSet
EndChar

StartChar: Umacron
Encoding: 362 362 297
Width: 691
Flags: W
LayerCount: 2
Fore
SplineSet
346 -12 m 0,0,1
 198 -12 198 -12 137 59.5 c 128,-1,2
 76 131 76 131 76 286 c 2,3,-1
 76 698 l 1,4,-1
 212 698 l 1,5,-1
 212 269 l 2,6,7
 212 185 212 185 244.5 148.5 c 128,-1,8
 277 112 277 112 346 112 c 0,9,10
 417 112 417 112 448.5 150.5 c 128,-1,11
 480 189 480 189 480 269 c 2,12,-1
 480 698 l 1,13,-1
 615 698 l 1,14,-1
 615 286 l 2,15,16
 615 122 615 122 550 55 c 128,-1,17
 485 -12 485 -12 346 -12 c 0,0,1
496 789 m 1,18,-1
 195 789 l 1,19,-1
 195 886 l 1,20,-1
 496 886 l 1,21,-1
 496 789 l 1,18,-1
EndSplineSet
EndChar

StartChar: umacron
Encoding: 363 363 298
Width: 591
GlyphClass: 1
Flags: W
LayerCount: 2
Fore
SplineSet
232 -12 m 0,0,1
 172 -12 172 -12 135.5 14 c 128,-1,2
 99 40 99 40 82.5 86.5 c 128,-1,3
 66 133 66 133 66 193 c 2,4,-1
 66 523 l 1,5,-1
 201 523 l 1,6,-1
 201 206 l 2,7,8
 201 99 201 99 285 99 c 0,9,10
 321 99 321 99 352.5 118.5 c 128,-1,11
 384 138 384 138 384 180 c 2,12,-1
 384 523 l 1,13,-1
 519 523 l 1,14,-1
 519 0 l 1,15,-1
 384 0 l 1,16,-1
 384 87 l 1,17,-1
 379 87 l 1,18,19
 349 -12 349 -12 232 -12 c 0,0,1
444 626 m 1,20,-1
 143 626 l 1,21,-1
 143 723 l 1,22,-1
 444 723 l 1,23,-1
 444 626 l 1,20,-1
EndSplineSet
EndChar

StartChar: Ubreve
Encoding: 364 364 299
Width: 691
Flags: W
LayerCount: 2
Fore
SplineSet
346 -12 m 0,0,1
 198 -12 198 -12 137 59.5 c 128,-1,2
 76 131 76 131 76 286 c 2,3,-1
 76 698 l 1,4,-1
 212 698 l 1,5,-1
 212 269 l 2,6,7
 212 185 212 185 244.5 148.5 c 128,-1,8
 277 112 277 112 346 112 c 0,9,10
 417 112 417 112 448.5 150.5 c 128,-1,11
 480 189 480 189 480 269 c 2,12,-1
 480 698 l 1,13,-1
 615 698 l 1,14,-1
 615 286 l 2,15,16
 615 122 615 122 550 55 c 128,-1,17
 485 -12 485 -12 346 -12 c 0,0,1
345 745 m 0,18,19
 294 745 294 745 257 767.5 c 128,-1,20
 220 790 220 790 196.5 826.5 c 128,-1,21
 173 863 173 863 163 906 c 1,22,-1
 237 945 l 1,23,24
 270 887 270 887 287 867 c 0,25,26
 309 840 309 840 345 840 c 0,27,28
 374 840 374 840 394.5 857.5 c 128,-1,29
 415 875 415 875 435 912 c 2,30,-1
 455 945 l 1,31,-1
 528 906 l 1,32,33
 508 836 508 836 462.5 790.5 c 128,-1,34
 417 745 417 745 345 745 c 0,18,19
EndSplineSet
EndChar

StartChar: ubreve
Encoding: 365 365 300
Width: 591
GlyphClass: 2
Flags: W
LayerCount: 2
Fore
SplineSet
232 -12 m 0,0,1
 172 -12 172 -12 135.5 14 c 128,-1,2
 99 40 99 40 82.5 86.5 c 128,-1,3
 66 133 66 133 66 193 c 2,4,-1
 66 523 l 1,5,-1
 201 523 l 1,6,-1
 201 206 l 2,7,8
 201 99 201 99 285 99 c 0,9,10
 321 99 321 99 352.5 118.5 c 128,-1,11
 384 138 384 138 384 180 c 2,12,-1
 384 523 l 1,13,-1
 519 523 l 1,14,-1
 519 0 l 1,15,-1
 384 0 l 1,16,-1
 384 87 l 1,17,-1
 379 87 l 1,18,19
 349 -12 349 -12 232 -12 c 0,0,1
293 582 m 0,20,21
 242 582 242 582 205.5 605 c 128,-1,22
 169 628 169 628 145.5 665 c 128,-1,23
 122 702 122 702 111 744 c 1,24,-1
 185 782 l 1,25,26
 194 766 194 766 199 757.5 c 128,-1,27
 204 749 204 749 208.5 741.5 c 128,-1,28
 213 734 213 734 220 724 c 0,29,30
 252 678 252 678 293 678 c 0,31,32
 326 678 326 678 346.5 700 c 128,-1,33
 367 722 367 722 392 764 c 2,34,-1
 403 782 l 1,35,-1
 476 744 l 1,36,37
 454 671 454 671 407.5 626.5 c 128,-1,38
 361 582 361 582 293 582 c 0,20,21
EndSplineSet
EndChar

StartChar: Uring
Encoding: 366 366 301
Width: 691
GlyphClass: 6
Flags: W
LayerCount: 2
Fore
SplineSet
346 -12 m 0,0,1
 198 -12 198 -12 137 59.5 c 128,-1,2
 76 131 76 131 76 286 c 2,3,-1
 76 698 l 1,4,-1
 212 698 l 1,5,-1
 212 269 l 2,6,7
 212 185 212 185 244.5 148.5 c 128,-1,8
 277 112 277 112 346 112 c 0,9,10
 417 112 417 112 448.5 150.5 c 128,-1,11
 480 189 480 189 480 269 c 2,12,-1
 480 698 l 1,13,-1
 615 698 l 1,14,-1
 615 286 l 2,15,16
 615 122 615 122 550 55 c 128,-1,17
 485 -12 485 -12 346 -12 c 0,0,1
346 724 m 0,18,19
 289 724 289 724 246.5 761.5 c 128,-1,20
 204 799 204 799 204 862 c 256,21,22
 204 925 204 925 247 962 c 128,-1,23
 290 999 290 999 346 999 c 256,24,25
 402 999 402 999 445 962 c 128,-1,26
 488 925 488 925 488 862 c 256,27,28
 488 799 488 799 444.5 761.5 c 128,-1,29
 401 724 401 724 346 724 c 0,18,19
346 794 m 0,30,31
 398 796 398 796 398 846 c 2,32,-1
 398 878 l 2,33,34
 396 929 396 929 346 929 c 0,35,36
 318 929 318 929 305.5 914 c 128,-1,37
 293 899 293 899 293 878 c 2,38,-1
 293 846 l 2,39,40
 295 794 295 794 346 794 c 0,30,31
EndSplineSet
EndChar

